<svg width="1082" height="316" viewBox="0 0 1082 316" fill="none" xmlns="http://www.w3.org/2000/svg">
<mask id="path-1-outside-1_1_3" maskUnits="userSpaceOnUse" x="0" y="0" width="1083" height="316" fill="black">
<rect fill="white" width="1083" height="316"/>
<path d="M6.30469 191.469L184.82 5.72656H246.734V191.469H312.555V245.766H246.734V311H184.82V245.766H5.91406L6.30469 191.469ZM184.82 191.469V84.0469L80.5234 191.469H184.82ZM770.758 191.469L949.273 5.72656H1011.19V191.469H1077.01V245.766H1011.19V311H949.273V245.766H770.367L770.758 191.469ZM949.273 191.469V84.0469L844.977 191.469H949.273Z"/>
</mask>
<path d="M6.30469 191.469L184.82 5.72656H246.734V191.469H312.555V245.766H246.734V311H184.82V245.766H5.91406L6.30469 191.469ZM184.82 191.469V84.0469L80.5234 191.469H184.82ZM770.758 191.469L949.273 5.72656H1011.19V191.469H1077.01V245.766H1011.19V311H949.273V245.766H770.367L770.758 191.469ZM949.273 191.469V84.0469L844.977 191.469H949.273Z" fill="#2C2C2C"/>
<path d="M6.30469 191.469L2.69972 188.004L1.31915 189.44L1.30482 191.433L6.30469 191.469ZM184.82 5.72656V0.726562H182.691L181.215 2.26186L184.82 5.72656ZM246.734 5.72656H251.734V0.726562H246.734V5.72656ZM246.734 191.469H241.734V196.469H246.734V191.469ZM312.555 191.469H317.555V186.469H312.555V191.469ZM312.555 245.766V250.766H317.555V245.766H312.555ZM246.734 245.766V240.766H241.734V245.766H246.734ZM246.734 311V316H251.734V311H246.734ZM184.82 311H179.82V316H184.82V311ZM184.82 245.766H189.82V240.766H184.82V245.766ZM5.91406 245.766L0.914192 245.73L0.877962 250.766H5.91406V245.766ZM184.82 191.469V196.469H189.82V191.469H184.82ZM184.82 84.0469H189.82V71.7193L181.233 80.5639L184.82 84.0469ZM80.5234 191.469L76.9361 187.986L68.6999 196.469H80.5234V191.469ZM6.30469 191.469L9.90965 194.933L188.425 9.19127L184.82 5.72656L181.215 2.26186L2.69972 188.004L6.30469 191.469ZM184.82 5.72656V10.7266H246.734V5.72656V0.726562H184.82V5.72656ZM246.734 5.72656H241.734V191.469H246.734H251.734V5.72656H246.734ZM246.734 191.469V196.469H312.555V191.469V186.469H246.734V191.469ZM312.555 191.469H307.555V245.766H312.555H317.555V191.469H312.555ZM312.555 245.766V240.766H246.734V245.766V250.766H312.555V245.766ZM246.734 245.766H241.734V311H246.734H251.734V245.766H246.734ZM246.734 311V306H184.82V311V316H246.734V311ZM184.82 311H189.82V245.766H184.82H179.82V311H184.82ZM184.82 245.766V240.766H5.91406V245.766V250.766H184.82V245.766ZM5.91406 245.766L10.9139 245.802L11.3046 191.505L6.30469 191.469L1.30482 191.433L0.914192 245.73L5.91406 245.766ZM184.82 191.469H189.82V84.0469H184.82H179.82V191.469H184.82ZM184.82 84.0469L181.233 80.5639L76.9361 187.986L80.5234 191.469L84.1108 194.952L188.408 87.5298L184.82 84.0469ZM80.5234 191.469V196.469H184.82V191.469V186.469H80.5234V191.469ZM770.758 191.469L767.153 188.004L765.772 189.44L765.758 191.433L770.758 191.469ZM949.273 5.72656V0.726562H947.144L945.668 2.26186L949.273 5.72656ZM1011.19 5.72656H1016.19V0.726562H1011.19V5.72656ZM1011.19 191.469H1006.19V196.469H1011.19V191.469ZM1077.01 191.469H1082.01V186.469H1077.01V191.469ZM1077.01 245.766V250.766H1082.01V245.766H1077.01ZM1011.19 245.766V240.766H1006.19V245.766H1011.19ZM1011.19 311V316H1016.19V311H1011.19ZM949.273 311H944.273V316H949.273V311ZM949.273 245.766H954.273V240.766H949.273V245.766ZM770.367 245.766L765.367 245.73L765.331 250.766H770.367V245.766ZM949.273 191.469V196.469H954.273V191.469H949.273ZM949.273 84.0469H954.273V71.7193L945.686 80.5639L949.273 84.0469ZM844.977 191.469L841.389 187.986L833.153 196.469H844.977V191.469ZM770.758 191.469L774.363 194.933L952.878 9.19127L949.273 5.72656L945.668 2.26186L767.153 188.004L770.758 191.469ZM949.273 5.72656V10.7266H1011.19V5.72656V0.726562H949.273V5.72656ZM1011.19 5.72656H1006.19V191.469H1011.19H1016.19V5.72656H1011.19ZM1011.19 191.469V196.469H1077.01V191.469V186.469H1011.19V191.469ZM1077.01 191.469H1072.01V245.766H1077.01H1082.01V191.469H1077.01ZM1077.01 245.766V240.766H1011.19V245.766V250.766H1077.01V245.766ZM1011.19 245.766H1006.19V311H1011.19H1016.19V245.766H1011.19ZM1011.19 311V306H949.273V311V316H1011.19V311ZM949.273 311H954.273V245.766H949.273H944.273V311H949.273ZM949.273 245.766V240.766H770.367V245.766V250.766H949.273V245.766ZM770.367 245.766L775.367 245.802L775.758 191.505L770.758 191.469L765.758 191.433L765.367 245.73L770.367 245.766ZM949.273 191.469H954.273V84.0469H949.273H944.273V191.469H949.273ZM949.273 84.0469L945.686 80.5639L841.389 187.986L844.977 191.469L848.564 194.952L952.861 87.5298L949.273 84.0469ZM844.977 191.469V196.469H949.273V191.469V186.469H844.977V191.469Z" fill="#626262" mask="url(#path-1-outside-1_1_3)"/>
</svg>
