<svg width="345" height="347" viewBox="0 0 345 347" fill="none" xmlns="http://www.w3.org/2000/svg">
<mask id="path-1-inside-1_1_9" fill="white">
<path d="M172.5 0C177.154 5.23218e-06 181.764 0.183795 186.325 0.543904C192.848 1.05892 198.11 5.90015 199.662 12.257L202.591 24.2588C203.568 28.2609 208.694 29.4312 211.311 26.249L219.064 16.8183C223.24 11.7399 230.124 9.66677 236.238 12.0829C244.581 15.3795 252.606 19.3039 260.257 23.7981C265.881 27.1019 268.499 33.7278 267.143 40.1079L264.631 51.9268C263.774 55.9564 267.885 59.2347 271.623 57.5029L282.358 52.529C288.324 49.7652 295.425 50.8849 299.889 55.7111C305.97 62.2855 311.549 69.3317 316.564 76.7884C320.208 82.2066 319.696 89.3212 315.702 94.4866L308.521 103.772C306.001 107.031 308.283 111.769 312.402 111.831L323.965 112.004C330.532 112.102 336.44 116.182 338.369 122.459C340.994 131 342.977 139.822 344.262 148.869C345.179 155.323 341.632 161.495 335.802 164.411L325.571 169.528C321.887 171.371 321.887 176.629 325.571 178.472L335.664 183.519C341.523 186.449 345.074 192.667 344.114 199.147C342.769 208.226 340.72 217.075 338.026 225.638C336.065 231.867 330.183 235.903 323.653 236.001L312.402 236.169C308.283 236.231 306.001 240.969 308.521 244.228L315.342 253.048C319.35 258.231 319.851 265.374 316.171 270.796C311.062 278.325 305.376 285.43 299.177 292.05C294.706 296.825 287.642 297.919 281.707 295.169L271.623 290.497C267.885 288.765 263.774 292.044 264.631 296.073L266.953 307.001C268.311 313.388 265.685 320.021 260.05 323.321C252.254 327.886 244.069 331.86 235.558 335.182C229.455 337.564 222.603 335.485 218.442 330.425L211.311 321.751C208.694 318.569 203.568 319.739 202.591 323.741L199.911 334.722C198.361 341.07 193.111 345.908 186.597 346.433C181.948 346.808 177.246 347 172.5 347C168.132 347 163.802 346.838 159.515 346.52C152.962 346.034 147.665 341.182 146.107 334.799L143.409 323.741C142.432 319.739 137.306 318.569 134.689 321.751L127.314 330.721C123.171 335.759 116.358 337.844 110.27 335.503C101.815 332.253 93.6787 328.361 85.9213 323.885C80.2343 320.604 77.5717 313.937 78.9369 307.515L81.3692 296.073C82.2256 292.044 78.115 288.765 74.377 290.497L63.5937 295.492C57.672 298.236 50.6259 297.154 46.1524 292.402C40.0323 285.902 34.4085 278.929 29.3411 271.544C25.6178 266.117 26.1031 258.936 30.1291 253.731L37.4785 244.228C39.9984 240.969 37.7167 236.231 33.5977 236.169L21.3409 235.985C14.811 235.887 8.92805 231.851 6.96812 225.621C4.32612 217.224 2.3052 208.551 0.959899 199.656C-0.0222311 193.163 3.53007 186.923 9.40374 183.985L20.4287 178.472C24.1128 176.629 24.1128 171.371 20.4287 169.528L9.2662 163.945C3.42176 161.022 -0.127268 154.827 0.811129 148.36C2.09719 139.497 4.05291 130.851 6.62594 122.475C8.55453 116.197 14.4632 112.116 21.03 112.018L33.5977 111.831C37.7167 111.769 39.9984 107.031 37.4785 103.772L29.7639 93.7968C25.7516 88.6086 25.2545 81.4564 28.9437 76.0337C33.9176 68.7225 39.4357 61.8114 45.4394 55.358C49.907 50.5557 56.9907 49.4481 62.9422 52.2053L74.377 57.5029C78.115 59.2345 82.2256 55.9564 81.3692 51.9268L78.7473 39.5933C77.3836 33.1785 80.0384 26.5191 85.7144 23.2339C93.3255 18.8287 101.302 14.9852 109.588 11.76C115.688 9.38552 122.534 11.4649 126.691 16.5212L134.689 26.249C137.306 29.4311 142.432 28.2609 143.409 24.2588L146.355 12.1837C147.915 5.79223 153.224 0.936673 159.786 0.460282C163.984 0.15547 168.224 0 172.5 0ZM172.5 63C111.473 63 62 112.473 62 173.5C62 234.527 111.473 284 172.5 284C233.527 284 283 234.527 283 173.5C283 112.473 233.527 63.0001 172.5 63Z"/>
</mask>
<path d="M172.5 0C177.154 5.23218e-06 181.764 0.183795 186.325 0.543904C192.848 1.05892 198.11 5.90015 199.662 12.257L202.591 24.2588C203.568 28.2609 208.694 29.4312 211.311 26.249L219.064 16.8183C223.24 11.7399 230.124 9.66677 236.238 12.0829C244.581 15.3795 252.606 19.3039 260.257 23.7981C265.881 27.1019 268.499 33.7278 267.143 40.1079L264.631 51.9268C263.774 55.9564 267.885 59.2347 271.623 57.5029L282.358 52.529C288.324 49.7652 295.425 50.8849 299.889 55.7111C305.97 62.2855 311.549 69.3317 316.564 76.7884C320.208 82.2066 319.696 89.3212 315.702 94.4866L308.521 103.772C306.001 107.031 308.283 111.769 312.402 111.831L323.965 112.004C330.532 112.102 336.44 116.182 338.369 122.459C340.994 131 342.977 139.822 344.262 148.869C345.179 155.323 341.632 161.495 335.802 164.411L325.571 169.528C321.887 171.371 321.887 176.629 325.571 178.472L335.664 183.519C341.523 186.449 345.074 192.667 344.114 199.147C342.769 208.226 340.72 217.075 338.026 225.638C336.065 231.867 330.183 235.903 323.653 236.001L312.402 236.169C308.283 236.231 306.001 240.969 308.521 244.228L315.342 253.048C319.35 258.231 319.851 265.374 316.171 270.796C311.062 278.325 305.376 285.43 299.177 292.05C294.706 296.825 287.642 297.919 281.707 295.169L271.623 290.497C267.885 288.765 263.774 292.044 264.631 296.073L266.953 307.001C268.311 313.388 265.685 320.021 260.05 323.321C252.254 327.886 244.069 331.86 235.558 335.182C229.455 337.564 222.603 335.485 218.442 330.425L211.311 321.751C208.694 318.569 203.568 319.739 202.591 323.741L199.911 334.722C198.361 341.07 193.111 345.908 186.597 346.433C181.948 346.808 177.246 347 172.5 347C168.132 347 163.802 346.838 159.515 346.52C152.962 346.034 147.665 341.182 146.107 334.799L143.409 323.741C142.432 319.739 137.306 318.569 134.689 321.751L127.314 330.721C123.171 335.759 116.358 337.844 110.27 335.503C101.815 332.253 93.6787 328.361 85.9213 323.885C80.2343 320.604 77.5717 313.937 78.9369 307.515L81.3692 296.073C82.2256 292.044 78.115 288.765 74.377 290.497L63.5937 295.492C57.672 298.236 50.6259 297.154 46.1524 292.402C40.0323 285.902 34.4085 278.929 29.3411 271.544C25.6178 266.117 26.1031 258.936 30.1291 253.731L37.4785 244.228C39.9984 240.969 37.7167 236.231 33.5977 236.169L21.3409 235.985C14.811 235.887 8.92805 231.851 6.96812 225.621C4.32612 217.224 2.3052 208.551 0.959899 199.656C-0.0222311 193.163 3.53007 186.923 9.40374 183.985L20.4287 178.472C24.1128 176.629 24.1128 171.371 20.4287 169.528L9.2662 163.945C3.42176 161.022 -0.127268 154.827 0.811129 148.36C2.09719 139.497 4.05291 130.851 6.62594 122.475C8.55453 116.197 14.4632 112.116 21.03 112.018L33.5977 111.831C37.7167 111.769 39.9984 107.031 37.4785 103.772L29.7639 93.7968C25.7516 88.6086 25.2545 81.4564 28.9437 76.0337C33.9176 68.7225 39.4357 61.8114 45.4394 55.358C49.907 50.5557 56.9907 49.4481 62.9422 52.2053L74.377 57.5029C78.115 59.2345 82.2256 55.9564 81.3692 51.9268L78.7473 39.5933C77.3836 33.1785 80.0384 26.5191 85.7144 23.2339C93.3255 18.8287 101.302 14.9852 109.588 11.76C115.688 9.38552 122.534 11.4649 126.691 16.5212L134.689 26.249C137.306 29.4311 142.432 28.2609 143.409 24.2588L146.355 12.1837C147.915 5.79223 153.224 0.936673 159.786 0.460282C163.984 0.15547 168.224 0 172.5 0ZM172.5 63C111.473 63 62 112.473 62 173.5C62 234.527 111.473 284 172.5 284C233.527 284 283 234.527 283 173.5C283 112.473 233.527 63.0001 172.5 63Z" fill="#2C2C2C"/>
<path d="M172.5 0V-5V0ZM202.591 24.2588L197.733 25.4443V25.4443L202.591 24.2588ZM211.311 26.249L215.173 29.4246L215.173 29.4244L211.311 26.249ZM264.631 51.9268L269.522 52.9663L269.522 52.9663L264.631 51.9268ZM271.623 57.5029L273.725 62.0397L273.725 62.0396L271.623 57.5029ZM308.521 103.772L312.477 106.831V106.831L308.521 103.772ZM312.402 111.831L312.327 116.83H312.328L312.402 111.831ZM325.571 169.528L323.335 165.056L323.335 165.057L325.571 169.528ZM325.571 178.472L323.335 182.943L323.335 182.944L325.571 178.472ZM312.402 236.169L312.328 231.17H312.327L312.402 236.169ZM308.521 244.228L304.566 247.286L304.566 247.286L308.521 244.228ZM271.623 290.497L273.725 285.96L271.623 290.497ZM264.631 296.073L269.522 295.034L269.522 295.034L264.631 296.073ZM211.311 321.751L215.173 318.576L215.173 318.575L211.311 321.751ZM202.591 323.741L207.448 324.927L207.448 324.927L202.591 323.741ZM172.5 347V352V347ZM143.409 323.741L148.267 322.556L148.267 322.556L143.409 323.741ZM134.689 321.751L130.827 318.575L130.827 318.575L134.689 321.751ZM81.3692 296.073L86.2599 297.113L86.2599 297.113L81.3692 296.073ZM74.377 290.497L72.2753 285.96H72.2753L74.377 290.497ZM37.4785 244.228L41.4337 247.286L41.434 247.286L37.4785 244.228ZM33.5977 236.169L33.6727 231.17H33.6726L33.5977 236.169ZM20.4287 178.472L22.6651 182.944L22.6656 182.943L20.4287 178.472ZM20.4287 169.528L22.6656 165.057L22.6654 165.056L20.4287 169.528ZM33.5977 111.831L33.6722 116.83L33.6727 116.83L33.5977 111.831ZM37.4785 103.772L41.434 100.714L41.4338 100.714L37.4785 103.772ZM74.377 57.5029L72.2751 62.0397L72.2753 62.0398L74.377 57.5029ZM81.3692 51.9268L86.2599 50.8873L86.2599 50.8871L81.3692 51.9268ZM134.689 26.249L130.827 29.4246L130.827 29.4247L134.689 26.249ZM143.409 24.2588L148.267 25.4443L148.267 25.444L143.409 24.2588ZM172.5 63V58V63ZM172.5 284V289V284ZM146.355 12.1837L151.213 13.3689L146.355 12.1837ZM126.691 16.5212L122.829 19.6967L126.691 16.5212ZM78.7473 39.5933L73.8566 40.633L78.7473 39.5933ZM85.7144 23.2339L83.2097 18.9065L85.7144 23.2339ZM45.4394 55.358L41.7786 51.9523L45.4394 55.358ZM29.7639 93.7968L33.7191 90.738L29.7639 93.7968ZM6.62594 122.475L1.84638 121.007L6.62594 122.475ZM21.03 112.018L21.1045 117.018L21.03 112.018ZM9.2662 163.945L7.02954 168.417L9.2662 163.945ZM9.40374 183.985L7.16734 179.513L9.40374 183.985ZM21.3409 235.985L21.4159 230.986L21.3409 235.985ZM6.96812 225.621L2.1986 227.122L6.96812 225.621ZM29.3411 271.544L33.4639 268.715L29.3411 271.544ZM30.1291 253.731L34.0843 256.789L30.1291 253.731ZM63.5937 295.492L61.492 290.956L63.5937 295.492ZM85.9213 323.885L88.42 319.554L85.9213 323.885ZM127.314 330.721L131.176 333.896L127.314 330.721ZM159.515 346.52L159.885 341.534L159.515 346.52ZM235.558 335.182L237.376 339.84L235.558 335.182ZM218.442 330.425L222.305 327.249L218.442 330.425ZM299.177 292.05L295.527 288.633L299.177 292.05ZM281.707 295.169L283.809 290.632L281.707 295.169ZM338.026 225.638L333.256 224.137L338.026 225.638ZM323.653 236.001L323.578 231.001L323.653 236.001ZM344.262 148.869L349.212 148.166L344.262 148.869ZM335.802 164.411L338.038 168.883L335.802 164.411ZM282.358 52.529L284.46 57.0657L282.358 52.529ZM299.889 55.7111L303.56 52.3159L299.889 55.7111ZM335.664 183.519L337.901 179.047L335.664 183.519ZM344.114 199.147L349.06 199.88L344.114 199.147ZM199.911 334.722L204.768 335.907L199.911 334.722ZM186.597 346.433L186.195 341.449L186.597 346.433ZM260.257 23.7981L262.789 19.487L260.257 23.7981ZM315.342 253.048L311.387 256.106L315.342 253.048ZM316.171 270.796L320.309 273.603L316.171 270.796ZM316.564 76.7884L320.713 73.998L316.564 76.7884ZM315.702 94.4866L311.746 91.4281L315.702 94.4866ZM219.064 16.8183L222.926 19.9937L219.064 16.8183ZM236.238 12.0829L234.401 16.733L236.238 12.0829ZM323.965 112.004L323.891 117.003L323.965 112.004ZM338.369 122.459L333.589 123.928L338.369 122.459ZM266.953 307.001L262.063 308.04L266.953 307.001ZM260.05 323.321L257.523 319.006L260.05 323.321ZM199.662 12.257L194.804 13.4425L199.662 12.257ZM172.5 0V5C177.022 5.00001 181.501 5.17859 185.932 5.52839L186.325 0.543904L186.719 -4.44059C182.027 -4.811 177.285 -4.99999 172.5 -5V0ZM199.662 12.257L194.804 13.4425L197.733 25.4443L202.591 24.2588L207.448 23.0733L204.519 11.0715L199.662 12.257ZM202.591 24.2588L197.733 25.4443C199.687 33.4483 209.94 35.7892 215.173 29.4246L211.311 26.249L207.448 23.0735C207.436 23.0883 207.429 23.0956 207.426 23.0978C207.424 23.1 207.425 23.0989 207.429 23.096C207.433 23.0932 207.439 23.0899 207.445 23.0867C207.452 23.0835 207.458 23.0811 207.464 23.0793C207.475 23.0759 207.479 23.0762 207.475 23.0764C207.473 23.0764 207.469 23.0764 207.464 23.076C207.46 23.0755 207.454 23.0747 207.448 23.0734C207.443 23.0721 207.438 23.0705 207.433 23.0688C207.428 23.0672 207.425 23.0656 207.424 23.0647C207.42 23.0628 207.424 23.0643 207.432 23.0721C207.436 23.076 207.441 23.0809 207.445 23.0866C207.45 23.0924 207.454 23.0978 207.456 23.1021C207.459 23.1066 207.459 23.1079 207.458 23.1049C207.457 23.1019 207.453 23.0919 207.448 23.0733L202.591 24.2588ZM211.311 26.249L215.173 29.4244L222.926 19.9937L219.064 16.8183L215.202 13.6429L207.448 23.0736L211.311 26.249ZM236.238 12.0829L234.401 16.733C242.501 19.9339 250.294 23.7447 257.724 28.1093L260.257 23.7981L262.789 19.487C254.918 14.8631 246.66 10.825 238.076 7.43283L236.238 12.0829ZM267.143 40.1079L262.252 39.0684L259.74 50.8873L264.631 51.9268L269.522 52.9663L272.034 41.1474L267.143 40.1079ZM264.631 51.9268L259.74 50.8872C258.027 58.9463 266.249 65.5034 273.725 62.0397L271.623 57.5029L269.521 52.9662C269.504 52.9742 269.494 52.9775 269.491 52.9784C269.487 52.9793 269.489 52.9788 269.494 52.978C269.499 52.9773 269.505 52.9767 269.513 52.9767C269.52 52.9767 269.527 52.9773 269.532 52.9781C269.544 52.9797 269.547 52.9818 269.544 52.9802C269.542 52.9794 269.539 52.9779 269.535 52.9755C269.531 52.973 269.526 52.9699 269.521 52.9663C269.517 52.9627 269.513 52.959 269.51 52.9555C269.506 52.9521 269.504 52.9494 269.503 52.9478C269.501 52.9446 269.504 52.9477 269.508 52.9583C269.51 52.9636 269.512 52.97 269.513 52.9772C269.515 52.9844 269.516 52.9909 269.516 52.9959C269.517 53.001 269.516 53.0023 269.517 52.999C269.517 52.9957 269.518 52.9851 269.522 52.9663L264.631 51.9268ZM271.623 57.5029L273.725 62.0396L284.46 57.0657L282.358 52.529L280.256 47.9923L269.521 52.9662L271.623 57.5029ZM299.889 55.7111L296.219 59.1063C302.126 65.4923 307.544 72.3364 312.415 79.5788L316.564 76.7884L320.713 73.998C315.554 66.327 309.815 59.0786 303.56 52.3159L299.889 55.7111ZM315.702 94.4866L311.746 91.4281L304.566 100.714L308.521 103.772L312.477 106.831L319.657 97.5452L315.702 94.4866ZM308.521 103.772L304.566 100.714C299.526 107.232 304.089 116.707 312.327 116.83L312.402 111.831L312.477 106.832C312.458 106.831 312.448 106.83 312.444 106.829C312.441 106.829 312.443 106.829 312.447 106.83C312.452 106.832 312.458 106.834 312.465 106.837C312.472 106.841 312.477 106.844 312.482 106.847C312.492 106.853 312.494 106.857 312.491 106.854C312.49 106.852 312.488 106.849 312.485 106.845C312.482 106.841 312.48 106.837 312.477 106.831C312.474 106.826 312.472 106.821 312.471 106.816C312.469 106.812 312.469 106.808 312.468 106.806C312.467 106.802 312.469 106.806 312.468 106.818C312.467 106.823 312.466 106.83 312.465 106.837C312.463 106.844 312.461 106.85 312.459 106.855C312.457 106.86 312.457 106.861 312.458 106.858C312.46 106.855 312.465 106.846 312.477 106.831L308.521 103.772ZM312.402 111.831L312.328 116.83L323.891 117.003L323.965 112.004L324.04 107.004L312.477 106.832L312.402 111.831ZM338.369 122.459L333.589 123.928C336.138 132.221 338.064 140.787 339.312 149.572L344.262 148.869L349.212 148.166C347.89 138.858 345.849 129.78 343.148 120.991L338.369 122.459ZM335.802 164.411L333.565 159.94L323.335 165.056L325.571 169.528L327.808 174L338.038 168.883L335.802 164.411ZM325.571 169.528L323.335 165.057C315.966 168.742 315.966 179.258 323.335 182.943L325.571 178.472L327.808 174C327.791 173.991 327.782 173.985 327.779 173.984C327.777 173.982 327.778 173.982 327.782 173.986C327.785 173.989 327.79 173.994 327.794 174C327.799 174.005 327.803 174.011 327.806 174.016C327.811 174.026 327.812 174.03 327.811 174.026C327.81 174.024 327.81 174.021 327.809 174.016C327.809 174.011 327.808 174.006 327.808 174C327.808 173.994 327.809 173.989 327.809 173.984C327.81 173.979 327.81 173.976 327.811 173.974C327.812 173.97 327.811 173.974 327.806 173.984C327.803 173.989 327.799 173.995 327.794 174C327.79 174.006 327.785 174.011 327.782 174.014C327.778 174.018 327.777 174.018 327.779 174.016C327.782 174.015 327.791 174.009 327.808 174L325.571 169.528ZM325.571 178.472L323.335 182.944L333.428 187.991L335.664 183.519L337.901 179.047L327.808 174L325.571 178.472ZM344.114 199.147L339.168 198.414C337.862 207.231 335.873 215.823 333.256 224.137L338.026 225.638L342.795 227.139C345.568 218.327 347.676 209.221 349.06 199.88L344.114 199.147ZM323.653 236.001L323.578 231.001L312.328 231.17L312.402 236.169L312.477 241.168L323.728 241L323.653 236.001ZM312.402 236.169L312.327 231.17C304.089 231.293 299.526 240.768 304.566 247.286L308.521 244.228L312.477 241.169C312.465 241.154 312.46 241.145 312.458 241.142C312.457 241.139 312.457 241.14 312.459 241.145C312.461 241.15 312.463 241.156 312.465 241.163C312.466 241.17 312.467 241.177 312.468 241.182C312.469 241.194 312.468 241.198 312.468 241.194C312.469 241.192 312.469 241.188 312.471 241.184C312.472 241.179 312.474 241.174 312.477 241.169C312.48 241.163 312.482 241.159 312.485 241.155C312.488 241.151 312.49 241.148 312.491 241.146C312.494 241.143 312.492 241.147 312.482 241.153C312.477 241.156 312.472 241.159 312.465 241.163C312.458 241.166 312.452 241.168 312.447 241.17C312.443 241.171 312.441 241.171 312.444 241.171C312.448 241.17 312.458 241.169 312.477 241.168L312.402 236.169ZM308.521 244.228L304.566 247.286L311.387 256.106L315.342 253.048L319.297 249.989L312.477 241.169L308.521 244.228ZM316.171 270.796L312.034 267.988C307.072 275.3 301.549 282.202 295.527 288.633L299.177 292.05L302.827 295.468C309.203 288.658 315.052 281.349 320.309 273.603L316.171 270.796ZM281.707 295.169L283.809 290.632L273.725 285.96L271.623 290.497L269.521 295.034L279.605 299.706L281.707 295.169ZM271.623 290.497L273.725 285.96C266.249 282.497 258.027 289.054 259.74 297.113L264.631 296.073L269.522 295.034C269.518 295.015 269.517 295.004 269.517 295.001C269.516 294.998 269.517 294.999 269.516 295.004C269.516 295.009 269.515 295.016 269.513 295.023C269.512 295.03 269.51 295.036 269.508 295.042C269.504 295.052 269.501 295.055 269.503 295.052C269.504 295.051 269.506 295.048 269.51 295.044C269.513 295.041 269.517 295.037 269.521 295.034C269.526 295.03 269.531 295.027 269.535 295.025C269.539 295.022 269.542 295.021 269.544 295.02C269.547 295.018 269.544 295.02 269.532 295.022C269.527 295.023 269.52 295.023 269.513 295.023C269.505 295.023 269.499 295.023 269.494 295.022C269.489 295.021 269.487 295.021 269.491 295.022C269.494 295.023 269.504 295.026 269.521 295.034L271.623 290.497ZM264.631 296.073L259.74 297.113L262.063 308.04L266.953 307.001L271.844 305.961L269.522 295.034L264.631 296.073ZM260.05 323.321L257.523 319.006C249.952 323.44 242.004 327.299 233.74 330.524L235.558 335.182L237.376 339.84C246.134 336.422 254.555 332.333 262.577 327.635L260.05 323.321ZM218.442 330.425L222.305 327.249L215.173 318.576L211.311 321.751L207.448 324.926L214.58 333.6L218.442 330.425ZM211.311 321.751L215.173 318.575C209.94 312.211 199.687 314.552 197.733 322.556L202.591 323.741L207.448 324.927C207.453 324.908 207.457 324.898 207.458 324.895C207.459 324.892 207.459 324.893 207.456 324.898C207.454 324.902 207.45 324.908 207.445 324.913C207.441 324.919 207.436 324.924 207.432 324.928C207.424 324.936 207.42 324.937 207.424 324.935C207.425 324.934 207.428 324.933 207.433 324.931C207.438 324.93 207.443 324.928 207.448 324.927C207.454 324.925 207.46 324.924 207.464 324.924C207.469 324.924 207.473 324.924 207.475 324.924C207.479 324.924 207.475 324.924 207.464 324.921C207.458 324.919 207.452 324.917 207.445 324.913C207.439 324.91 207.433 324.907 207.429 324.904C207.425 324.901 207.424 324.9 207.426 324.902C207.429 324.904 207.436 324.912 207.448 324.927L211.311 321.751ZM202.591 323.741L197.733 322.556L195.053 333.536L199.911 334.722L204.768 335.907L207.448 324.927L202.591 323.741ZM186.597 346.433L186.195 341.449C181.679 341.814 177.111 342 172.5 342V347V352C177.381 352 182.216 351.803 186.999 351.417L186.597 346.433ZM172.5 347V342C168.256 342 164.049 341.842 159.885 341.534L159.515 346.52L159.145 351.506C163.555 351.833 168.008 352 172.5 352V347ZM146.107 334.799L150.965 333.614L148.267 322.556L143.409 323.741L138.552 324.926L141.25 335.984L146.107 334.799ZM143.409 323.741L148.267 322.556C146.313 314.551 136.06 312.211 130.827 318.575L134.689 321.751L138.552 324.927C138.564 324.912 138.571 324.904 138.574 324.902C138.576 324.9 138.575 324.901 138.571 324.904C138.567 324.907 138.561 324.91 138.555 324.913C138.548 324.917 138.542 324.919 138.536 324.921C138.526 324.924 138.521 324.924 138.525 324.924C138.527 324.924 138.531 324.924 138.536 324.924C138.54 324.925 138.546 324.925 138.552 324.927C138.557 324.928 138.563 324.93 138.567 324.931C138.572 324.933 138.575 324.934 138.577 324.935C138.58 324.937 138.576 324.936 138.568 324.928C138.564 324.924 138.559 324.919 138.555 324.913C138.55 324.908 138.546 324.902 138.544 324.898C138.541 324.893 138.541 324.892 138.542 324.895C138.543 324.898 138.547 324.908 138.552 324.927L143.409 323.741ZM134.689 321.751L130.827 318.575L123.452 327.545L127.314 330.721L131.176 333.896L138.552 324.927L134.689 321.751ZM110.27 335.503L112.064 330.836C103.854 327.681 95.9536 323.901 88.42 319.554L85.9213 323.885L83.4225 328.216C91.4037 332.821 99.7753 336.826 108.476 340.17L110.27 335.503ZM78.9369 307.515L83.8276 308.555L86.2599 297.113L81.3692 296.073L76.4784 295.034L74.0462 306.475L78.9369 307.515ZM81.3692 296.073L86.2599 297.113C87.9728 289.054 79.7513 282.497 72.2753 285.96L74.377 290.497L76.4786 295.034C76.4961 295.026 76.5062 295.023 76.5094 295.022C76.5125 295.021 76.5113 295.021 76.5062 295.022C76.5012 295.023 76.4947 295.023 76.4873 295.023C76.48 295.023 76.4733 295.023 76.4677 295.022C76.4563 295.02 76.4528 295.018 76.4564 295.02C76.4582 295.021 76.4613 295.022 76.4654 295.025C76.4695 295.027 76.474 295.03 76.4785 295.034C76.4831 295.037 76.4871 295.041 76.4904 295.045C76.4937 295.048 76.4959 295.051 76.497 295.052C76.4994 295.055 76.4965 295.052 76.4924 295.042C76.4904 295.036 76.4884 295.03 76.4868 295.023C76.4851 295.016 76.4842 295.009 76.4838 295.004C76.4834 294.999 76.4837 294.998 76.4835 295.001C76.4833 295.004 76.4824 295.015 76.4784 295.034L81.3692 296.073ZM74.377 290.497L72.2753 285.96L61.492 290.956L63.5937 295.492L65.6954 300.029L76.4787 295.034L74.377 290.497ZM46.1524 292.402L49.7929 288.975C43.8481 282.66 38.3856 275.887 33.4639 268.715L29.3411 271.544L25.2183 274.372C30.4313 281.97 36.2165 289.143 42.5118 295.83L46.1524 292.402ZM30.1291 253.731L34.0843 256.789L41.4337 247.286L37.4785 244.228L33.5233 241.169L26.1739 250.672L30.1291 253.731ZM37.4785 244.228L41.434 247.286C46.4739 240.768 41.9105 231.293 33.6727 231.17L33.5977 236.169L33.5226 241.168C33.5418 241.169 33.5523 241.17 33.5555 241.171C33.5587 241.171 33.5573 241.171 33.5524 241.17C33.5476 241.168 33.5415 241.166 33.5348 241.163C33.5282 241.159 33.5225 241.156 33.5178 241.153C33.5083 241.147 33.5061 241.143 33.5088 241.146C33.5101 241.148 33.5123 241.151 33.5149 241.155C33.5176 241.159 33.5203 241.163 33.5229 241.169C33.5254 241.174 33.5274 241.179 33.529 241.184C33.5305 241.188 33.5313 241.192 33.5317 241.194C33.5324 241.198 33.5311 241.194 33.5321 241.183C33.5326 241.177 33.5335 241.17 33.5352 241.163C33.5368 241.156 33.5388 241.15 33.5406 241.145C33.5425 241.14 33.5434 241.139 33.5418 241.142C33.5402 241.145 33.5348 241.154 33.5231 241.169L37.4785 244.228ZM33.5977 236.169L33.6726 231.17L21.4159 230.986L21.3409 235.985L21.266 240.985L33.5227 241.168L33.5977 236.169ZM6.96812 225.621L11.7376 224.121C9.17241 215.967 7.21008 207.546 5.90367 198.909L0.959899 199.656L-3.98387 200.404C-2.59967 209.556 -0.520176 218.48 2.1986 227.122L6.96812 225.621ZM9.40374 183.985L11.6401 188.457L22.6651 182.944L20.4287 178.472L18.1923 174L7.16734 179.513L9.40374 183.985ZM20.4287 178.472L22.6656 182.943C30.0338 179.258 30.0338 168.742 22.6656 165.057L20.4287 169.528L18.1918 174C18.209 174.009 18.2178 174.015 18.2205 174.016C18.2232 174.018 18.2219 174.018 18.2182 174.014C18.2145 174.011 18.21 174.006 18.2054 174C18.2008 173.994 18.1971 173.989 18.1942 173.984C18.1884 173.974 18.1878 173.97 18.1889 173.974C18.1894 173.976 18.1901 173.979 18.1908 173.984C18.1914 173.989 18.1918 173.994 18.1918 174C18.1918 174.006 18.1914 174.011 18.1908 174.016C18.1901 174.021 18.1894 174.024 18.1889 174.026C18.1878 174.03 18.1884 174.026 18.1942 174.016C18.1971 174.011 18.2008 174.006 18.2054 174C18.21 173.994 18.2145 173.989 18.2182 173.986C18.2219 173.982 18.2232 173.982 18.2205 173.984C18.2178 173.985 18.209 173.991 18.1918 174L20.4287 178.472ZM20.4287 169.528L22.6654 165.056L11.5029 159.473L9.2662 163.945L7.02954 168.417L18.1921 174L20.4287 169.528ZM0.811129 148.36L5.75931 149.078C7.00825 140.471 8.90732 132.076 11.4055 123.944L6.62594 122.475L1.84638 121.007C-0.801489 129.627 -2.81386 138.523 -4.13705 147.642L0.811129 148.36ZM21.03 112.018L21.1045 117.018L33.6722 116.83L33.5977 111.831L33.5231 106.832L20.9554 107.019L21.03 112.018ZM33.5977 111.831L33.6727 116.83C41.9105 116.707 46.4739 107.232 41.434 100.714L37.4785 103.772L33.5231 106.831C33.5348 106.846 33.5402 106.855 33.5418 106.858C33.5434 106.861 33.5425 106.86 33.5406 106.855C33.5388 106.85 33.5368 106.844 33.5352 106.837C33.5335 106.83 33.5326 106.823 33.5321 106.817C33.5311 106.806 33.5324 106.802 33.5317 106.806C33.5313 106.808 33.5305 106.812 33.529 106.816C33.5274 106.821 33.5254 106.826 33.5229 106.831C33.5203 106.837 33.5176 106.841 33.5149 106.845C33.5123 106.849 33.5101 106.852 33.5088 106.854C33.5061 106.857 33.5083 106.853 33.5178 106.847C33.5225 106.844 33.5282 106.841 33.5348 106.837C33.5415 106.834 33.5476 106.832 33.5524 106.83C33.5573 106.829 33.5587 106.829 33.5555 106.829C33.5523 106.83 33.5418 106.831 33.5226 106.832L33.5977 111.831ZM37.4785 103.772L41.4338 100.714L33.7191 90.738L29.7639 93.7968L25.8086 96.8556L33.5233 106.831L37.4785 103.772ZM28.9437 76.0337L33.0777 78.8461C37.9086 71.7453 43.2684 65.0323 49.1002 58.7636L45.4394 55.358L41.7786 51.9523C35.6031 58.5904 29.9267 65.6998 24.8097 73.2212L28.9437 76.0337ZM62.9422 52.2053L60.8403 56.7421L72.2751 62.0397L74.377 57.5029L76.4788 52.9662L65.044 47.6685L62.9422 52.2053ZM74.377 57.5029L72.2753 62.0398C79.7513 65.503 87.9728 58.9465 86.2599 50.8873L81.3692 51.9268L76.4784 52.9662C76.4824 52.985 76.4833 52.9957 76.4835 52.9989C76.4837 53.0022 76.4834 53.0009 76.4838 52.9958C76.4842 52.9908 76.4851 52.9843 76.4868 52.977C76.4884 52.9699 76.4904 52.9635 76.4924 52.9582C76.4965 52.9475 76.4994 52.9445 76.497 52.9477C76.4959 52.9493 76.4937 52.952 76.4904 52.9554C76.4871 52.9589 76.483 52.9625 76.4785 52.9662C76.474 52.9698 76.4695 52.9729 76.4654 52.9753C76.4613 52.9778 76.4582 52.9793 76.4564 52.9801C76.4528 52.9817 76.4563 52.9796 76.4676 52.978C76.4733 52.9772 76.48 52.9767 76.4873 52.9767C76.4947 52.9767 76.5012 52.9772 76.5062 52.9779C76.5113 52.9787 76.5125 52.9793 76.5094 52.9783C76.5062 52.9774 76.4961 52.9742 76.4786 52.9661L74.377 57.5029ZM81.3692 51.9268L86.2599 50.8871L83.638 38.5537L78.7473 39.5933L73.8566 40.633L76.4784 52.9664L81.3692 51.9268ZM85.7144 23.2339L88.2191 27.5613C95.6106 23.2832 103.356 19.551 111.402 16.4194L109.588 11.76L107.774 7.10051C99.2481 10.4193 91.0405 14.3741 83.2097 18.9065L85.7144 23.2339ZM126.691 16.5212L122.829 19.6967L130.827 29.4246L134.689 26.249L138.552 23.0735L130.553 13.3457L126.691 16.5212ZM134.689 26.249L130.827 29.4247C136.06 35.7888 146.313 33.4485 148.267 25.4443L143.409 24.2588L138.552 23.0733C138.547 23.0919 138.543 23.1019 138.542 23.1049C138.541 23.1079 138.541 23.1066 138.544 23.1021C138.546 23.0978 138.55 23.0923 138.555 23.0866C138.559 23.0808 138.564 23.0759 138.568 23.072C138.576 23.0642 138.58 23.0628 138.577 23.0647C138.575 23.0656 138.572 23.0671 138.567 23.0688C138.563 23.0704 138.557 23.072 138.552 23.0733C138.546 23.0746 138.54 23.0755 138.536 23.0759C138.531 23.0764 138.527 23.0764 138.525 23.0763C138.521 23.0762 138.526 23.0758 138.536 23.0793C138.542 23.081 138.548 23.0834 138.555 23.0866C138.561 23.0898 138.567 23.0931 138.571 23.096C138.575 23.0988 138.576 23.0999 138.574 23.0977C138.571 23.0955 138.564 23.0882 138.552 23.0734L134.689 26.249ZM143.409 24.2588L148.267 25.444L151.213 13.3689L146.355 12.1837L141.498 10.9985L138.552 23.0736L143.409 24.2588ZM159.786 0.460282L160.148 5.44716C164.226 5.15106 168.345 5 172.5 5V0V-5C168.103 -5 163.742 -4.84012 159.424 -4.52659L159.786 0.460282ZM172.5 63V58C108.711 58 57 109.711 57 173.5H62H67C67 115.234 114.234 68 172.5 68V63ZM62 173.5H57C57 237.289 108.711 289 172.5 289V284V279C114.234 279 67 231.766 67 173.5H62ZM172.5 284V289C236.289 289 288 237.289 288 173.5H283H278C278 231.766 230.766 279 172.5 279L172.5 284ZM283 173.5H288C288 109.711 236.289 58.0001 172.5 58V63L172.5 68C230.766 68.0001 278 115.234 278 173.5H283ZM146.355 12.1837L151.213 13.3689C152.302 8.90446 155.932 5.75325 160.148 5.44716L159.786 0.460282L159.424 -4.52659C150.516 -3.87991 143.528 2.68 141.498 10.9985L146.355 12.1837ZM109.588 11.76L111.402 16.4194C115.318 14.895 119.924 16.1643 122.829 19.6967L126.691 16.5212L130.553 13.3457C125.143 6.76552 116.058 3.87602 107.774 7.10051L109.588 11.76ZM78.7473 39.5933L83.638 38.5537C82.6854 34.0724 84.5733 29.6714 88.2191 27.5613L85.7144 23.2339L83.2097 18.9065C75.5034 23.3668 72.0819 32.2845 73.8566 40.633L78.7473 39.5933ZM45.4394 55.358L49.1002 58.7636C51.9711 55.6776 56.6834 54.8162 60.8403 56.7421L62.9422 52.2053L65.044 47.6685C57.2981 44.08 47.8429 45.4337 41.7786 51.9523L45.4394 55.358ZM29.7639 93.7968L33.7191 90.738C30.9163 87.1139 30.708 82.3293 33.0777 78.8461L28.9437 76.0337L24.8097 73.2212C19.8009 80.5835 20.5868 90.1033 25.8086 96.8556L29.7639 93.7968ZM6.62594 122.475L11.4055 123.944C12.6434 119.914 16.5164 117.086 21.1045 117.018L21.03 112.018L20.9554 107.019C12.4099 107.146 4.46564 112.481 1.84638 121.007L6.62594 122.475ZM9.2662 163.945L11.5029 159.473C7.42037 157.431 5.1564 153.233 5.75931 149.078L0.811129 148.36L-4.13705 147.642C-5.41093 156.421 -0.576849 164.613 7.02954 168.417L9.2662 163.945ZM0.959899 199.656L5.90367 198.909C5.27285 194.738 7.53688 190.509 11.6401 188.457L9.40374 183.985L7.16734 179.513C-0.476738 183.336 -5.31732 191.588 -3.98387 200.404L0.959899 199.656ZM21.3409 235.985L21.4159 230.986C16.8539 230.917 12.996 228.12 11.7376 224.121L6.96812 225.621L2.1986 227.122C4.86005 235.581 12.7681 240.857 21.266 240.985L21.3409 235.985ZM29.3411 271.544L33.4639 268.715C31.0724 265.229 31.2719 260.426 34.0843 256.789L30.1291 253.731L26.1739 250.672C20.9344 257.447 20.1631 267.005 25.2183 274.372L29.3411 271.544ZM63.5937 295.492L61.492 290.956C57.356 292.872 52.668 292.029 49.7929 288.975L46.1524 292.402L42.5118 295.83C48.5838 302.279 57.9879 303.6 65.6954 300.029L63.5937 295.492ZM85.9213 323.885L88.42 319.554C84.7674 317.447 82.8739 313.041 83.8276 308.555L78.9369 307.515L74.0462 306.475C72.2695 314.833 75.7012 323.761 83.4225 328.216L85.9213 323.885ZM127.314 330.721L123.452 327.545C120.558 331.065 115.973 332.339 112.064 330.836L110.27 335.503L108.476 340.17C116.743 343.348 125.785 340.453 131.176 333.896L127.314 330.721ZM159.515 346.52L159.885 341.534C155.674 341.221 152.053 338.072 150.965 333.614L146.107 334.799L141.25 335.984C143.277 344.292 150.251 350.847 159.145 351.506L159.515 346.52ZM235.558 335.182L233.74 330.524C229.822 332.053 225.211 330.785 222.305 327.249L218.442 330.425L214.58 333.6C219.995 340.186 229.088 343.074 237.376 339.84L235.558 335.182ZM299.177 292.05L295.527 288.633C292.654 291.702 287.954 292.553 283.809 290.632L281.707 295.169L279.605 299.706C287.33 303.285 296.758 301.949 302.827 295.468L299.177 292.05ZM338.026 225.638L333.256 224.137C331.998 228.136 328.14 230.933 323.578 231.001L323.653 236.001L323.728 241C332.225 240.873 340.133 235.598 342.795 227.139L338.026 225.638ZM344.262 148.869L339.312 149.572C339.901 153.719 337.637 157.903 333.565 159.94L335.802 164.411L338.038 168.883C345.626 165.088 350.457 156.926 349.212 148.166L344.262 148.869ZM282.358 52.529L284.46 57.0657C288.627 55.1352 293.35 56.0055 296.219 59.1063L299.889 55.7111L303.56 52.3159C297.499 45.7643 288.02 44.3952 280.256 47.9923L282.358 52.529ZM335.664 183.519L333.428 187.991C337.521 190.038 339.785 194.252 339.168 198.414L344.114 199.147L349.06 199.88C350.364 191.082 345.526 182.861 337.901 179.047L335.664 183.519ZM199.911 334.722L195.053 333.536C193.971 337.97 190.382 341.112 186.195 341.449L186.597 346.433L186.999 351.417C195.84 350.704 202.751 344.17 204.768 335.907L199.911 334.722ZM260.257 23.7981L257.724 28.1093C261.337 30.2317 263.199 34.6118 262.252 39.0684L267.143 40.1079L272.034 41.1474C273.799 32.8438 270.424 23.9722 262.789 19.487L260.257 23.7981ZM315.342 253.048L311.387 256.106C314.187 259.727 314.397 264.506 312.034 267.988L316.171 270.796L320.309 273.603C325.304 266.243 324.514 256.734 319.297 249.989L315.342 253.048ZM316.564 76.7884L312.415 79.5788C314.756 83.0599 314.536 87.82 311.746 91.4281L315.702 94.4866L319.657 97.5452C324.856 90.8223 325.66 81.3533 320.713 73.998L316.564 76.7884ZM219.064 16.8183L222.926 19.9937C225.844 16.4456 230.476 15.182 234.401 16.733L236.238 12.0829L238.076 7.43283C229.772 4.15152 220.635 7.03418 215.202 13.6429L219.064 16.8183ZM323.965 112.004L323.891 117.003C328.478 117.072 332.351 119.899 333.589 123.928L338.369 122.459L343.148 120.991C340.528 112.465 332.585 107.132 324.04 107.004L323.965 112.004ZM266.953 307.001L262.063 308.04C263.011 312.502 261.143 316.886 257.523 319.006L260.05 323.321L262.577 327.635C270.227 323.155 273.611 314.274 271.844 305.961L266.953 307.001ZM186.325 0.543904L185.932 5.52839C190.123 5.85933 193.721 9.00248 194.804 13.4425L199.662 12.257L204.519 11.0715C202.5 2.79781 195.574 -3.74149 186.719 -4.44059L186.325 0.543904Z" fill="#626262" mask="url(#path-1-inside-1_1_9)"/>
</svg>
