<svg width="174" height="173" viewBox="0 0 174 173" fill="none" xmlns="http://www.w3.org/2000/svg">
<mask id="path-1-inside-1_1_53" fill="white">
<path d="M113.935 55.9005C122.675 63.6265 125.119 75.8295 120.887 86.0718C122.89 87.0793 124.797 88.358 126.556 89.9124C137.584 99.6612 138.592 116.539 128.805 127.61C126.756 129.928 124.394 131.806 121.842 133.24C122.279 140.097 120.088 147.13 115.168 152.695C105.619 163.497 89.3238 164.779 78.2935 155.778L78.2787 155.795L19.17 103.545L19.1855 103.528C8.89966 93.6853 8.17082 77.3565 17.7197 66.5539C22.6391 60.9888 29.3494 57.9505 36.2077 57.5427C37.3175 54.8339 38.8922 52.2602 40.9415 49.9418C50.7281 38.8707 67.6023 37.7984 78.6309 47.5471C80.3893 49.1015 81.8918 50.8382 83.1375 52.7026C92.7831 47.2451 105.194 48.1744 113.935 55.9005Z"/>
</mask>
<path d="M113.935 55.9005C122.675 63.6265 125.119 75.8295 120.887 86.0718C122.89 87.0793 124.797 88.358 126.556 89.9124C137.584 99.6612 138.592 116.539 128.805 127.61C126.756 129.928 124.394 131.806 121.842 133.24C122.279 140.097 120.088 147.13 115.168 152.695C105.619 163.497 89.3238 164.779 78.2935 155.778L78.2787 155.795L19.17 103.545L19.1855 103.528C8.89966 93.6853 8.17082 77.3565 17.7197 66.5539C22.6391 60.9888 29.3494 57.9505 36.2077 57.5427C37.3175 54.8339 38.8922 52.2602 40.9415 49.9418C50.7281 38.8707 67.6023 37.7984 78.6309 47.5471C80.3893 49.1015 81.8918 50.8382 83.1375 52.7026C92.7831 47.2451 105.194 48.1744 113.935 55.9005Z" fill="#188092"/>
<path d="M113.935 55.9005L115.259 54.402L115.259 54.402L113.935 55.9005ZM120.887 86.0718L119.039 85.3079L118.329 87.0241L119.988 87.8585L120.887 86.0718ZM126.556 89.9124L127.881 88.4139L127.881 88.4139L126.556 89.9124ZM128.805 127.61L130.304 128.935L130.304 128.935L128.805 127.61ZM121.842 133.24L120.862 131.497L119.766 132.112L119.846 133.367L121.842 133.24ZM115.168 152.695L116.667 154.019L116.667 154.019L115.168 152.695ZM78.2935 155.778L79.5579 154.229L78.0684 153.013L76.795 154.454L78.2935 155.778ZM78.2787 155.795L76.9541 157.294L78.4525 158.618L79.7771 157.12L78.2787 155.795ZM19.17 103.545L17.6715 102.221L16.3469 103.719L17.8454 105.044L19.17 103.545ZM19.1855 103.528L20.684 104.852L21.9573 103.412L20.5682 102.083L19.1855 103.528ZM17.7197 66.5539L16.2212 65.2293L16.2212 65.2293L17.7197 66.5539ZM36.2077 57.5427L36.3264 59.5392L37.5816 59.4646L38.0584 58.301L36.2077 57.5427ZM40.9415 49.9418L39.443 48.6172L39.443 48.6172L40.9415 49.9418ZM78.6309 47.5471L79.9555 46.0487L79.9554 46.0486L78.6309 47.5471ZM83.1375 52.7026L81.4746 53.8137L82.5062 55.3577L84.1224 54.4433L83.1375 52.7026ZM113.935 55.9005L112.61 57.3989C120.688 64.5398 122.957 75.826 119.039 85.3079L120.887 86.0718L122.735 86.8356C127.282 75.833 124.661 62.7132 115.259 54.402L113.935 55.9005ZM120.887 86.0718L119.988 87.8585C121.839 88.7895 123.603 89.9717 125.231 91.4109L126.556 89.9124L127.881 88.4139C125.992 86.7443 123.941 85.3691 121.786 84.285L120.887 86.0718ZM126.556 89.9124L125.231 91.4109C135.427 100.423 136.366 116.036 127.307 126.285L128.805 127.61L130.304 128.935C140.817 117.041 139.742 98.8991 127.881 88.4139L126.556 89.9124ZM128.805 127.61L127.307 126.285C125.408 128.433 123.223 130.17 120.862 131.497L121.842 133.24L122.822 134.984C125.565 133.442 128.103 131.424 130.304 128.935L128.805 127.61ZM121.842 133.24L119.846 133.367C120.251 139.714 118.224 146.219 113.67 151.37L115.168 152.695L116.667 154.019C121.952 148.04 124.308 140.48 123.838 133.113L121.842 133.24ZM115.168 152.695L113.67 151.37C104.83 161.37 89.7543 162.549 79.5579 154.229L78.2935 155.778L77.0291 157.328C88.8933 167.009 106.408 165.625 116.667 154.019L115.168 152.695ZM78.2935 155.778L76.795 154.454L76.7802 154.471L78.2787 155.795L79.7771 157.12L79.792 157.103L78.2935 155.778ZM78.2787 155.795L79.6032 154.297L20.4946 102.047L19.17 103.545L17.8454 105.044L76.9541 157.294L78.2787 155.795ZM19.17 103.545L20.6684 104.87L20.684 104.852L19.1855 103.528L17.687 102.203L17.6715 102.221L19.17 103.545ZM19.1855 103.528L20.5682 102.083C11.0599 92.9843 10.379 77.8782 19.2182 67.8785L17.7197 66.5539L16.2212 65.2293C5.96266 76.8348 6.7394 94.3863 17.8028 104.973L19.1855 103.528ZM17.7197 66.5539L19.2182 67.8785C23.7718 62.7272 29.9784 59.9166 36.3264 59.5392L36.2077 57.5427L36.089 55.5462C28.7203 55.9844 21.5063 59.2505 16.2212 65.2293L17.7197 66.5539ZM36.2077 57.5427L38.0584 58.301C39.0847 55.7959 40.5413 53.4143 42.44 51.2664L40.9415 49.9418L39.443 48.6172C37.243 51.1061 35.5503 53.8719 34.357 56.7845L36.2077 57.5427ZM40.9415 49.9418L42.44 51.2664C51.4998 41.0174 67.1108 40.0333 77.3063 49.0456L78.6309 47.5471L79.9554 46.0486C68.0938 35.5635 49.9563 36.724 39.443 48.6172L40.9415 49.9418ZM78.6309 47.5471L77.3063 49.0456C78.9338 50.4843 80.3231 52.0904 81.4746 53.8137L83.1375 52.7026L84.8004 51.5915C83.4604 49.586 81.8447 47.7187 79.9555 46.0487L78.6309 47.5471ZM83.1375 52.7026L84.1224 54.4433C93.0519 49.391 104.532 50.258 112.61 57.3989L113.935 55.9005L115.259 54.402C105.857 46.0908 92.5143 45.0993 82.1526 50.9619L83.1375 52.7026Z" fill="#003842" mask="url(#path-1-inside-1_1_53)"/>
<path d="M126.074 43.7768C127.839 45.3367 127.999 48.037 126.433 49.8083C124.98 51.4522 122.551 51.7172 120.799 50.4999L113.69 58.5418L112.941 57.8795L120.049 49.8376C118.626 48.2478 118.59 45.8042 120.044 44.16C121.609 42.3886 124.31 42.217 126.074 43.7768Z" fill="#003842"/>
<path d="M102.337 97.0905C104.286 99.0356 104.911 101.749 104.001 103.826C103.988 104.468 103.944 105.136 103.868 105.823C103.443 109.648 102.083 114.179 100.341 118.474C99.0443 121.671 97.5282 124.755 96.0125 127.34L95.3013 129.003L93.9838 130.493C93.8825 130.635 93.7807 130.773 93.6801 130.909C93.3215 131.942 92.8259 132.899 92.0943 133.726C89.8189 136.3 85.9471 136.622 83.301 134.513L83.0492 134.301L39.916 96.1725L39.6746 95.9487C37.2566 93.5814 37.1009 89.6993 39.3761 87.1253C39.8302 86.6117 40.3451 86.1825 40.9046 85.8149C40.9776 85.7381 41.0511 85.6599 41.1269 85.5826C42.1323 84.5578 43.418 83.4569 44.8893 82.3379C47.8325 80.0993 51.5494 77.7675 55.3341 75.8139C59.115 73.8623 62.9895 72.2746 66.2434 71.5382C67.1296 71.3376 67.9779 71.1995 68.7714 71.1348C70.6872 70.6034 73.0192 71.1556 74.8382 72.7633C78.0978 75.6447 79.1433 80.9483 82.4029 83.8297L93.9554 94.0417C94.8428 94.826 96.1036 94.9712 97.2877 94.9475C98.8775 94.9157 100.59 95.5271 101.996 96.7697L102.238 96.9928C102.259 97.0133 102.28 97.0346 102.301 97.0553L102.312 97.0491L102.337 97.0905ZM43.205 97.6995C43.1878 97.6977 43.1782 97.7214 43.1912 97.7329C43.2021 97.7421 43.2193 97.735 43.2202 97.7207L43.2206 97.7172C43.221 97.7084 43.2138 97.7005 43.205 97.6995ZM66.4632 72.5133C65.6643 72.6941 64.823 72.9292 63.9512 73.2111L66.4892 72.5075C66.4807 72.5094 66.4717 72.5114 66.4632 72.5133Z" fill="white"/>
<rect x="63.3175" y="82.5774" width="8.52877" height="14.9831" rx="1" transform="rotate(41.4755 63.3175 82.5774)" fill="#188092"/>
<rect x="87.2803" y="103.76" width="8.52877" height="14.9831" rx="1" transform="rotate(41.4755 87.2803 103.76)" fill="#188092"/>
<path d="M61.7416 106.896C67.9182 104.737 72.7108 108.974 71.3268 115.369" stroke="#188092" stroke-width="3" stroke-linecap="round"/>
<g filter="url(#filter0_gnn_1_53)">
<ellipse cx="59" cy="70.5" rx="11" ry="9.5" fill="#353535" fill-opacity="0.32"/>
</g>
<g filter="url(#filter1_gn_1_53)">
<ellipse cx="96.1689" cy="129.489" rx="11" ry="9.5" transform="rotate(-53.6922 96.1689 129.489)" fill="#353535" fill-opacity="0.32"/>
</g>
<defs>
<filter id="filter0_gnn_1_53" x="43.1" y="56.1" width="31.8" height="28.8" filterUnits="userSpaceOnUse" color-interpolation-filters="sRGB">
<feFlood flood-opacity="0" result="BackgroundImageFix"/>
<feBlend mode="normal" in="SourceGraphic" in2="BackgroundImageFix" result="shape"/>
<feTurbulence type="fractalNoise" baseFrequency="0.11363635957241058 0.11363635957241058" numOctaves="3" seed="8494" />
<feDisplacementMap in="shape" scale="9.8000001907348633" xChannelSelector="R" yChannelSelector="G" result="displacedImage" width="100%" height="100%" />
<feMerge result="effect1_texture_1_53">
<feMergeNode in="displacedImage"/>
</feMerge>
<feTurbulence type="fractalNoise" baseFrequency="0.14925374090671539 0.14925374090671539" stitchTiles="stitch" numOctaves="3" result="noise" seed="3259" />
<feColorMatrix in="noise" type="luminanceToAlpha" result="alphaNoise" />
<feComponentTransfer in="alphaNoise" result="coloredNoise1">
<feFuncA type="discrete" tableValues="1 1 1 1 1 1 1 1 1 1 1 1 1 1 1 1 1 1 1 1 1 1 1 1 1 1 1 1 1 1 1 1 1 1 1 1 1 1 1 1 1 1 1 1 1 1 1 1 1 1 1 0 0 0 0 0 0 0 0 0 0 0 0 0 0 0 0 0 0 0 0 0 0 0 0 0 0 0 0 0 0 0 0 0 0 0 0 0 0 0 0 0 0 0 0 0 0 0 0 0 "/>
</feComponentTransfer>
<feComposite operator="in" in2="effect1_texture_1_53" in="coloredNoise1" result="noise1Clipped" />
<feFlood flood-color="rgba(0, 0, 0, 0.25)" result="color1Flood" />
<feComposite operator="in" in2="noise1Clipped" in="color1Flood" result="color1" />
<feMerge result="effect2_noise_1_53">
<feMergeNode in="effect1_texture_1_53" />
<feMergeNode in="color1" />
</feMerge>
<feTurbulence type="fractalNoise" baseFrequency="0.14925374090671539 0.14925374090671539" stitchTiles="stitch" numOctaves="3" result="noise" seed="3259" />
<feColorMatrix in="noise" type="luminanceToAlpha" result="alphaNoise" />
<feComponentTransfer in="alphaNoise" result="coloredNoise1">
<feFuncA type="discrete" tableValues="1 1 1 1 1 1 1 1 1 1 1 1 1 1 1 1 1 1 1 1 1 1 1 1 1 1 1 1 1 1 1 1 1 1 1 1 1 1 1 1 1 1 1 1 1 1 1 1 1 1 1 0 0 0 0 0 0 0 0 0 0 0 0 0 0 0 0 0 0 0 0 0 0 0 0 0 0 0 0 0 0 0 0 0 0 0 0 0 0 0 0 0 0 0 0 0 0 0 0 0 "/>
</feComponentTransfer>
<feComposite operator="in" in2="effect2_noise_1_53" in="coloredNoise1" result="noise1Clipped" />
<feFlood flood-color="rgba(0, 0, 0, 0.25)" result="color1Flood" />
<feComposite operator="in" in2="noise1Clipped" in="color1Flood" result="color1" />
<feMerge result="effect3_noise_1_53">
<feMergeNode in="effect2_noise_1_53" />
<feMergeNode in="color1" />
</feMerge>
</filter>
<filter id="filter1_gn_1_53" x="78.8172" y="111.69" width="34.7033" height="35.5997" filterUnits="userSpaceOnUse" color-interpolation-filters="sRGB">
<feFlood flood-opacity="0" result="BackgroundImageFix"/>
<feBlend mode="normal" in="SourceGraphic" in2="BackgroundImageFix" result="shape"/>
<feTurbulence type="fractalNoise" baseFrequency="0.12658227980136871 0.12658227980136871" numOctaves="3" seed="8494" />
<feDisplacementMap in="shape" scale="14.600000381469727" xChannelSelector="R" yChannelSelector="G" result="displacedImage" width="100%" height="100%" />
<feMerge result="effect1_texture_1_53">
<feMergeNode in="displacedImage"/>
</feMerge>
<feTurbulence type="fractalNoise" baseFrequency="0.21739131212234497 0.21739131212234497" stitchTiles="stitch" numOctaves="3" result="noise" seed="3259" />
<feColorMatrix in="noise" type="luminanceToAlpha" result="alphaNoise" />
<feComponentTransfer in="alphaNoise" result="coloredNoise1">
<feFuncA type="discrete" tableValues="1 1 1 1 1 1 1 1 1 1 1 1 1 1 1 1 1 1 1 1 1 1 1 1 1 1 1 1 1 1 1 1 1 1 1 1 1 1 1 1 1 1 1 1 1 1 1 1 1 1 1 0 0 0 0 0 0 0 0 0 0 0 0 0 0 0 0 0 0 0 0 0 0 0 0 0 0 0 0 0 0 0 0 0 0 0 0 0 0 0 0 0 0 0 0 0 0 0 0 0 "/>
</feComponentTransfer>
<feComposite operator="in" in2="effect1_texture_1_53" in="coloredNoise1" result="noise1Clipped" />
<feFlood flood-color="rgba(0, 0, 0, 0.25)" result="color1Flood" />
<feComposite operator="in" in2="noise1Clipped" in="color1Flood" result="color1" />
<feMerge result="effect2_noise_1_53">
<feMergeNode in="effect1_texture_1_53" />
<feMergeNode in="color1" />
</feMerge>
</filter>
</defs>
</svg>
