<svg width="80" height="15" viewBox="0 0 80 15" fill="none" xmlns="http://www.w3.org/2000/svg">
<path d="M8.95898 9.52734C8.95898 9.82812 8.91992 10.0996 8.8418 10.3418C8.76758 10.5801 8.66797 10.791 8.54297 10.9746C8.41797 11.1582 8.27148 11.3145 8.10352 11.4434C7.93555 11.5723 7.76172 11.6777 7.58203 11.7598C7.40234 11.8418 7.21875 11.9023 7.03125 11.9414C6.84766 11.9805 6.67383 12 6.50977 12H0.632812V10.4766H6.50977C6.80273 10.4766 7.0293 10.3906 7.18945 10.2188C7.35352 10.0469 7.43555 9.81641 7.43555 9.52734C7.43555 9.38672 7.41406 9.25781 7.37109 9.14062C7.32812 9.02344 7.26562 8.92188 7.18359 8.83594C7.10547 8.75 7.00781 8.68359 6.89062 8.63672C6.77734 8.58984 6.65039 8.56641 6.50977 8.56641H3.00586C2.75977 8.56641 2.49414 8.52344 2.20898 8.4375C1.92383 8.34766 1.6582 8.20508 1.41211 8.00977C1.16992 7.81445 0.966797 7.55859 0.802734 7.24219C0.642578 6.92578 0.5625 6.53906 0.5625 6.08203C0.5625 5.625 0.642578 5.24023 0.802734 4.92773C0.966797 4.61133 1.16992 4.35547 1.41211 4.16016C1.6582 3.96094 1.92383 3.81836 2.20898 3.73242C2.49414 3.64258 2.75977 3.59766 3.00586 3.59766H8.19141V5.12109H3.00586C2.7168 5.12109 2.49023 5.20898 2.32617 5.38477C2.16602 5.56055 2.08594 5.79297 2.08594 6.08203C2.08594 6.375 2.16602 6.60742 2.32617 6.7793C2.49023 6.94727 2.7168 7.03125 3.00586 7.03125H6.50977H6.52148C6.68555 7.03516 6.85938 7.05859 7.04297 7.10156C7.22656 7.14062 7.4082 7.20312 7.58789 7.28906C7.77148 7.375 7.94531 7.48438 8.10938 7.61719C8.27344 7.74609 8.41797 7.90234 8.54297 8.08594C8.67188 8.26953 8.77344 8.48047 8.84766 8.71875C8.92188 8.95703 8.95898 9.22656 8.95898 9.52734ZM18.457 11.2324C18.457 11.3418 18.4375 11.4434 18.3984 11.5371C18.3594 11.6309 18.3047 11.7129 18.2344 11.7832C18.1641 11.8496 18.082 11.9023 17.9883 11.9414C17.8945 11.9805 17.7949 12 17.6895 12H14.2559C13.9316 12 13.6035 11.9648 13.2715 11.8945C12.9395 11.8242 12.6172 11.7168 12.3047 11.5723C11.9961 11.4238 11.7051 11.2363 11.4316 11.0098C11.1582 10.7832 10.918 10.5156 10.7109 10.207C10.5078 9.89453 10.3477 9.53906 10.2305 9.14062C10.1133 8.73828 10.0547 8.29102 10.0547 7.79883V3.59766H11.5781V7.79883C11.5781 8.22852 11.6367 8.5918 11.7539 8.88867C11.875 9.18555 12.0273 9.43359 12.2109 9.63281C12.3945 9.83203 12.5957 9.98828 12.8145 10.1016C13.0332 10.2148 13.2402 10.2988 13.4355 10.3535C13.6348 10.4082 13.8086 10.4434 13.957 10.459C14.1094 10.4707 14.209 10.4766 14.2559 10.4766H16.9336V3.59766H18.457V11.2324ZM30.0117 12H28.4766V6.99609L25.7754 11.748C25.709 11.8691 25.6152 11.9609 25.4941 12.0234C25.377 12.0859 25.25 12.1172 25.1133 12.1172C24.9805 12.1172 24.8555 12.0859 24.7383 12.0234C24.625 11.9609 24.5352 11.8691 24.4688 11.748L21.7559 6.99609V12H20.2324V4.24805C20.2324 4.07227 20.2832 3.91602 20.3848 3.7793C20.4902 3.64258 20.627 3.55078 20.7949 3.50391C20.877 3.48438 20.959 3.47852 21.041 3.48633C21.123 3.49023 21.2012 3.50781 21.2754 3.53906C21.3535 3.56641 21.4238 3.60742 21.4863 3.66211C21.5488 3.71289 21.6016 3.77539 21.6445 3.84961L25.1133 9.87891L28.582 3.84961C28.6719 3.70117 28.7949 3.5957 28.9512 3.5332C29.1113 3.4707 29.2773 3.46094 29.4492 3.50391C29.6133 3.55078 29.748 3.64258 29.8535 3.7793C29.959 3.91602 30.0117 4.07227 30.0117 4.24805V12ZM40.6055 8.60156C40.6055 9.11328 40.5176 9.58398 40.3418 10.0137C40.166 10.4434 39.9219 10.8145 39.6094 11.127C39.2969 11.4395 38.9258 11.6836 38.4961 11.8594C38.0703 12.0312 37.6055 12.1172 37.1016 12.1172H35.0391C34.5352 12.1172 34.0684 12.0312 33.6387 11.8594C33.209 11.6836 32.8379 11.4395 32.5254 11.127C32.2129 10.8145 31.9668 10.4434 31.7871 10.0137C31.6113 9.58398 31.5234 9.11328 31.5234 8.60156V6.99609C31.5234 6.48828 31.6113 6.01953 31.7871 5.58984C31.9668 5.15625 32.2129 4.78516 32.5254 4.47656C32.8379 4.16406 33.209 3.91992 33.6387 3.74414C34.0684 3.56836 34.5352 3.48047 35.0391 3.48047H37.1016C37.6055 3.48047 38.0703 3.56836 38.4961 3.74414C38.9258 3.91992 39.2969 4.16406 39.6094 4.47656C39.9219 4.78516 40.166 5.15625 40.3418 5.58984C40.5176 6.01953 40.6055 6.48828 40.6055 6.99609V8.60156ZM39.082 6.99609C39.082 6.69531 39.0332 6.42383 38.9355 6.18164C38.8418 5.93555 38.707 5.72656 38.5312 5.55469C38.3594 5.37891 38.1504 5.24414 37.9043 5.15039C37.6621 5.05273 37.3945 5.00391 37.1016 5.00391H35.0391C34.7422 5.00391 34.4707 5.05273 34.2246 5.15039C33.9824 5.24414 33.7734 5.37891 33.5977 5.55469C33.4219 5.72656 33.2852 5.93555 33.1875 6.18164C33.0938 6.42383 33.0469 6.69531 33.0469 6.99609V8.60156C33.0469 8.90234 33.0938 9.17578 33.1875 9.42188C33.2852 9.66406 33.4219 9.87305 33.5977 10.0488C33.7734 10.2207 33.9824 10.3555 34.2246 10.4531C34.4707 10.5469 34.7422 10.5938 35.0391 10.5938H37.0898C37.3867 10.5938 37.6562 10.5469 37.8984 10.4531C38.1445 10.3555 38.3555 10.2207 38.5312 10.0488C38.707 9.87305 38.8418 9.66406 38.9355 9.42188C39.0332 9.17578 39.082 8.90234 39.082 8.60156V6.99609ZM50.4961 10.1543C50.4961 10.3418 50.4629 10.543 50.3965 10.7578C50.334 10.9727 50.2285 11.1719 50.0801 11.3555C49.9355 11.5391 49.7461 11.6934 49.5117 11.8184C49.2773 11.9395 48.9902 12 48.6504 12H42.8672C42.7578 12 42.6562 11.9805 42.5625 11.9414C42.4688 11.9023 42.3867 11.8496 42.3164 11.7832C42.25 11.7129 42.1973 11.6309 42.1582 11.5371C42.1191 11.4434 42.0996 11.3418 42.0996 11.2324V4.36523C42.0996 4.25977 42.1191 4.16016 42.1582 4.06641C42.1973 3.97266 42.25 3.89062 42.3164 3.82031C42.3867 3.75 42.4688 3.69531 42.5625 3.65625C42.6562 3.61719 42.7578 3.59766 42.8672 3.59766H47.9648C48.1523 3.59766 48.3535 3.63086 48.5684 3.69727C48.7832 3.76367 48.9824 3.87109 49.166 4.01953C49.3535 4.16406 49.5078 4.35352 49.6289 4.58789C49.7539 4.82227 49.8164 5.10938 49.8164 5.44922V5.73633C49.8164 6.00586 49.7715 6.29688 49.6816 6.60938C49.5918 6.91797 49.4473 7.21094 49.248 7.48828C49.4199 7.59375 49.5801 7.7207 49.7285 7.86914C49.8809 8.01758 50.0137 8.18945 50.127 8.38477C50.2402 8.58008 50.3301 8.80078 50.3965 9.04688C50.4629 9.29297 50.4961 9.56445 50.4961 9.86133V10.1543ZM48.9727 9.86133C48.9727 9.66211 48.9414 9.48438 48.8789 9.32812C48.8164 9.16797 48.7285 9.03125 48.6152 8.91797C48.502 8.80469 48.3652 8.71875 48.2051 8.66016C48.0449 8.59766 47.8652 8.56641 47.666 8.56641H44.2324V7.03125H46.9805C47.1797 7.03125 47.3594 7.00195 47.5195 6.94336C47.6797 6.88086 47.8164 6.79297 47.9297 6.67969C48.043 6.56641 48.1289 6.43164 48.1875 6.27539C48.25 6.11523 48.2812 5.93555 48.2812 5.73633V5.44922C48.2812 5.23047 48.1758 5.12109 47.9648 5.12109H43.623V10.4766H48.6504C48.6777 10.4766 48.7109 10.4746 48.75 10.4707C48.7891 10.4668 48.8242 10.4551 48.8555 10.4355C48.8867 10.416 48.9141 10.3828 48.9375 10.3359C48.9609 10.2891 48.9727 10.2246 48.9727 10.1426V9.86133ZM60.6445 8.60156C60.6445 9.11328 60.5566 9.58398 60.3809 10.0137C60.2051 10.4434 59.9609 10.8145 59.6484 11.127C59.3359 11.4395 58.9648 11.6836 58.5352 11.8594C58.1094 12.0312 57.6445 12.1172 57.1406 12.1172H55.0781C54.5742 12.1172 54.1074 12.0312 53.6777 11.8594C53.248 11.6836 52.877 11.4395 52.5645 11.127C52.252 10.8145 52.0059 10.4434 51.8262 10.0137C51.6504 9.58398 51.5625 9.11328 51.5625 8.60156V6.99609C51.5625 6.48828 51.6504 6.01953 51.8262 5.58984C52.0059 5.15625 52.252 4.78516 52.5645 4.47656C52.877 4.16406 53.248 3.91992 53.6777 3.74414C54.1074 3.56836 54.5742 3.48047 55.0781 3.48047H57.1406C57.6445 3.48047 58.1094 3.56836 58.5352 3.74414C58.9648 3.91992 59.3359 4.16406 59.6484 4.47656C59.9609 4.78516 60.2051 5.15625 60.3809 5.58984C60.5566 6.01953 60.6445 6.48828 60.6445 6.99609V8.60156ZM59.1211 6.99609C59.1211 6.69531 59.0723 6.42383 58.9746 6.18164C58.8809 5.93555 58.7461 5.72656 58.5703 5.55469C58.3984 5.37891 58.1895 5.24414 57.9434 5.15039C57.7012 5.05273 57.4336 5.00391 57.1406 5.00391H55.0781C54.7812 5.00391 54.5098 5.05273 54.2637 5.15039C54.0215 5.24414 53.8125 5.37891 53.6367 5.55469C53.4609 5.72656 53.3242 5.93555 53.2266 6.18164C53.1328 6.42383 53.0859 6.69531 53.0859 6.99609V8.60156C53.0859 8.90234 53.1328 9.17578 53.2266 9.42188C53.3242 9.66406 53.4609 9.87305 53.6367 10.0488C53.8125 10.2207 54.0215 10.3555 54.2637 10.4531C54.5098 10.5469 54.7812 10.5938 55.0781 10.5938H57.1289C57.4258 10.5938 57.6953 10.5469 57.9375 10.4531C58.1836 10.3555 58.3945 10.2207 58.5703 10.0488C58.7461 9.87305 58.8809 9.66406 58.9746 9.42188C59.0723 9.17578 59.1211 8.90234 59.1211 8.60156V6.99609ZM69.627 5.12109H66.2695V12H64.7461V5.12109H61.3828V3.59766H69.627V5.12109ZM78.8262 9.52734C78.8262 9.82812 78.7871 10.0996 78.709 10.3418C78.6348 10.5801 78.5352 10.791 78.4102 10.9746C78.2852 11.1582 78.1387 11.3145 77.9707 11.4434C77.8027 11.5723 77.6289 11.6777 77.4492 11.7598C77.2695 11.8418 77.0859 11.9023 76.8984 11.9414C76.7148 11.9805 76.541 12 76.377 12H70.5V10.4766H76.377C76.6699 10.4766 76.8965 10.3906 77.0566 10.2188C77.2207 10.0469 77.3027 9.81641 77.3027 9.52734C77.3027 9.38672 77.2812 9.25781 77.2383 9.14062C77.1953 9.02344 77.1328 8.92188 77.0508 8.83594C76.9727 8.75 76.875 8.68359 76.7578 8.63672C76.6445 8.58984 76.5176 8.56641 76.377 8.56641H72.873C72.627 8.56641 72.3613 8.52344 72.0762 8.4375C71.791 8.34766 71.5254 8.20508 71.2793 8.00977C71.0371 7.81445 70.834 7.55859 70.6699 7.24219C70.5098 6.92578 70.4297 6.53906 70.4297 6.08203C70.4297 5.625 70.5098 5.24023 70.6699 4.92773C70.834 4.61133 71.0371 4.35547 71.2793 4.16016C71.5254 3.96094 71.791 3.81836 72.0762 3.73242C72.3613 3.64258 72.627 3.59766 72.873 3.59766H78.0586V5.12109H72.873C72.584 5.12109 72.3574 5.20898 72.1934 5.38477C72.0332 5.56055 71.9531 5.79297 71.9531 6.08203C71.9531 6.375 72.0332 6.60742 72.1934 6.7793C72.3574 6.94727 72.584 7.03125 72.873 7.03125H76.377H76.3887C76.5527 7.03516 76.7266 7.05859 76.9102 7.10156C77.0938 7.14062 77.2754 7.20312 77.4551 7.28906C77.6387 7.375 77.8125 7.48438 77.9766 7.61719C78.1406 7.74609 78.2852 7.90234 78.4102 8.08594C78.5391 8.26953 78.6406 8.48047 78.7148 8.71875C78.7891 8.95703 78.8262 9.22656 78.8262 9.52734Z" fill="white"/>
</svg>
