<svg width="116" height="150" viewBox="0 0 116 150" fill="none" xmlns="http://www.w3.org/2000/svg">
<g clip-path="url(#clip0_3394_691)">
<mask id="mask0_3394_691" style="mask-type:luminance" maskUnits="userSpaceOnUse" x="0" y="0" width="116" height="150">
<path d="M115.899 0H0V150H115.899V0Z" fill="white"/>
</mask>
<g mask="url(#mask0_3394_691)">
<path d="M58.0633 0L13.4896 26.3352V77.1971C35.8355 52.3973 58.0633 54.7464 58.0633 54.7464C85.9893 54.7464 102.935 77.1971 102.935 77.1971V25.9126L58.0633 0ZM57.9711 8.72687L21.7109 29.7662C21.9776 31.4507 20.7467 31.7238 20.7467 31.7238C17.9617 29.663 20.8697 28.3803 20.8697 28.3803L56.5761 7.44925C59.2481 5.90377 57.9865 8.7114 57.9865 8.7114" fill="#E50000"/>
<path d="M58.0095 63.143C58.0095 63.143 39.6793 61.0824 20.3645 82.101L57.8608 103.712L95.08 82.101C95.1107 82.101 79.5449 63.143 58.0095 63.143ZM51.5011 69.6135C46.9724 70.7881 38.0024 73.1321 30.5349 80.4319C30.5349 80.4319 27.7449 81.488 29.2732 78.7473C29.2732 78.7473 42.2592 67.3107 53.2399 68.5162C53.2399 68.5162 54.1116 68.9334 51.5011 69.6289" fill="#E50000"/>
<path d="M0 132.094V119.06H9.39071V120.596H1.70787V124.598H8.90861V126.134H1.70787V130.59H9.68817V132.125H0V132.094Z" fill="black"/>
<path d="M13.4688 132.094V119.06H15.2381L22.0748 129.297V119.06H23.7263V132.094H21.9568L15.1203 121.832V132.094H13.4688Z" fill="black"/>
<path d="M34.1081 126.966V125.421H39.6267V130.263C38.8348 130.901 37.9556 131.422 37.016 131.809C36.134 132.143 35.1997 132.318 34.2568 132.324C33.0476 132.34 31.8524 132.061 30.7744 131.51C29.7577 130.983 28.9295 130.151 28.4049 129.13C27.8583 128.05 27.5819 126.853 27.5997 125.642C27.5927 124.414 27.8591 123.199 28.3793 122.088C28.8477 121.044 29.6489 120.186 30.6565 119.651C31.7099 119.093 32.8868 118.813 34.0773 118.837C34.9529 118.824 35.8231 118.978 36.6416 119.29C37.3367 119.554 37.9553 119.988 38.4419 120.552C38.9053 121.195 39.2413 121.92 39.4316 122.69L37.8931 123.113C37.7283 122.565 37.4847 122.044 37.17 121.567C36.8613 121.149 36.4341 120.835 35.9443 120.666C35.374 120.43 34.7605 120.317 34.144 120.336C33.4431 120.318 32.7456 120.44 32.0925 120.697C31.5664 120.895 31.0937 121.214 30.7128 121.629C30.3613 122.003 30.0861 122.442 29.9025 122.922C29.564 123.753 29.3897 124.642 29.3897 125.539C29.3601 126.546 29.5656 127.547 29.9897 128.46C30.3668 129.215 30.9765 129.828 31.7283 130.206C32.4784 130.593 33.3112 130.789 34.1541 130.778C34.9037 130.774 35.6461 130.63 36.3441 130.356C36.9329 130.139 37.4809 129.824 37.9649 129.423V126.966H34.1081Z" fill="black"/>
<path d="M45.5568 119.06H43.8489V132.094H45.5568V119.06Z" fill="black"/>
<path d="M50 132.094V119.06H51.7695L58.6112 129.297V119.06H60.2625V132.094H58.488L51.6515 121.832V132.094H50Z" fill="black"/>
<path d="M64.5833 132.094V119.06H73.9689V120.596H66.2912V124.598H73.492V126.134H66.2912V130.59H74.2715V132.125H64.5833V132.094Z" fill="black"/>
<path d="M78.1355 132.094V119.06H87.5261V120.596H79.8484V124.598H87.044V126.134H79.8484V130.59H87.8236V132.125H78.1355V132.094Z" fill="black"/>
<path d="M91.6355 132.119V119.086H97.3949C98.2881 119.047 99.1809 119.169 100.031 119.446C100.631 119.693 101.136 120.126 101.472 120.683C101.831 121.272 102.017 121.95 102.011 122.64C102.023 123.071 101.95 123.5 101.796 123.903C101.642 124.305 101.41 124.673 101.113 124.984C100.361 125.696 99.3855 126.123 98.3541 126.19C98.7392 126.351 99.0947 126.575 99.4056 126.854C99.9597 127.368 100.443 127.953 100.841 128.596L103.093 132.15H100.934L99.2208 129.441C98.708 128.657 98.2925 128.055 97.9951 127.632C97.7424 127.306 97.4493 127.014 97.1232 126.762C96.8823 126.604 96.6196 126.482 96.3436 126.401C96.0259 126.357 95.7053 126.336 95.3845 126.339H93.3741V132.119H91.6355ZM93.3741 124.835H97.0411C97.6605 124.856 98.2792 124.774 98.8721 124.593C99.2931 124.46 99.6555 124.185 99.8979 123.815C100.132 123.468 100.257 123.059 100.257 122.64C100.267 122.35 100.214 122.061 100.101 121.794C99.9871 121.527 99.8163 121.288 99.6004 121.095C98.984 120.644 98.2269 120.43 97.4668 120.492H93.3639L93.3741 124.835Z" fill="black"/>
<path d="M105.552 127.909L107.168 127.76C107.229 128.325 107.414 128.868 107.711 129.352C108.041 129.817 108.499 130.175 109.029 130.382C109.663 130.657 110.349 130.79 111.04 130.774C111.633 130.787 112.223 130.686 112.778 130.475C113.222 130.324 113.609 130.04 113.886 129.661C114.123 129.338 114.25 128.949 114.25 128.548C114.254 128.155 114.126 127.772 113.886 127.461C113.572 127.102 113.168 126.832 112.717 126.678C111.963 126.414 111.192 126.204 110.409 126.05C109.545 125.86 108.702 125.587 107.891 125.236C107.329 124.969 106.852 124.552 106.511 124.03C106.207 123.545 106.051 122.981 106.06 122.407C106.054 121.75 106.253 121.107 106.629 120.568C107.027 119.983 107.592 119.532 108.25 119.275C109.012 118.966 109.828 118.814 110.65 118.827C111.529 118.804 112.403 118.967 113.214 119.306C113.909 119.587 114.503 120.069 114.922 120.692C115.316 121.308 115.534 122.021 115.553 122.753L113.902 122.871C113.882 122.516 113.792 122.169 113.638 121.849C113.484 121.529 113.269 121.242 113.004 121.006C112.339 120.537 111.532 120.315 110.722 120.378C109.92 120.307 109.118 120.508 108.445 120.95C108.225 121.107 108.045 121.313 107.921 121.553C107.796 121.793 107.729 122.059 107.727 122.33C107.722 122.547 107.766 122.762 107.854 122.96C107.943 123.158 108.075 123.334 108.24 123.474C108.568 123.778 109.44 124.077 110.804 124.406C111.785 124.604 112.748 124.887 113.681 125.251C114.351 125.532 114.932 125.989 115.363 126.575C115.728 127.127 115.916 127.778 115.902 128.44C115.897 129.138 115.688 129.818 115.302 130.398C114.878 131.029 114.286 131.529 113.594 131.84C112.8 132.188 111.942 132.363 111.076 132.355C110.062 132.379 109.053 132.204 108.106 131.84C107.345 131.524 106.697 130.986 106.244 130.295C105.814 129.586 105.577 128.776 105.557 127.945" fill="black"/>
<path d="M14.3333 149.819L18.1748 139.824H19.5955L23.6728 149.819H22.1597L20.9904 146.779H16.8208L15.7387 149.819H14.3333ZM17.2157 145.724H20.6212L19.5955 142.957C19.2672 142.112 19.0569 141.411 18.8775 140.896C18.7511 141.542 18.5691 142.177 18.3337 142.792L17.2157 145.724Z" fill="black"/>
<path d="M32.5165 139.846H33.8347V145.626C33.8573 146.44 33.7465 147.253 33.5065 148.031C33.2715 148.641 32.8373 149.151 32.2756 149.479C31.5564 149.859 30.7484 150.037 29.9368 149.995C29.1477 150.033 28.362 149.869 27.6545 149.515C27.0749 149.217 26.6269 148.712 26.398 148.098C26.1152 147.297 25.9831 146.45 26.0083 145.6V139.846H27.3264V145.626C27.3 146.277 27.3815 146.928 27.5673 147.552C27.7244 147.963 28.0204 148.303 28.4033 148.516C28.8489 148.744 29.3443 148.858 29.8445 148.846C30.8036 148.846 31.496 148.634 31.896 148.187C32.296 147.738 32.5217 146.887 32.5217 145.657V139.846H32.5165Z" fill="black"/>
<path d="M36.8645 146.6L38.0904 146.476C38.1333 146.916 38.2772 147.339 38.5109 147.712C38.7599 148.063 39.1035 148.335 39.5008 148.496C39.9855 148.708 40.5109 148.811 41.0395 148.795C41.4884 148.812 41.9363 148.741 42.3575 148.583C42.7009 148.46 43.0031 148.243 43.2295 147.955C43.4023 147.707 43.4953 147.412 43.4961 147.11C43.504 146.817 43.4097 146.529 43.2295 146.296C42.9825 146.025 42.6724 145.819 42.3268 145.698C42.0549 145.606 41.4549 145.425 40.5573 145.215C39.8935 145.087 39.2485 144.875 38.6391 144.581C38.2152 144.375 37.8591 144.051 37.6133 143.648C37.3737 143.283 37.2487 142.854 37.2544 142.417C37.2584 141.915 37.4043 141.423 37.6749 141C37.9728 140.538 38.4147 140.188 38.9315 140.006C39.5179 139.789 40.1376 139.678 40.7625 139.677C41.4296 139.665 42.0924 139.787 42.7115 140.037C43.232 140.249 43.6781 140.61 43.9932 141.078C44.3083 141.545 44.478 142.096 44.4808 142.659L43.2243 142.746C43.2105 142.472 43.1423 142.203 43.0233 141.955C42.9044 141.707 42.7372 141.486 42.5319 141.304C42.0287 140.94 41.4119 140.767 40.7933 140.821C40.1789 140.764 39.5645 140.925 39.0545 141.273C38.8908 141.391 38.7565 141.545 38.6621 141.725C38.5679 141.903 38.516 142.101 38.5109 142.303C38.5028 142.471 38.534 142.637 38.6016 142.788C38.6693 142.941 38.7719 143.075 38.9007 143.179C39.5039 143.555 40.178 143.8 40.8804 143.901C41.6368 144.05 42.3796 144.262 43.1012 144.534C43.6195 144.75 44.0672 145.106 44.3936 145.564C44.6687 145.985 44.8148 146.478 44.8141 146.981C44.8109 147.516 44.6543 148.038 44.3628 148.485C44.0453 148.974 43.5848 149.352 43.0447 149.567C42.4412 149.842 41.7837 149.976 41.1215 149.958C40.3437 149.985 39.5689 149.853 38.8443 149.567C38.2583 149.316 37.7576 148.899 37.4031 148.367C37.0555 147.841 36.8765 147.221 36.8903 146.59" fill="black"/>
<path d="M50.392 149.819V140.999H47.1251V139.824H55.0129V140.999H51.7152V149.819H50.392Z" fill="black"/>
<path d="M57.6197 149.819V139.846H62.0563C62.7507 139.816 63.4449 139.908 64.1077 140.119C64.5736 140.306 64.9635 140.646 65.2155 141.082C65.4903 141.536 65.6357 142.055 65.6361 142.587C65.6444 143.255 65.3985 143.902 64.9488 144.395C64.3576 144.931 63.6085 145.258 62.8152 145.327C63.1031 145.454 63.3683 145.629 63.6 145.843C64.0125 146.237 64.3743 146.681 64.6769 147.166L66.4156 149.875H64.7693L63.4461 147.816C63.1509 147.336 62.8308 146.874 62.4869 146.429C62.3063 146.174 62.0845 145.949 61.8305 145.765C61.6447 145.647 61.4424 145.556 61.2304 145.497C60.992 145.453 60.7499 145.432 60.5073 145.436H58.9687V149.861L57.6197 149.819ZM58.9379 144.25H61.7587C62.2355 144.267 62.7117 144.206 63.1691 144.07C63.4876 143.96 63.7615 143.748 63.9487 143.467C64.1265 143.2 64.2196 142.887 64.2155 142.566C64.2187 142.345 64.1745 142.125 64.086 141.923C63.9976 141.721 63.8668 141.538 63.7025 141.391C63.2341 141.05 62.6583 140.89 62.0819 140.942H58.9328L58.9379 144.25Z" fill="black"/>
<path d="M67.8489 149.819L71.6904 139.824H73.1008L77.1781 149.819H75.6755L74.506 146.779H70.3363L69.2593 149.819H67.8489ZM70.7004 145.724H74.0905L73.0392 142.937C72.7059 142.092 72.5264 141.391 72.316 140.875C72.1939 141.522 72.0136 142.157 71.7775 142.772L70.7004 145.724Z" fill="black"/>
<path d="M79.4271 149.819V139.824H80.7452V148.645H85.6636V149.819H79.4271Z" fill="black"/>
<path d="M90.016 139.824H88.6979V149.819H90.016V139.824Z" fill="black"/>
<path d="M92.5312 149.819L96.3727 139.824H97.7831L101.886 149.819H100.389L99.2192 146.779H95.0496L93.9673 149.819H92.5312ZM95.4136 145.724H98.8037L97.7523 142.957C97.424 142.112 97.2395 141.411 97.0343 140.896C96.9079 141.542 96.726 142.177 96.4907 142.792L95.4136 145.724Z" fill="black"/>
</g>
</g>
<defs>
<clipPath id="clip0_3394_691">
<rect width="116" height="150" fill="white"/>
</clipPath>
</defs>
</svg>
