<svg width="200" height="200" viewBox="0 0 200 200" fill="none" xmlns="http://www.w3.org/2000/svg">
<g clip-path="url(#clip0_3392_480)">
<rect width="200" height="200" fill="#FDDD00"/>
<path d="M21.7534 61.7788H25.0005V71.0928C25.0005 72.1914 24.7482 73.1232 24.2437 73.8882C23.7472 74.645 23.0555 75.2188 22.1685 75.6094C21.2896 76 20.2723 76.1953 19.1167 76.1953C17.9611 76.1953 16.9398 76 16.0527 75.6094C15.1657 75.2188 14.4699 74.645 13.9653 73.8882C13.4689 73.1232 13.2207 72.1914 13.2207 71.0928V61.7788H16.4434V71.0928C16.4434 71.6868 16.5492 72.1751 16.7607 72.5576C16.9805 72.9401 17.2897 73.2209 17.6885 73.3999C18.0872 73.5789 18.5633 73.6685 19.1167 73.6685C19.6782 73.6685 20.1543 73.5789 20.5449 73.3999C20.9355 73.2209 21.2326 72.9401 21.436 72.5576C21.6476 72.1751 21.7534 71.6868 21.7534 71.0928V61.7788ZM40.5518 61.7788V76H37.3169L31.2988 66.564V76H28.064V61.7788H31.2988L37.3169 71.2148V61.7788H40.5518ZM51.6963 72.2402C51.6963 71.988 51.6475 71.7601 51.5498 71.5566C51.4603 71.3532 51.3097 71.1701 51.0981 71.0073C50.8866 70.8446 50.5936 70.6899 50.2192 70.5435C49.853 70.397 49.3932 70.2586 48.8398 70.1284C47.9691 69.9168 47.2082 69.6849 46.5571 69.4326C45.9061 69.1803 45.3608 68.8833 44.9214 68.5415C44.4901 68.1997 44.1646 67.7969 43.9448 67.333C43.7332 66.861 43.6274 66.3117 43.6274 65.6851C43.6274 65.0828 43.7576 64.5335 44.0181 64.0371C44.2866 63.5326 44.661 63.0972 45.1411 62.731C45.6294 62.3647 46.2031 62.084 46.8623 61.8887C47.5296 61.6852 48.258 61.5835 49.0474 61.5835C50.1948 61.5835 51.1999 61.7666 52.0625 62.1328C52.9333 62.499 53.6087 63.0117 54.0889 63.6709C54.569 64.3219 54.8091 65.0951 54.8091 65.9902H51.5742C51.5742 65.6159 51.4766 65.2782 51.2812 64.9771C51.0941 64.6678 50.8133 64.4196 50.439 64.2324C50.0646 64.0452 49.6007 63.9517 49.0474 63.9517C48.5184 63.9517 48.0789 64.033 47.729 64.1958C47.3872 64.3504 47.1309 64.5539 46.96 64.8062C46.7972 65.0503 46.7158 65.3107 46.7158 65.5874C46.7158 65.8153 46.7646 66.0228 46.8623 66.21C46.9681 66.389 47.1309 66.5558 47.3506 66.7104C47.5785 66.8569 47.8755 66.9993 48.2417 67.1377C48.6079 67.2679 49.0514 67.4022 49.5723 67.5405C50.4349 67.7358 51.1917 67.9678 51.8428 68.2363C52.502 68.4967 53.0472 68.8101 53.4785 69.1763C53.918 69.5425 54.2476 69.9697 54.4673 70.458C54.687 70.9463 54.7969 71.5119 54.7969 72.1548C54.7969 72.7896 54.6667 73.3592 54.4062 73.8638C54.1458 74.3602 53.7674 74.7834 53.271 75.1333C52.7827 75.4751 52.1968 75.7396 51.5132 75.9268C50.8377 76.1058 50.0809 76.1953 49.2427 76.1953C48.494 76.1953 47.7575 76.1058 47.0332 75.9268C46.3089 75.7477 45.6538 75.471 45.0679 75.0967C44.4819 74.7142 44.014 74.23 43.6641 73.644C43.3141 73.0581 43.1392 72.3582 43.1392 71.5444H46.3862C46.3862 71.9513 46.4513 72.3013 46.5815 72.5942C46.7199 72.8872 46.9152 73.1273 47.1675 73.3145C47.4279 73.4935 47.7453 73.6278 48.1196 73.7173C48.494 73.7987 48.9172 73.8394 49.3892 73.8394C49.9425 73.8394 50.3901 73.762 50.7319 73.6074C51.0737 73.4528 51.3179 73.2534 51.4644 73.0093C51.619 72.7651 51.6963 72.5088 51.6963 72.2402ZM61.2539 73.9614L64.1714 61.7788H65.9292L66.2344 63.915L63.207 76H61.3638L61.2539 73.9614ZM59.7646 61.7788L62.1572 73.8638L61.9863 76H59.9966L56.6274 61.7788H59.7646ZM69.0542 73.8516L71.4468 61.7788H74.5596L71.2026 76H69.2251L69.0542 73.8516ZM67.0278 61.7788L69.9697 73.9736L69.8477 76H68.0044L64.9404 63.915L65.27 61.7788H67.0278Z" fill="black"/>
<path d="M26.12 82H27.52V96H24.7V87.98L20.6 92.9L16.4 87.92V96H13.6V82H15.06L20.6 88.76L26.12 82ZM33.7489 93.5H42.3089V96H30.9289V82H42.2089V84.48H33.7489V87.62H41.4289V90.12H33.7489V93.5ZM51.7062 96.1C47.7062 96.1 44.7062 92.92 44.7062 88.98C44.7062 85.06 47.7062 81.9 51.7062 81.9C53.7862 81.9 55.6063 82.48 57.2062 84.22L55.4063 85.98C54.4663 85.06 53.3463 84.42 51.8663 84.42C49.1662 84.42 47.5462 86.5 47.5462 89C47.5462 91.52 49.2062 93.58 51.8663 93.58C53.2863 93.58 54.4063 92.94 55.4662 91.82L57.3263 93.64C55.7863 95.32 54.1463 96.1 51.7062 96.1ZM69.285 82H72.105V96H69.285V90.04H62.645V96H59.825V82H62.645V87.56H69.285V82ZM84.0333 96L83.0133 93.26H78.0933L77.0733 96H74.1133L79.3933 82H81.6933L86.9933 96H84.0333ZM78.9933 90.78H82.1133L80.6333 86.8H80.4733L78.9933 90.78ZM98.9145 82H101.735V96H100.275L91.8145 87.42V96H88.9945V82H90.4945L98.9145 90.52V82ZM105.132 96V82H107.952V96H105.132ZM117.648 96.1C113.648 96.1 110.648 92.92 110.648 88.98C110.648 85.06 113.648 81.9 117.648 81.9C119.728 81.9 121.548 82.48 123.148 84.22L121.348 85.98C120.408 85.06 119.288 84.42 117.808 84.42C115.108 84.42 113.488 86.5 113.488 89C113.488 91.52 115.148 93.58 117.808 93.58C119.228 93.58 120.348 92.94 121.408 91.82L123.268 93.64C121.728 95.32 120.088 96.1 117.648 96.1ZM134.091 96L133.071 93.26H128.151L127.131 96H124.171L129.451 82H131.751L137.051 96H134.091ZM129.051 90.78H132.171L130.691 86.8H130.531L129.051 90.78ZM141.872 93.5H149.232V96H139.052V82H141.872V93.5ZM168.273 96H165.173L164.493 95.3C163.633 95.82 162.473 96.16 160.933 96.16C157.753 96.16 155.733 94.36 155.733 92.18C155.733 90.42 156.773 89.34 158.033 88.56C156.813 87.2 156.693 86.66 156.653 85.58C156.513 83.5 158.753 81.94 160.993 81.94C163.473 81.94 165.073 83.68 165.073 85.28C165.073 87.18 163.493 88.22 161.853 89.06L161.973 89.18L164.293 91.7C164.313 91.54 164.333 91.36 164.333 91.18C164.333 90.4 164.313 89.9 164.033 89.18H166.653C166.893 89.98 166.913 90.5 166.913 91.3C166.913 91.82 166.733 92.78 166.153 93.7L168.273 96ZM159.213 85.64C159.273 86.2 159.433 86.48 160.293 87.4C161.553 86.82 162.573 86.3 162.553 85.42C162.533 84.52 161.773 84.12 160.993 84.12C160.033 84.12 159.113 84.7 159.213 85.64ZM160.993 93.68C161.733 93.7 162.313 93.64 162.773 93.5L159.653 90.24C158.933 90.72 158.433 91.26 158.433 91.96C158.433 93.08 159.593 93.62 160.993 93.68Z" fill="black"/>
<path d="M16.42 133.5H24.98V136H13.6V122H24.88V124.48H16.42V127.62H24.1V130.12H16.42V133.5ZM37.9973 122H40.8173V136H39.3573L30.8973 127.42V136H28.0773V122H29.5773L37.9973 130.52V122ZM50.6548 127.84H56.4348V133.8C56.2348 134.08 54.2348 136.1 50.6948 136.1C46.5348 136.1 43.5148 133.16 43.5148 128.96C43.5148 124.94 46.6148 121.9 50.6148 121.9C52.6948 121.9 54.5148 122.48 56.1148 124.22L53.9548 126.2C53.1948 125.26 52.0548 124.66 50.6348 124.66C47.9548 124.66 46.3948 126.54 46.3948 128.96C46.3948 131.44 48.0148 133.2 50.5148 133.36C52.1548 133.46 53.6348 132.5 53.6348 132.32V130.58H50.6548V127.84ZM59.532 136V122H62.352V136H59.532ZM75.6677 122H78.4877V136H77.0277L68.5677 127.42V136H65.7477V122H67.2477L75.6677 130.52V122ZM84.7052 133.5H93.2652V136H81.8852V122H93.1652V124.48H84.7052V127.62H92.3852V130.12H84.7052V133.5ZM99.1825 133.5H107.742V136H96.3625V122H107.642V124.48H99.1825V127.62H106.862V130.12H99.1825V133.5ZM118.98 136L116.78 131.46H113.76V136H110.94V122H113.76H116.92C119.6 122 121.72 123.52 121.72 126.36C121.72 128.72 120.84 130.12 119.54 130.86L122.16 136H118.98ZM113.76 124.46V128.98H116.74C118.02 128.98 118.94 128.22 118.94 126.58C118.94 125.14 118.02 124.48 116.74 124.48L113.76 124.46ZM124.653 136V122H127.473V136H124.653ZM140.789 122H143.609V136H142.149L133.689 127.42V136H130.869V122H132.369L140.789 130.52V122ZM153.446 127.84H159.226V133.8C159.026 134.08 157.026 136.1 153.486 136.1C149.326 136.1 146.306 133.16 146.306 128.96C146.306 124.94 149.406 121.9 153.406 121.9C155.486 121.9 157.306 122.48 158.906 124.22L156.746 126.2C155.986 125.26 154.846 124.66 153.426 124.66C150.746 124.66 149.186 126.54 149.186 128.96C149.186 131.44 150.806 133.2 153.306 133.36C154.946 133.46 156.426 132.5 156.426 132.32V130.58H153.446V127.84Z" fill="black"/>
<path d="M26.12 102H27.52V116H24.7V107.98L20.6 112.9L16.4 107.92V116H13.6V102H15.06L20.6 108.76L26.12 102ZM39.4489 116L38.4289 113.26H33.5089L32.4889 116H29.5289L34.8089 102H37.1089L42.4089 116H39.4489ZM34.4089 110.78H37.5289L36.0489 106.8H35.8889L34.4089 110.78ZM54.3302 102H57.1502V116H55.6902L47.2302 107.42V116H44.4102V102H45.9102L54.3302 110.52V102ZM66.4477 116.1C62.9877 116.1 60.5477 114.2 60.5477 110.7V102H63.3677V110.44C63.3677 112.62 64.9077 113.46 66.4077 113.46C67.8877 113.46 69.2877 112.62 69.2877 110.44V102H72.0877V110.7C72.0877 114.2 69.4677 116.1 66.4477 116.1ZM86.2737 104.48H78.3137V107.86H85.4938V110.36H78.3137V116H75.4937V102H86.2737V104.48ZM96.2059 116L95.1859 113.26H90.2659L89.2459 116H86.2859L91.5659 102H93.8659L99.1659 116H96.2059ZM91.1659 110.78H94.2859L92.8059 106.8H92.6459L91.1659 110.78ZM106.666 116.1C102.666 116.1 99.6664 112.92 99.6664 108.98C99.6664 105.06 102.666 101.9 106.666 101.9C108.746 101.9 110.566 102.48 112.166 104.22L110.366 105.98C109.426 105.06 108.306 104.42 106.826 104.42C104.126 104.42 102.506 106.5 102.506 109C102.506 111.52 104.166 113.58 106.826 113.58C108.246 113.58 109.366 112.94 110.426 111.82L112.286 113.64C110.746 115.32 109.106 116.1 106.666 116.1ZM124.285 102V104.48H120.205V116H117.385V104.48H113.285V102H124.285ZM132.077 116.1C128.617 116.1 126.177 114.2 126.177 110.7V102H128.997V110.44C128.997 112.62 130.537 113.46 132.037 113.46C133.517 113.46 134.917 112.62 134.917 110.44V102H137.717V110.7C137.717 114.2 135.097 116.1 132.077 116.1ZM149.263 116L147.063 111.46H144.043V116H141.223V102H144.043H147.203C149.883 102 152.003 103.52 152.003 106.36C152.003 108.72 151.123 110.12 149.823 110.86L152.443 116H149.263ZM144.043 104.46V108.98H147.023C148.303 108.98 149.223 108.22 149.223 106.58C149.223 105.14 148.303 104.48 147.023 104.48L144.043 104.46ZM154.936 116V102H157.756V116H154.936ZM171.072 102H173.892V116H172.432L163.972 107.42V116H161.152V102H162.652L171.072 110.52V102ZM183.729 107.84H189.509V113.8C189.309 114.08 187.309 116.1 183.769 116.1C179.609 116.1 176.589 113.16 176.589 108.96C176.589 104.94 179.689 101.9 183.689 101.9C185.769 101.9 187.589 102.48 189.189 104.22L187.029 106.2C186.269 105.26 185.129 104.66 183.709 104.66C181.029 104.66 179.469 106.54 179.469 108.96C179.469 111.44 181.089 113.2 183.589 113.36C185.229 113.46 186.709 112.5 186.709 112.32V110.58H183.729V107.84Z" fill="black"/>
</g>
<defs>
<clipPath id="clip0_3392_480">
<rect width="200" height="200" fill="white"/>
</clipPath>
</defs>
</svg>
