<svg width="455" height="565" viewBox="0 0 455 565" fill="none" xmlns="http://www.w3.org/2000/svg">
<path d="M12.0892 452.959L227.62 551.371L443.153 452.959V11.6773H12.0892V452.959ZM227.62 564.208L0.413269 460.464V-7.06071e-06H454.82V460.464L227.62 564.208Z" fill="#6EC72E"/>
<path d="M37.5812 303.152V302.978C37.5812 284.805 51.7545 271.24 69.9279 271.24C83.3185 271.24 92.3613 277.761 97.4906 287.065L80.7092 296.89C78.4479 292.544 75.2306 289.5 69.6652 289.5C62.7972 289.5 58.2746 295.5 58.2746 302.804V302.978C58.2746 310.89 62.9706 316.456 69.6652 316.456C75.4052 316.456 78.6225 313.325 81.1439 308.804L97.9265 318.281C92.7959 327.324 84.2746 334.714 69.1453 334.714C52.2746 334.714 37.5812 322.021 37.5812 303.152Z" fill="#6EC72E"/>
<path d="M122.709 272.545H143.055V316.021H171.663V333.412H122.709V272.545Z" fill="#6EC72E"/>
<path d="M194.713 306.107V272.545H215.407V305.846C215.407 313.413 219.313 316.629 224.793 316.629C230.273 316.629 234.18 313.673 234.18 306.281V272.545H254.887V305.673C254.887 326.454 242.793 334.629 224.62 334.629C206.447 334.629 194.713 326.281 194.713 306.107Z" fill="#6EC72E"/>
<path d="M312.18 318.021C316.62 318.021 318.873 316.194 318.873 313.586V313.413C318.873 310.804 316.7 308.978 312.273 308.978H302.007V318.021H312.18ZM310.873 296.456C315.233 296.456 317.313 294.978 317.313 292.281V292.108C317.313 289.413 315.14 287.934 310.793 287.934H302.007V296.456H310.873ZM282.18 272.545H316.273C324.7 272.545 330.007 274.456 333.567 278.022C335.753 280.196 337.313 283.325 337.313 287.5V287.673C337.313 294.89 332.967 299.325 326.447 301.586C334.273 303.848 339.313 308.021 339.313 316.369V316.542C339.313 326.281 331.313 333.412 315.927 333.412H282.18V272.545Z" fill="#6EC72E"/>
<path d="M359.566 324.281L370.447 311.325C377.047 316.369 384.62 318.456 391.74 318.456C395.393 318.456 396.966 317.499 396.966 315.847V315.673C396.966 313.935 395.046 312.977 388.526 311.673C374.873 308.891 362.873 304.979 362.873 292.108V291.935C362.873 280.371 371.926 271.413 388.7 271.413C400.446 271.413 409.14 274.196 416.18 279.763L406.273 293.5C400.527 289.325 393.66 287.5 388.007 287.5C384.967 287.5 383.566 288.544 383.566 290.021V290.196C383.566 291.848 385.22 292.891 391.66 294.108C407.22 296.979 417.66 301.499 417.66 313.761V313.935C417.66 326.716 407.14 334.543 390.793 334.543C378.446 334.543 367.313 331.064 359.566 324.281Z" fill="#6EC72E"/>
<path d="M37.4385 369.28L41.068 364.944C43.388 366.793 45.9759 367.768 48.6986 367.768C50.4452 367.768 51.3866 367.162 51.3866 366.154V366.088C51.3866 365.112 50.6132 364.574 47.4212 363.834C42.4132 362.693 38.5479 361.281 38.5479 356.441V356.374C38.5479 352.005 42.0105 348.845 47.6559 348.845C51.6559 348.845 54.7813 349.921 57.3346 351.972L54.0759 356.576C51.9252 355.062 49.5719 354.257 47.4879 354.257C45.9092 354.257 45.1359 354.929 45.1359 355.768V355.836C45.1359 356.912 45.9413 357.381 49.2026 358.121C54.6133 359.298 57.9746 361.045 57.9746 365.448V365.516C57.9746 370.322 54.176 373.178 48.4626 373.178C44.2946 373.178 40.3292 371.868 37.4385 369.28Z" fill="#6EC72E"/>
<path d="M63.52 362.457V349.249H70.1413V362.322C70.1413 365.717 71.8546 367.33 74.4772 367.33C77.0972 367.33 78.812 365.784 78.812 362.49V349.249H85.4332V362.289C85.4332 369.884 81.0973 373.212 74.4093 373.212C67.7213 373.212 63.52 369.818 63.52 362.457Z" fill="#6EC72E"/>
<path d="M101.6 360.943C103.919 360.943 105.331 359.734 105.331 357.886V357.819C105.331 355.802 103.919 354.726 101.567 354.726H98.508V360.943H101.6ZM91.9866 349.249H102.071C108.02 349.249 111.851 352.307 111.851 357.517V357.583C111.851 363.129 107.583 366.053 101.735 366.053H98.508V372.774H91.9866V349.249Z" fill="#6EC72E"/>
<path d="M126.908 360.943C129.227 360.943 130.639 359.734 130.639 357.886V357.819C130.639 355.802 129.227 354.726 126.875 354.726H123.816V360.943H126.908ZM117.296 349.249H127.377C133.327 349.249 137.157 352.307 137.157 357.517V357.583C137.157 363.129 132.889 366.053 127.043 366.053H123.816V372.774H117.296V349.249Z" fill="#6EC72E"/>
<path d="M160.484 361.079V361.011C160.484 357.617 158.031 354.659 154.433 354.659C150.872 354.659 148.485 357.55 148.485 360.943V361.011C148.485 364.406 150.939 367.363 154.501 367.363C158.097 367.363 160.484 364.474 160.484 361.079ZM141.797 361.079V361.011C141.797 354.257 147.243 348.778 154.501 348.778C161.761 348.778 167.139 354.189 167.139 360.943V361.011C167.139 367.767 161.693 373.245 154.433 373.245C147.175 373.245 141.797 367.834 141.797 361.079Z" fill="#6EC72E"/>
<path d="M184.044 360.542C186.26 360.542 187.54 359.466 187.54 357.751V357.685C187.54 355.835 186.193 354.894 184.011 354.894H179.743V360.542H184.044ZM173.221 349.249H184.347C187.94 349.249 190.433 350.19 192.007 351.803C193.393 353.147 194.087 354.962 194.087 357.281V357.349C194.087 360.943 192.18 363.33 189.247 364.574L194.86 372.774H187.34L182.599 365.65H182.532H179.743V372.774H173.221V349.249Z" fill="#6EC72E"/>
<path d="M205.82 354.962H198.767V349.249H219.407V354.962H212.34V372.774H205.82V354.962Z" fill="#6EC72E"/>
<path d="M224.953 349.249H243.873V354.794H231.407V358.357H242.687V363.498H231.407V367.229H244.033V372.774H224.953V349.249Z" fill="#6EC72E"/>
<path d="M259.233 366.993C263.127 366.993 265.713 364.842 265.713 361.045V360.978C265.713 357.213 263.127 355.03 259.233 355.03H256.567V366.993H259.233ZM250.047 349.249H259.127C267.527 349.249 272.407 354.089 272.407 360.878V360.943C272.407 367.733 267.46 372.774 258.993 372.774H250.047V349.249Z" fill="#6EC72E"/>
<path d="M301.847 367.531C303.833 367.531 304.967 366.759 304.967 365.379V365.314C304.967 364.037 303.967 363.197 301.78 363.197H296.807V367.531H301.847ZM300.9 358.626C302.887 358.626 303.993 357.953 303.993 356.575V356.507C303.993 355.23 302.993 354.491 301.033 354.491H296.807V358.626H300.9ZM290.447 349.249H302.513C305.473 349.249 307.553 349.989 308.94 351.366C309.873 352.307 310.447 353.55 310.447 355.163V355.23C310.447 357.953 308.9 359.566 306.82 360.474C309.673 361.415 311.487 363.029 311.487 366.221V366.287C311.487 370.322 308.193 372.774 302.58 372.774H290.447V349.249Z" fill="#6EC72E"/>
<path d="M322.953 363.97L314.007 349.249H321.447L326.287 357.819L331.153 349.249H338.447L329.513 363.869V372.774H322.953V363.97Z" fill="#6EC72E"/>
<path d="M368.993 363.498L366.38 356.811L363.727 363.498H368.993ZM363.287 349.081H369.567L379.58 372.774H372.593L370.887 368.574H361.807L360.127 372.774H353.273L363.287 349.081Z" fill="#6EC72E"/>
<path d="M384.193 354.593H390.58V358.257C391.62 355.767 393.3 354.155 396.327 354.29V361.011H395.78C392.46 361.011 390.58 362.927 390.58 367.129V372.774H384.193V354.593Z" fill="#6EC72E"/>
<path d="M400.193 363.768V363.701C400.193 358.558 404.193 354.222 409.94 354.222C413.66 354.222 416.153 355.836 417.7 358.289L413.367 361.516C412.487 360.306 411.513 359.601 409.967 359.601C407.913 359.601 406.407 361.416 406.407 363.633V363.701C406.407 366.053 407.887 367.834 410.033 367.834C411.553 367.834 412.527 367.129 413.527 365.952L417.793 369.045C416.113 371.532 413.7 373.212 409.7 373.212C404.22 373.212 400.193 368.91 400.193 363.768Z" fill="#6EC72E"/>
<path d="M39.8892 399.662V378.488H44.5466V399.662H39.8892Z" fill="#6EC72E"/>
<path d="M67.1133 399.662L56.8599 386.202V399.662H52.2612V378.488H56.5558L66.4786 391.526V378.488H71.0759V399.662H67.1133Z" fill="#6EC72E"/>
<path d="M93.2186 389.075C93.2186 385.323 90.648 382.692 86.836 382.692H83.236V395.458H86.836C90.648 395.458 93.2186 392.886 93.2186 389.135V389.075ZM86.836 399.662H78.5787V378.488H86.836C93.4906 378.488 98.0892 383.055 98.0892 389.014V389.075C98.0892 395.035 93.4906 399.662 86.836 399.662Z" fill="#6EC72E"/>
<path d="M104.653 399.662V378.488H120.624V382.632H109.28V386.927H119.264V391.071H109.28V395.518H120.775V399.662H104.653Z" fill="#6EC72E"/>
<path d="M139.377 385.899C139.377 383.812 137.927 382.692 135.597 382.692H131.996V389.166H135.688C138.017 389.166 139.377 387.774 139.377 385.959V385.899ZM135.537 393.31H131.996V399.662H127.339V378.488H135.989C141.043 378.488 144.097 381.483 144.097 385.808V385.868C144.097 390.768 140.285 393.31 135.537 393.31Z" fill="#6EC72E"/>
<path d="M149.965 399.662V378.488H165.936V382.632H154.593V386.927H164.576V391.071H154.593V395.518H166.088V399.662H149.965Z" fill="#6EC72E"/>
<path d="M187.5 399.662L177.249 386.202V399.662H172.652V378.488H176.947L186.873 391.526V378.488H191.46V399.662H187.5Z" fill="#6EC72E"/>
<path d="M213.607 389.075C213.607 385.323 211.033 382.692 207.22 382.692H203.62V395.458H207.22C211.033 395.458 213.607 392.886 213.607 389.135V389.075ZM207.22 399.662H198.967V378.488H207.22C213.887 378.488 218.473 383.055 218.473 389.014V389.075C218.473 395.035 213.887 399.662 207.22 399.662Z" fill="#6EC72E"/>
<path d="M225.047 399.662V378.488H241.02V382.632H229.673V386.927H239.647V391.071H229.673V395.518H241.167V399.662H225.047Z" fill="#6EC72E"/>
<path d="M262.58 399.662L252.327 386.202V399.662H247.727V378.488H252.02L261.94 391.526V378.488H266.54V399.662H262.58Z" fill="#6EC72E"/>
<path d="M283.633 382.783V399.662H278.98V382.783H272.527V378.488H290.073V382.783H283.633Z" fill="#6EC72E"/>
<path d="M296.073 399.662V378.488H300.727V395.428H311.287V399.662H296.073Z" fill="#6EC72E"/>
<path d="M323.9 391.223V399.662H319.233V391.314L311.1 378.488H316.54L321.593 386.988L326.74 378.488H332.033L323.9 391.223Z" fill="#6EC72E"/>
<path d="M361.793 385.716C361.793 383.72 360.407 382.692 358.14 382.692H353.513V388.772H358.233C360.5 388.772 361.793 387.562 361.793 385.778V385.716ZM361.7 399.662L357.167 392.886H353.513V399.662H348.847V378.488H358.527C363.527 378.488 366.513 381.119 366.513 385.475V385.536C366.513 388.954 364.673 391.102 361.98 392.1L367.153 399.662H361.7Z" fill="#6EC72E"/>
<path d="M381.966 399.996C376.286 399.996 372.807 396.82 372.807 390.589V378.489H377.46V390.466C377.46 393.916 379.193 395.701 382.033 395.701C384.873 395.701 386.607 393.977 386.607 390.618V378.489H391.26V390.436C391.26 396.849 387.66 399.996 381.966 399.996Z" fill="#6EC72E"/>
<path d="M413.287 399.662L403.02 386.202V399.662H398.433V378.488H402.727L412.647 391.526V378.488H417.247V399.662H413.287Z" fill="#6EC72E"/>
<path d="M382.393 177.276C382.167 176.54 381.833 175.819 381.527 175.105C381.047 174.224 380.553 173.381 379.94 172.627C379.313 171.883 378.54 171.327 377.793 170.748C377.06 170.175 376.3 169.539 375.473 169.159C374.473 168.721 373.407 168.361 372.34 168.212C371.42 168.048 370.487 168.209 369.54 168.24C368.593 168.316 367.673 168.32 366.727 168.588C365.94 168.8 365.247 169.095 364.473 169.451C363.753 169.859 363.087 170.484 362.34 170.833C361.393 171.255 360.38 171.272 359.5 171.645C358.58 171.964 357.767 172.467 356.887 172.781C356.007 173.059 355.033 173.12 354.06 173.383C353.26 173.6 352.54 173.999 351.633 174.164C350.807 174.397 349.953 174.66 349.1 174.861C348.367 174.991 347.647 175.263 346.86 175.439C346.207 175.559 345.473 175.589 344.82 175.717C343.807 175.903 342.767 176.136 341.74 176.235C340.833 176.293 339.94 176.041 339.06 176.045C338.153 176.048 337.26 176.036 336.313 175.967C335.433 175.919 334.527 175.805 333.633 175.669C332.753 175.548 331.873 175.232 330.953 175.059C330.073 174.864 329.26 174.548 328.313 174.3C327.42 174.08 326.473 173.988 325.62 173.691C324.713 173.376 323.887 172.965 323.02 172.587C322.18 172.228 321.233 171.988 320.38 171.58C319.553 171.167 318.673 170.813 317.833 170.344C317.153 169.959 316.527 169.451 315.86 169.023C315.353 168.651 314.86 168.115 314.273 167.739C313.46 167.129 312.38 166.935 311.553 166.321C310.793 165.693 309.98 165.069 309.273 164.411C308.513 163.743 308.047 162.784 307.38 162.072C306.673 161.36 305.807 160.825 305.193 160.055C304.567 159.324 304.127 158.44 303.553 157.655C302.98 156.864 302.393 156.108 301.86 155.3C301.353 154.48 301.007 153.601 300.58 152.755C300.087 151.903 299.727 151.032 299.353 150.152C298.98 149.301 298.793 148.329 298.46 147.443C298.18 146.569 297.567 145.744 297.353 144.817C297.167 144.087 297.34 143.293 297.22 142.564C297.06 141.524 296.54 140.509 296.447 139.445C296.353 138.379 296.167 137.285 296.167 136.232C296.153 135.156 296.18 134.069 296.273 133.008C296.367 132.095 297.02 131.267 297.167 130.348C297.327 129.444 297.447 128.556 297.593 127.655C297.86 126.759 297.913 125.829 298.193 124.948C298.487 124.077 298.673 123.16 299.033 122.299C299.34 121.427 299.567 120.528 299.967 119.676C300.353 118.849 301.02 118.097 301.473 117.267C301.927 116.437 302.407 115.649 302.953 114.831C303.34 114.181 303.9 113.629 304.353 112.973C304.927 112.149 305.54 111.355 306.127 110.592C306.78 109.799 307.193 108.848 307.873 108.112C308.54 107.353 309.26 106.68 309.953 105.983C310.687 105.272 311.447 104.623 312.167 103.995C312.94 103.313 313.807 102.873 314.633 102.292C315.42 101.692 316.233 101.177 317.113 100.656C317.793 100.212 318.367 99.5372 319.033 99.1719C319.727 98.7705 320.433 98.2959 321.193 97.9492C321.9 97.5759 322.713 97.3706 323.447 97.0799C323.887 96.8826 324.327 96.6239 324.713 96.3492C324.993 96.2266 325.233 96.1279 325.54 96.0559C325.833 95.9932 326.14 95.8852 326.447 95.7345C326.967 95.6345 327.46 95.5745 327.967 95.4332C328.153 95.3879 328.367 95.3572 328.58 95.2999C328.967 95.3825 329.367 95.5092 329.713 95.4265C329.713 95.4265 330.1 95.7212 330.5 95.6679C331.527 95.4852 332.513 95.3599 333.447 95.1892C334.127 95.0892 334.7 94.4612 335.207 94.0425C335.513 94.0012 335.793 93.9732 336.033 93.9425C336.98 93.8345 337.86 93.9919 338.753 93.9079C339.167 93.8452 339.593 93.6852 340.047 93.5372C340.473 93.5825 340.86 93.6519 341.3 93.6319C341.847 93.5892 342.447 93.4172 342.98 93.2985C343.367 93.3079 343.74 93.3652 344.1 93.3385C344.407 93.3372 344.673 93.3159 344.953 93.3159C345.433 93.5292 345.98 93.8012 346.447 93.8159C347.233 93.8239 348.007 93.8119 348.78 93.8785C349.007 93.8932 349.22 93.9479 349.433 94.0305L350.86 94.4932C351.713 94.5705 352.66 93.7745 353.5 93.5332C353.607 93.4972 353.7 93.4959 353.78 93.4959L353.967 93.4945L356.393 93.2466C356.513 93.2292 356.58 93.2292 356.607 93.1772C356.913 93.1132 357.127 92.9625 357.34 92.8412C358.047 92.6519 358.687 92.4852 359.287 92.1212C360.193 91.5159 360.913 90.6545 361.687 89.8372C362.287 89.1705 363.113 88.5399 363.567 87.7359C364.073 86.9252 364.34 85.9625 364.647 85.0772C364.767 84.5345 364.793 83.9532 364.86 83.3732C364.913 83.1332 364.98 82.9146 365.033 82.6839C365.127 81.6826 364.927 80.6919 364.847 79.7506C364.727 78.7959 364.62 77.8186 364.287 76.9226C364.1 76.4026 363.847 75.9505 363.607 75.4945C363.607 75.0185 363.607 74.5519 363.393 74.2012C362.78 73.2932 361.793 72.5946 360.967 71.8546C360.793 71.6546 360.513 71.5492 360.233 71.4439C359.727 71.0652 359.14 70.7185 358.567 70.4025C357.767 69.9452 357.033 69.2799 356.1 69.0265C355.393 68.7839 354.567 68.5759 353.78 68.4732C352.74 68.3639 351.62 68.5865 350.567 68.5319C350.407 68.4852 350.18 68.4639 349.967 68.4532C349.18 68.2266 348.38 67.7372 347.62 67.7305C347.14 67.6865 346.713 67.9279 346.247 68.1786C345.7 68.1812 345.127 68.1825 344.607 68.1652C343.633 68.1692 342.66 68.1199 341.66 68.1652C340.713 68.1999 339.713 68.0679 338.7 68.1612C337.7 68.2119 336.727 68.6972 335.687 68.8159C334.873 68.9079 333.993 68.9119 333.073 69.0265C332.313 69.1305 331.553 69.4226 330.767 69.5826C330.647 69.5826 330.553 69.5825 330.433 69.5945C330.127 69.6412 329.873 69.6572 329.54 69.6732C328.94 69.6452 328.26 69.5425 327.633 69.6332C327.407 69.6812 327.18 69.7119 326.953 69.8079C326.527 69.7159 326.073 69.5999 325.687 69.6572C325.527 69.6892 325.22 69.8599 324.767 69.9639C323.7 70.1679 322.633 70.2839 321.607 70.4972C321.033 70.6092 320.513 70.9559 319.953 71.2919H319.94C319.327 71.4705 318.713 71.7265 318.14 71.9759C317.313 72.1399 316.433 72.2666 315.62 72.4546C314.607 72.6866 313.673 73.3919 312.633 73.6146C311.607 73.8479 310.38 73.1906 309.38 73.4199C308.367 73.6719 307.487 74.6346 306.487 74.8786C305.487 75.1399 304.233 74.5332 303.233 74.7852C302.193 75.0146 301.433 76.2666 300.407 76.5146C299.407 76.7586 298.127 75.9879 297.087 76.2385C296.073 76.5159 295.233 77.2839 294.193 77.5585C293.193 77.8372 292.007 77.5546 291.007 77.8159C289.993 78.1066 289.153 78.9319 288.153 79.2319C287.113 79.5185 285.953 79.2505 284.913 79.5625C283.913 79.8492 283.247 81.1812 282.247 81.4852C281.247 81.7919 279.94 81.0079 278.927 81.3132C277.9 81.6266 277.26 83.0639 276.26 83.3679C275.287 83.6732 274.22 83.8506 273.22 84.1559C272.233 84.4879 271.18 84.5892 270.18 84.9265C269.167 85.2359 268.127 85.4092 267.127 85.7319C266.14 86.0519 265.087 86.2292 264.087 86.5625C263.113 86.8852 262.447 88.1425 261.447 88.4919C260.447 88.8479 259.38 88.8826 258.38 89.2186C257.407 89.5759 256.287 89.5292 255.3 89.8852C254.3 90.2532 253.3 90.5185 252.353 90.8732C251.353 91.2399 250.367 91.7012 249.407 92.0852C248.433 92.4412 247.513 92.9465 246.553 93.3292C245.58 93.6999 244.673 94.2092 243.7 94.6012C242.713 94.9905 241.9 95.7092 240.9 96.1079C239.993 96.4759 238.82 96.4799 237.887 96.8785C237.1 97.2012 236.367 97.7732 235.54 98.1052C234.767 98.4265 233.847 98.4959 233.06 98.8186C232.26 99.1679 231.233 98.9639 230.447 99.3279C229.46 99.7479 229.087 101.379 228.1 101.785C227.34 102.145 226.193 101.704 225.367 102.056C224.633 102.431 223.567 102.295 222.807 102.647C222.02 103.016 221.513 103.977 220.713 104.359C219.953 104.699 219.26 105.323 218.473 105.712C217.553 106.137 216.633 106.673 215.74 107.137C215.407 107.289 215.06 107.396 214.7 107.483C214.487 106.639 214.233 106.545 214.047 105.419C213.927 104.797 214.26 104.721 214.167 104.083C214.007 103.095 213.433 102.209 213.033 101.331C212.66 100.448 212.447 99.4452 211.86 98.6839C211.287 97.9266 210.273 97.5786 209.58 96.9799C208.753 96.2612 207.9 95.6732 206.927 95.2212C206.1 94.7812 205.273 94.4786 204.327 94.2532C203.473 94.0652 202.593 93.9279 201.62 93.9332C200.82 93.9345 200.087 93.9372 199.3 94.0932C198.327 94.2652 197.393 94.5345 196.513 94.9079C195.633 95.2972 194.9 95.8465 194.14 96.4119C193.38 96.9785 192.767 97.6172 192.167 98.3345C191.433 99.1639 190.553 99.8359 190.073 100.811C189.713 101.649 189.593 102.595 189.393 103.521C189.18 104.408 189.113 105.325 189.113 106.267C189.127 107.04 188.913 107.813 189.033 108.623C189.287 110.035 189.62 110.004 189.847 111.433C190.127 112.879 189.767 112.963 189.993 114.433C190.233 115.809 190.407 115.771 190.687 117.157C190.913 118.496 190.807 118.601 191.033 119.836C190.473 119.96 189.873 120.052 189.46 120.333C188.66 120.756 188.233 121.7 187.473 122.143C186.593 122.649 185.319 122.491 184.403 123C183.709 123.432 183.468 124.721 182.739 125.147C181.981 125.6 180.676 125.049 179.939 125.479C179.059 126.017 178.483 127.085 177.633 127.619C176.901 128.064 176.54 129.104 175.819 129.556C175.117 130.007 174.388 130.435 173.631 130.909C172.927 131.355 171.676 130.945 170.952 131.423C170.1 131.976 169.247 132.519 168.336 133.076C167.664 133.524 167.192 134.341 166.453 134.819C165.788 135.305 165.153 135.871 164.425 136.365C163.756 136.855 163.028 137.309 162.325 137.787C161.512 138.369 160.776 139.133 159.957 139.715C159.297 140.193 158.256 140.197 157.527 140.685C157.343 139.879 157.675 139.435 157.124 138.399C156.505 137.228 156.505 137.217 155.896 136.047C155.255 134.832 154.619 135.153 153.999 133.933C153.327 132.663 153.841 132.399 153.201 131.123C152.595 129.967 152.133 130.193 151.543 128.996C150.876 127.808 151.457 127.535 150.751 126.311C150.101 125.06 149.987 125.152 149.367 123.893C148.689 122.721 148.689 122.721 148.084 121.552C147.435 120.356 147.464 120.321 146.823 119.143C146.149 117.867 145.635 118.152 144.984 116.888C144.372 115.707 144.733 115.54 144.093 114.368C143.443 113.155 143.147 113.308 142.499 112.101C141.824 110.831 141.919 110.785 141.244 109.504C140.631 108.307 141.145 108.059 140.533 106.907C139.863 105.649 139.768 105.707 139.156 104.48C138.543 103.309 138.421 103.371 137.805 102.228C137.192 101.015 136.709 101.26 136.089 100.064C135.419 98.7839 136.083 98.4332 135.412 97.1519C134.796 95.9666 134.399 96.1799 133.789 95.0105C133.109 93.7679 132.935 93.8279 132.252 92.5826C131.647 91.4026 132.192 91.1372 131.575 89.9559C130.935 88.7092 130.935 88.7092 130.256 87.4639C129.651 86.2959 129.549 86.3412 128.941 85.1799C128.267 83.9132 127.813 84.1559 127.169 82.8879C126.551 81.7039 126.883 81.5119 126.264 80.3532C125.723 79.2439 125.233 79.5185 124.651 78.4279C124.004 77.2292 124.644 76.8759 124.06 75.6719C123.452 74.5345 123.505 74.5012 122.901 73.3585C122.347 72.3305 121.951 72.5519 121.433 71.5092C120.783 70.2652 120.933 70.1572 120.293 68.9439C119.647 67.7465 119.399 67.8799 118.765 66.6679C118.269 65.7865 118.605 65.6065 118.172 64.7372C117.84 64.0812 117.773 64.1065 117.437 63.4439C116.983 62.5932 116.367 61.7745 115.76 61.0612C115.116 60.3159 114.441 59.5879 113.675 59.0265C112.911 58.4825 111.784 58.5799 110.931 58.2186C110.051 57.8599 109.375 56.8732 108.489 56.7039C107.701 56.5625 106.851 57.2279 106.057 57.2319C105.331 57.2345 104.621 57.0879 103.84 57.2226C102.893 57.3959 102.044 57.7066 101.159 58.0879C100.257 58.4706 99.1533 58.4479 98.3907 58.9972C97.6693 59.5652 96.9054 60.2666 96.268 60.9852C95.6934 61.6706 95.3333 62.6492 94.908 63.4826C94.5413 64.1599 94.0307 64.8292 93.764 65.5745C93.5427 66.2892 93.8653 67.1145 93.7386 67.8625C93.5346 69.2639 93.012 69.1826 92.8347 70.5879C92.6614 72.0212 93.0879 72.0492 92.8826 73.4639C92.7013 74.9159 92.2453 74.8706 92.0653 76.3159C91.8933 77.6839 92.6533 77.7559 92.4426 79.1279C92.2653 80.5025 92.2386 80.5025 92.0559 81.9052C91.8786 83.3065 91.8519 83.3065 91.6719 84.7372C91.4679 86.1719 91.4679 86.1332 91.2826 87.5999C91.1093 88.9385 90.7147 88.8959 90.5693 90.2652C90.392 91.6145 90.3266 91.6039 90.12 93.0039C89.948 94.3932 90.4039 94.4612 90.2546 95.8799C90.0453 97.2999 90.1986 97.3266 89.9892 98.7466C89.8146 100.104 89.2933 100.027 89.0879 101.38C88.9093 102.753 88.7266 102.736 88.5533 104.095C88.3706 105.512 88.3706 105.512 88.1986 106.913C88.0813 108.36 88.108 108.36 87.9347 109.791C87.7214 111.141 87.908 111.156 87.7266 112.497C87.556 113.888 87.372 113.855 87.192 115.229C86.9866 116.641 86.9587 116.641 86.7747 118.055C86.572 119.493 87.3 119.583 87.124 121.031C86.9427 122.348 86.6186 122.337 86.4933 123.679C86.3133 125.079 85.7107 124.988 85.5307 126.379C85.3533 127.791 85.6893 127.821 85.4813 129.235C85.3053 130.581 85.3387 130.581 85.1907 131.907C84.9867 133.272 85.196 133.288 85.0454 134.657C84.8987 136.065 84.8987 136.065 84.696 137.463C84.5134 138.881 84.7586 138.905 84.5773 140.353C84.4039 141.683 84.372 141.683 84.196 143.035C84.0174 144.409 83.9013 144.409 83.7467 145.776C83.5427 147.193 83.296 147.187 83.124 148.597C82.94 149.921 83.1294 149.936 82.9454 151.263C82.7387 152.612 83.0454 152.68 82.9347 154.029C82.7507 155.447 82.5679 155.431 82.3892 156.819C82.1932 158.147 82.2106 158.147 82.0386 159.471C81.8559 160.837 81.4346 160.769 81.22 162.116C81.0466 163.537 81.384 163.565 81.2067 164.983C81.0254 166.296 80.5666 166.219 80.3986 167.524C80.2146 168.889 80.888 168.977 80.7373 170.315C80.5306 171.732 80.356 171.715 80.1706 173.139C79.9973 174.441 79.9306 174.427 79.7586 175.716C79.5773 177.093 79.64 177.093 79.4627 178.447C79.248 179.893 79.4907 179.911 79.3467 181.34C79.1747 182.668 78.5973 182.592 78.4133 183.901C78.2373 185.303 78.488 185.335 78.3027 186.717C78.1573 188.011 77.6347 187.939 77.464 189.203C77.2813 190.575 78.1679 190.688 77.9892 192.036C77.8146 193.465 77.2067 193.372 77.0307 194.824C76.876 196.113 76.544 196.104 76.368 197.424C76.1934 198.841 77.112 198.96 76.9266 200.352C76.7813 201.657 76.5652 201.624 76.3892 202.935C76.2132 204.371 76.2346 204.371 76.0666 205.751C75.8839 207.047 76.0134 207.08 75.8347 208.371C75.656 209.789 75.2907 209.729 75.1133 211.157C74.9347 212.488 74.4507 212.429 74.2693 213.724C74.092 214.941 74.4253 214.985 74.28 216.201C74.0653 217.543 74.3467 217.576 74.2014 218.935C74.0254 220.193 73.988 220.195 73.8413 221.437C73.6933 222.612 73.4507 222.585 73.2787 223.776C73.1254 225.133 73.284 225.157 73.1307 226.533C72.9253 227.868 72.8907 227.868 72.6853 229.227C72.6853 229.452 72.6573 229.64 72.5973 229.8C72.4427 229.96 72.2947 230.128 72.2294 230.357C72.1414 230.584 72.1426 230.859 72.232 231.129C72.12 231.908 72.2359 231.935 72.1226 232.7C72.0012 233.687 72.2213 234.689 72.3159 235.636C72.4093 236.595 72.688 237.508 72.9653 238.401C73.304 239.299 73.184 240.428 73.676 241.215C74.2906 242.141 75.2053 242.884 76.0027 243.607C76.6707 244.28 77.3426 245.047 78.1666 245.543C78.3813 245.689 78.6893 245.751 78.9853 245.812C79.5973 246.175 80.2413 246.551 80.9133 246.749C81.2747 246.883 81.7319 246.865 82.1879 246.833C82.4919 247.061 82.8026 247.289 83.1373 247.328C84.14 247.461 85.1746 246.832 86.1493 246.728C87.0626 246.629 88.1306 246.912 89.0386 246.608C89.9199 246.301 90.6186 245.472 91.432 244.987C92.0466 244.584 92.56 244.159 93.1067 243.671C93.7134 243.539 94.324 243.439 94.632 243.051C94.9066 242.777 94.904 242.32 94.9027 241.861C95.1667 241.516 95.4493 241.196 95.66 240.799C95.924 240.445 96.1173 240.051 96.2573 239.64C96.8027 239.392 97.416 239.144 97.6533 238.703C98.1693 237.897 97.6813 236.496 98.192 235.669C98.7093 234.891 99.9239 234.543 100.5 233.757C101.009 232.969 101.683 232.264 102.227 231.484C102.745 230.695 102.279 229.2 102.823 228.396C103.34 227.6 104.124 226.989 104.703 226.212C105.272 225.417 106.34 225.031 106.916 224.255C107.492 223.469 108.463 223.008 109.043 222.22C109.619 221.44 110.072 220.585 110.676 219.833C111.252 219.073 110.971 217.616 111.584 216.84C112.188 216.085 113.403 215.807 114.004 215.061C114.615 214.311 114.879 213.267 115.485 212.512C116.128 211.776 117.404 211.584 118.007 210.824C118.672 210.064 118.823 208.939 119.488 208.203C120.159 207.469 120.941 206.873 121.612 206.157C122.251 205.412 123.28 205.04 123.983 204.323C124.649 203.604 124.644 202.267 125.308 201.549C126.005 200.829 126.335 199.803 127.039 199.085C127.732 198.369 128.948 198.149 129.587 197.435C130.311 196.727 131.008 196.009 131.711 195.317C132.413 194.608 133.259 194.071 133.953 193.355C134.681 192.664 135.012 191.571 135.735 190.863C136.436 190.177 137.475 189.824 138.203 189.124C138.929 188.432 139.933 188.032 140.691 187.361C141.391 186.672 142.147 186.004 142.937 185.359C143.633 184.668 143.968 183.481 144.725 182.788C145.425 182.132 146.664 181.977 147.427 181.333C148.219 180.645 148.577 179.581 149.336 178.92C149.485 178.82 149.664 178.697 149.823 178.617C149.911 178.819 149.999 178.996 150.1 179.193C150.617 180.136 150.747 181.264 151.263 182.173C151.751 183.131 151.792 184.291 152.28 185.209C152.616 185.948 153.321 186.5 153.692 187.22C154.056 187.932 154.515 188.601 154.884 189.315C155.259 190.029 155.443 190.876 155.812 191.596C156.208 192.317 156.996 192.839 157.336 193.553C157.733 194.281 158.077 195.056 158.471 195.788C158.841 196.512 159.148 197.285 159.521 198.016C159.948 198.745 159.952 199.692 160.348 200.404C160.716 201.183 161.633 201.637 162.035 202.365C162.432 203.124 162.645 203.96 163.012 204.684C163.447 205.464 163.591 206.328 163.932 207.071C164.333 207.839 164.829 208.569 165.22 209.281C165.623 210.068 166.269 210.679 166.659 211.393C167.057 212.193 167.609 212.844 168.017 213.529C168.439 214.333 168.535 215.245 168.877 215.959C169.331 216.716 169.82 217.389 170.22 218.043C170.496 218.603 170.916 218.964 171.195 219.435C171.596 220.243 171.332 221.203 171.6 221.673C171.911 222.279 172.517 221.788 172.731 222.229C173.195 223.127 173.167 224.316 173.807 225.028C174.42 225.757 175.369 226.24 176.153 226.783C176.919 227.348 177.839 227.585 178.657 227.945C179.665 228.372 180.615 229.125 181.712 229.288C182.597 229.405 183.509 228.859 184.391 228.765L186.94 228.741C187.033 228.696 187.18 228.695 187.287 228.661C188.007 228.444 188.647 227.88 189.38 227.496C190.233 227.024 191.047 226.536 191.74 225.901C192.473 225.275 192.953 224.495 193.5 223.736C194.073 222.956 194.527 222.239 194.887 221.376C195.34 220.368 195.793 219.435 195.98 218.335C196.1 217.423 196.58 216.48 196.513 215.569C196.393 214.637 196.207 213.629 195.953 212.735C195.74 211.995 195.407 211.197 195.033 210.484C194.367 209.252 194.153 209.364 193.473 208.119C192.833 206.843 192.393 207.088 191.7 205.812C191.02 204.548 191.38 204.344 190.713 203.057C190.033 201.848 190.247 201.731 189.607 200.519C188.967 199.287 189.02 199.26 188.353 198.025C187.7 196.753 187.5 196.877 186.847 195.617C186.14 194.333 186.353 194.236 185.68 192.935C185.061 191.723 184.647 191.949 183.999 190.737C183.359 189.539 183.717 189.309 183.049 188.097C182.376 186.848 182.376 186.864 181.728 185.605C181.047 184.34 180.928 184.372 180.249 183.101C179.64 181.895 179.82 181.823 179.119 180.609C178.507 179.389 178.715 179.265 178.073 178.037C177.428 176.773 176.724 177.157 176.052 175.899C175.384 174.617 175.532 174.571 174.824 173.284C174.181 172.085 174.397 171.976 173.747 170.788C173.107 169.545 173.107 169.545 172.436 168.316C171.816 167.069 171.697 167.101 171.052 165.869C170.411 164.577 170.836 164.32 170.192 163.027C170.101 162.965 170.072 162.904 170.036 162.859C170.615 162.761 171.16 162.748 171.532 162.459C172.285 161.952 172.589 160.839 173.28 160.335C174.041 159.811 175.081 159.781 175.817 159.288C176.539 158.769 177.26 158.215 177.959 157.683C178.725 157.204 179.447 156.719 180.183 156.211C180.969 155.723 181.204 154.548 182.004 154.06C182.689 153.555 183.579 153.165 184.307 152.704C185.037 152.207 186.167 152.343 186.953 151.849C187.713 151.376 187.913 150.029 188.713 149.557C189.447 149.068 190.353 148.804 191.073 148.313C191.847 147.855 192.633 147.383 193.42 146.904C194.06 146.528 195.033 146.581 195.753 146.339C195.833 146.877 195.833 147.235 195.953 148.205C196.233 149.58 196.567 149.499 196.847 150.856C197.1 152.268 196.967 152.301 197.22 153.711C197.527 155.189 197.74 155.128 197.993 156.615C198.233 157.989 197.807 158.061 198.033 159.445C198.34 160.879 198.34 160.879 198.593 162.324C198.847 163.664 199.14 163.595 199.393 164.941C199.647 166.349 199.3 166.413 199.593 167.815C199.833 169.304 200.193 169.231 200.487 170.719C200.7 172.119 200.673 172.119 200.927 173.5C201.233 174.991 200.713 175.06 201.02 176.548C201.233 177.904 201.86 177.789 202.087 179.192C202.34 180.435 202.287 180.451 202.513 181.745C202.727 183.085 202.593 183.097 202.913 184.469C203.127 185.945 203.127 185.957 203.38 187.436C203.593 188.804 203.38 188.872 203.66 190.239C203.887 191.515 204.18 191.452 204.407 192.747C204.62 194.176 204.647 194.176 204.94 195.591C205.153 196.908 204.793 196.976 205.033 198.296C205.247 199.563 205.553 199.496 205.767 200.713C206.087 202.157 206.02 202.157 206.3 203.607C206.487 204.691 206.18 204.736 206.393 205.829C206.62 207.136 206.767 207.089 206.993 208.407C207.233 209.677 207.233 209.677 207.487 210.937C207.58 211.561 207.487 211.579 207.58 212.188C207.78 213.193 208.38 214.011 208.78 214.907C209.153 215.803 209.487 216.64 210.073 217.419C210.66 218.161 211.353 218.748 212.087 219.372C212.913 220.071 213.62 220.883 214.62 221.355C215.447 221.749 216.353 222.061 217.273 222.259C218.193 222.496 219.1 222.437 220.073 222.435C220.833 222.439 221.66 222.744 222.487 222.607C223.433 222.421 224.313 221.819 225.193 221.435C226.033 221.053 226.833 220.519 227.593 219.953C228.34 219.38 229.38 219.048 229.993 218.375C230.687 217.529 230.82 216.312 231.313 215.337C231.7 214.5 232.22 213.717 232.46 212.812C232.633 211.923 233.06 210.996 233.06 210.051C233.087 209.275 233.02 208.423 232.86 207.647C232.62 206.213 232.5 206.231 232.247 204.801C231.993 203.341 231.7 203.387 231.42 201.924C231.167 200.541 231.353 200.513 231.06 199.124C230.833 197.724 230.727 197.741 230.447 196.316C230.207 194.852 230.26 194.835 230.02 193.389C229.767 192.024 229.967 191.979 229.727 190.621C229.473 189.205 229.18 189.284 228.927 187.857C228.673 186.429 229.073 186.343 228.793 184.888C228.54 183.52 228.207 183.584 227.953 182.24C227.673 180.843 228.02 180.809 227.74 179.383C227.487 177.948 227.513 177.948 227.26 176.477C227.02 175.136 226.807 175.189 226.593 173.817C226.34 172.433 226.06 172.461 225.807 171.045C225.567 169.6 225.5 169.615 225.193 168.172C224.98 166.819 225.193 166.772 224.967 165.439C224.687 164.004 224.473 164.039 224.167 162.651C223.913 161.161 224.1 161.141 223.847 159.653C223.567 158.288 223.847 158.217 223.633 156.853C223.353 155.425 222.887 155.5 222.647 154.069C222.42 152.716 222.607 152.687 222.327 151.343C222.087 149.931 222.02 149.943 221.767 148.565C221.487 147.052 221.887 146.979 221.607 145.503C221.393 144.104 221.447 144.104 221.167 142.705C220.927 141.245 220.953 141.245 220.7 139.756C220.42 138.381 220.087 138.463 219.807 137.071C219.593 135.812 219.553 135.812 219.34 134.541C219.287 134.127 219.247 133.837 219.18 133.597C219.487 133.424 219.753 133.256 220.06 133.103C220.833 132.703 221.5 131.88 222.247 131.452C223.127 131.049 223.767 130.319 224.593 129.905C225.447 129.504 226.207 129.004 227.02 128.6C227.873 128.219 229.193 128.928 230.06 128.543C230.887 128.128 231.313 126.819 232.127 126.435C232.94 126.064 234.02 126.201 234.86 125.812C235.74 125.447 236.593 125.157 237.447 124.771C238.26 124.399 238.967 123.701 239.847 123.332C240.7 122.959 241.327 122.107 242.153 121.749C243.007 121.388 244.193 121.741 245.033 121.363C245.9 121.008 246.873 120.988 247.727 120.62C248.607 120.251 249.033 118.803 249.873 118.469C250.7 118.097 251.673 117.941 252.513 117.573C253.38 117.239 254.167 116.649 255.02 116.319C255.86 115.975 256.847 115.824 257.687 115.497C258.607 115.159 259.5 115.065 260.42 114.739C261.273 114.419 262.46 114.852 263.313 114.525C264.193 114.224 264.927 113.488 265.807 113.164C266.66 112.856 267.393 112.035 268.233 111.728C269.127 111.417 270.153 111.48 271.033 111.152C271.913 110.861 272.98 111.113 273.9 110.805C274.78 110.516 275.327 109.217 276.207 108.912C276.727 108.776 277.207 108.752 277.753 108.749V108.785C277.273 109.665 276.447 110.367 276.06 111.24C275.727 112.14 275.447 113.104 275.153 114.013C274.793 114.913 274.793 115.916 274.527 116.845C274.193 117.761 273.66 118.608 273.42 119.533C273.14 120.428 273.18 121.437 272.967 122.365C272.753 123.292 272.433 124.193 272.247 125.137C272.033 126.064 271.62 126.971 271.5 127.915C271.38 128.876 271.807 129.861 271.727 130.816C271.633 131.593 271.393 132.376 271.367 133.168C271.313 133.939 271.127 134.715 271.127 135.513C271.073 136.285 271.433 137.075 271.447 137.884C271.473 138.676 271.42 139.436 271.487 140.223C271.54 141.02 271.487 141.824 271.58 142.601C271.687 143.392 271.687 144.184 271.807 144.944C271.873 145.677 272.273 146.343 272.393 147.041C272.553 147.973 272.647 148.896 272.86 149.796C273.073 150.725 272.86 151.735 273.113 152.641C273.353 153.523 273.753 154.393 274.073 155.272C274.353 156.156 274.74 156.991 275.087 157.876C275.393 158.724 275.86 159.548 276.22 160.404C276.62 161.244 276.807 162.161 277.233 162.991C277.633 163.832 277.993 164.68 278.433 165.499C278.86 166.319 279.473 167.063 279.927 167.853C280.433 168.657 280.793 169.516 281.313 170.284C281.78 171.047 282.233 171.88 282.793 172.637C283.327 173.384 284.247 173.851 284.86 174.581C285.42 175.308 285.633 176.321 286.247 177.023C286.86 177.736 287.7 178.219 288.34 178.883C288.993 179.584 289.473 180.407 290.153 181.073C290.793 181.721 291.62 182.241 292.313 182.889C293.02 183.517 293.887 183.935 294.607 184.553C295.22 185.056 295.5 185.951 296.087 186.452C296.713 186.952 297.607 187.089 298.22 187.544C298.74 187.925 299.287 188.288 299.767 188.631C300.567 189.212 301.3 189.912 302.193 190.421C303.02 190.964 303.873 191.476 304.687 191.963C305.54 192.473 306.34 193.085 307.193 193.523C308.113 193.993 309.113 194.183 309.993 194.604C310.847 195.016 311.727 195.453 312.647 195.848C313.527 196.233 314.38 196.753 315.3 197.099C316.22 197.425 317.1 197.977 317.98 198.291C318.927 198.589 319.873 198.781 320.82 199.069C321.793 199.321 322.74 199.428 323.687 199.639C324.607 199.861 325.607 199.767 326.58 199.96C327.527 200.141 328.407 200.851 329.353 201.004C330.3 201.135 331.3 200.912 332.273 201.023C333.18 201.091 334.167 201.075 335.127 201.116C335.927 201.168 336.727 201.307 337.487 201.32C338.273 201.333 339.1 201.497 339.887 201.495C340.687 201.447 341.513 201.332 342.26 201.301C343.087 201.256 343.807 201.003 344.66 200.945C345.393 200.857 346.22 200.992 347.007 200.885C347.793 200.775 348.5 200.575 349.26 200.453C350.26 200.265 351.273 200.428 352.18 200.244C353.313 200.027 354.34 199.563 355.407 199.347C356.447 199.131 357.407 198.636 358.42 198.408C359.42 198.131 360.513 198.277 361.46 198.001C362.433 197.757 363.247 197.139 364.167 196.832C365.113 196.556 365.993 196.287 366.9 195.935C367.78 195.635 368.633 195.375 369.513 195.016C370.407 194.66 371.127 194.051 371.94 193.684C372.687 193.339 373.473 193.205 374.167 192.849C374.78 192.557 375.287 192.148 375.9 191.856C376.78 191.411 377.807 191.161 378.54 190.533C379.273 189.923 379.967 189.203 380.513 188.443C381.1 187.699 381.607 186.872 381.993 186.02C382.42 185.008 382.62 183.899 382.807 182.815C382.927 181.901 383.22 180.941 383.14 180.012C383.087 179.083 382.633 178.203 382.393 177.276ZM136.673 156.608C135.887 157.269 135.555 158.428 134.801 159.064C134.184 159.621 133.495 160.099 132.853 160.641C132.22 161.18 131.643 161.804 131.037 162.341C130.391 162.905 129.303 162.867 128.635 163.432C127.904 164.081 127.576 165.219 126.819 165.888C126.207 166.421 125.172 166.537 124.569 167.097C123.96 167.649 123.905 168.792 123.293 169.352C122.657 169.908 121.501 169.885 120.959 170.443C120.352 171.011 120.048 171.955 119.48 172.537C118.772 173.195 117.927 173.761 117.2 174.437C116.595 175.016 115.401 174.959 114.796 175.537C114.256 176.139 114.195 177.259 113.648 177.828C113.045 178.423 112.435 178.989 111.86 179.556C111.281 180.133 111.043 181.076 110.499 181.661C109.804 182.377 108.305 182.327 107.645 183.045C107.061 183.623 106.675 184.381 106.164 184.979C105.577 185.575 104.724 185.919 104.18 186.509C104.095 186.637 104 186.816 103.969 186.965C103.997 186.112 103.784 185.237 103.904 184.392C103.987 183.448 104.288 182.535 104.379 181.589C104.495 180.631 104.701 179.685 104.793 178.747C104.937 177.801 105.128 176.824 105.209 175.885C105.365 174.904 105.532 173.96 105.681 172.972C105.8 172.009 105.309 170.964 105.461 169.975C105.573 168.989 106.12 168.059 106.239 167.08C106.359 166.103 106.873 165.163 106.987 164.161C107.107 163.164 106.589 162.1 106.736 161.093C106.884 160.088 107.641 159.169 107.731 158.199C107.844 157.361 108.053 156.521 108.149 155.703C108.263 154.848 108.26 154.011 108.316 153.157C108.469 152.324 108.168 151.425 108.273 150.601C108.423 149.751 108.913 148.971 109.028 148.129C109.123 147.3 108.445 146.357 108.532 145.485C108.653 144.657 109.281 143.897 109.375 143.047C109.492 142.204 109.24 141.308 109.339 140.489C109.455 139.631 109.757 138.825 109.904 137.989C110.016 137.167 110.452 136.361 110.535 135.535C110.68 134.671 110.923 133.843 111.043 133.023C111.125 132.204 111.095 131.348 111.155 130.511C111.275 129.689 111.321 128.833 111.445 128.013C111.537 127.176 111.075 126.28 111.231 125.459C111.305 124.452 111.62 123.491 111.732 122.52C111.845 121.693 112.543 120.945 112.664 120.155C112.721 119.329 112.815 118.524 112.901 117.729C113.043 116.927 112.467 116.024 112.581 115.236C112.671 114.433 113.524 113.728 113.643 112.945C113.709 112.185 113.268 111.841 113.331 111.111C113.847 112.017 114.552 112.472 115.045 113.417C115.535 114.373 116.089 115.313 116.603 116.307C117.04 117.125 117.524 117.937 117.959 118.779C118.384 119.608 118.785 120.493 119.212 121.348C119.647 122.221 119.861 123.219 120.297 124.093C120.783 124.98 121.151 125.905 121.648 126.821C122.105 127.716 123.113 128.313 123.595 129.228C124.127 130.159 124.131 131.313 124.591 132.256C125.107 133.187 125.633 134.076 126.147 135.035C126.637 135.977 127.433 136.799 127.927 137.749C128.443 138.737 129.06 139.652 129.583 140.653C129.981 141.412 129.868 142.512 130.261 143.313C130.687 144.097 131.331 144.817 131.768 145.591C132.163 146.408 132.92 147.065 133.319 147.884C133.756 148.704 133.665 149.787 134.151 150.596C134.592 151.459 135.353 152.089 135.812 152.933C136.239 153.781 136.968 154.447 137.401 155.281C137.5 155.435 137.523 155.589 137.551 155.756C137.277 156.063 136.976 156.351 136.673 156.608Z" fill="#6EC72E"/>
</svg>
