<svg width="455" height="565" viewBox="0 0 455 565" fill="none" xmlns="http://www.w3.org/2000/svg">
<path d="M301.36 363.822H296.387V368.158H301.427C303.4 368.158 304.547 367.385 304.547 366.006V365.941C304.547 364.664 303.533 363.822 301.36 363.822Z" fill="white"/>
<path d="M303.573 357.201V357.135C303.573 355.857 302.56 355.117 300.613 355.117H296.387V359.252H300.48C302.467 359.252 303.573 358.58 303.573 357.201Z" fill="white"/>
<path d="M311.84 309.604H301.587V318.646H311.76C316.2 318.646 318.453 316.821 318.453 314.213V314.038C318.453 311.429 316.28 309.604 311.84 309.604Z" fill="white"/>
<path d="M86.4132 383.32H82.8132V396.084H86.4132C90.2266 396.084 92.8 393.513 92.8 389.763V389.701C92.8 385.951 90.2266 383.32 86.4132 383.32Z" fill="white"/>
<path d="M101.147 355.353H98.0798V361.57H101.173C103.493 361.57 104.907 360.361 104.907 358.512V358.445C104.907 356.429 103.493 355.353 101.147 355.353Z" fill="white"/>
<path d="M316.893 292.907V292.734C316.893 290.038 314.72 288.559 310.373 288.559H301.587V297.082H310.453C314.8 297.082 316.893 295.603 316.893 292.907Z" fill="white"/>
<path d="M183.587 355.521H179.32V361.166H183.627C185.84 361.166 187.12 360.091 187.12 358.378V358.31C187.12 356.462 185.773 355.521 183.587 355.521Z" fill="white"/>
<path d="M258.8 355.656H256.146V367.62H258.8C262.707 367.62 265.293 365.469 265.293 361.672V361.605C265.293 357.84 262.707 355.656 258.8 355.656Z" fill="white"/>
<path d="M135.173 383.32H131.573V389.792H135.266C137.6 389.792 138.96 388.401 138.96 386.587V386.525C138.96 384.439 137.507 383.32 135.173 383.32Z" fill="white"/>
<path d="M126.453 355.353H123.387V361.57H126.48C128.8 361.57 130.213 360.361 130.213 358.512V358.445C130.213 356.429 128.8 355.353 126.453 355.353Z" fill="white"/>
<path d="M154.013 355.285C150.453 355.285 148.066 358.176 148.066 361.57V361.638C148.066 365.033 150.52 367.99 154.08 367.99C157.68 367.99 160.053 365.1 160.053 361.705V361.638C160.053 358.244 157.613 355.285 154.013 355.285Z" fill="white"/>
<path d="M206.8 383.32H203.2V396.084H206.8C210.613 396.084 213.187 393.513 213.187 389.763V389.701C213.187 385.951 210.613 383.32 206.8 383.32Z" fill="white"/>
<path d="M363.293 364.125H368.573L365.946 357.437L363.293 364.125Z" fill="white"/>
<path d="M357.72 383.32H353.08V389.398H357.8C360.067 389.398 361.373 388.189 361.373 386.404V386.344C361.373 384.348 359.987 383.32 357.72 383.32Z" fill="white"/>
<path d="M135.107 154.343C134.64 153.499 133.88 152.869 133.44 152.005C132.96 151.197 133.04 150.113 132.613 149.295C132.213 148.476 131.453 147.819 131.053 147C130.613 146.227 129.973 145.507 129.546 144.723C129.16 143.924 129.267 142.823 128.867 142.063C128.347 141.063 127.733 140.148 127.213 139.16C126.72 138.209 125.92 137.387 125.44 136.444C124.92 135.487 124.4 134.597 123.88 133.665C123.413 132.724 123.413 131.569 122.88 130.639C122.4 129.724 121.387 129.125 120.933 128.231C120.44 127.316 120.067 126.391 119.587 125.503C119.147 124.629 118.933 123.632 118.507 122.759C118.08 121.904 117.667 121.019 117.24 120.189C116.813 119.347 116.333 118.536 115.893 117.717C115.373 116.723 114.827 115.783 114.333 114.828C113.84 113.883 113.133 113.428 112.613 112.521C112.56 113.252 113 113.596 112.933 114.356C112.813 115.139 111.96 115.843 111.867 116.647C111.76 117.435 112.333 118.336 112.187 119.14C112.107 119.935 112.013 120.74 111.946 121.564C111.826 122.356 111.133 123.104 111.027 123.931C110.907 124.901 110.6 125.863 110.52 126.869C110.36 127.691 110.827 128.587 110.733 129.424C110.613 130.244 110.56 131.099 110.44 131.921C110.387 132.76 110.413 133.613 110.333 134.435C110.213 135.253 109.973 136.081 109.827 136.944C109.733 137.772 109.307 138.577 109.187 139.399C109.04 140.236 108.747 141.041 108.627 141.899C108.533 142.719 108.787 143.615 108.667 144.457C108.573 145.308 107.947 146.068 107.827 146.895C107.733 147.768 108.413 148.711 108.32 149.54C108.2 150.381 107.707 151.161 107.56 152.011C107.453 152.835 107.76 153.733 107.6 154.567C107.547 155.421 107.547 156.259 107.44 157.112C107.347 157.932 107.133 158.772 107.013 159.609C106.933 160.58 106.173 161.497 106.027 162.503C105.88 163.509 106.4 164.576 106.28 165.572C106.16 166.573 105.653 167.513 105.533 168.491C105.413 169.469 104.866 170.399 104.746 171.385C104.6 172.375 105.093 173.42 104.973 174.383C104.827 175.371 104.653 176.315 104.493 177.296C104.413 178.236 104.226 179.212 104.08 180.157C103.986 181.096 103.787 182.041 103.667 182.999C103.573 183.944 103.28 184.859 103.187 185.803C103.067 186.648 103.28 187.523 103.253 188.376C103.293 188.225 103.387 188.048 103.467 187.92C104.013 187.329 104.867 186.985 105.453 186.388C105.96 185.792 106.347 185.033 106.933 184.455C107.6 183.739 109.093 183.787 109.787 183.072C110.333 182.487 110.573 181.544 111.146 180.967C111.72 180.399 112.333 179.832 112.933 179.239C113.48 178.668 113.546 177.549 114.08 176.947C114.693 176.369 115.88 176.427 116.493 175.848C117.213 175.171 118.067 174.605 118.773 173.947C119.333 173.365 119.64 172.421 120.24 171.853C120.787 171.296 121.947 171.319 122.587 170.763C123.2 170.203 123.253 169.059 123.853 168.507C124.453 167.947 125.493 167.831 126.107 167.299C126.867 166.629 127.187 165.492 127.92 164.841C128.587 164.276 129.68 164.316 130.32 163.752C130.933 163.215 131.506 162.591 132.146 162.052C132.786 161.508 133.467 161.032 134.093 160.475C134.84 159.837 135.173 158.68 135.96 158.019C136.267 157.761 136.56 157.475 136.84 157.165C136.813 156.999 136.787 156.844 136.693 156.692C136.253 155.857 135.52 155.192 135.107 154.343Z" fill="white"/>
<path d="M409.28 373.842C403.787 373.842 399.773 369.536 399.773 364.389V364.322C399.773 359.189 403.773 354.842 409.507 354.842C413.24 354.842 415.72 356.456 417.28 358.909L412.947 362.136C412.053 360.936 411.093 360.229 409.547 360.229C407.507 360.229 405.987 362.042 405.987 364.256V364.322C405.987 366.682 407.453 368.456 409.613 368.456C411.12 368.456 412.107 367.749 413.12 366.576L417.387 369.669C415.693 372.162 413.28 373.842 409.28 373.842ZM416.827 400.296H412.867L402.613 386.829V400.296H398V379.109H402.293L412.227 392.149V379.109H416.827V400.296ZM395.893 361.642H395.36C392.027 361.642 390.16 363.549 390.16 367.749V373.402H383.773V355.216H390.16V358.882C391.2 356.389 392.88 354.776 395.893 354.922V361.642ZM390.84 391.069C390.84 397.469 387.227 400.616 381.56 400.616C375.867 400.616 372.387 397.442 372.387 391.216V379.109H377.053V391.096C377.053 394.536 378.773 396.322 381.613 396.322C384.453 396.322 386.173 394.602 386.173 391.242V379.109H390.84V391.069ZM370.453 369.202H361.387L359.693 373.402H352.84L362.867 349.709H369.133L379.173 373.402H372.173L370.453 369.202ZM361.28 400.296L356.733 393.509H353.093V400.296H348.44V379.109H358.12C363.107 379.109 366.093 381.749 366.093 386.096V386.162C366.093 389.576 364.24 391.722 361.56 392.722L366.72 400.296H361.28ZM343.947 202.356C343.093 202.413 342.373 202.666 341.56 202.712C340.8 202.742 339.973 202.857 339.173 202.905C338.387 202.908 337.56 202.744 336.773 202.73C336.027 202.717 335.213 202.578 334.427 202.526C333.453 202.485 332.48 202.5 331.56 202.433C330.587 202.322 329.587 202.545 328.653 202.414C327.693 202.261 326.813 201.552 325.867 201.37C324.893 201.176 323.893 201.272 322.973 201.049C322.027 200.837 321.08 200.73 320.107 200.48C319.16 200.192 318.213 199.998 317.267 199.701C316.387 199.386 315.507 198.834 314.587 198.508C313.667 198.164 312.827 197.644 311.933 197.258C311.013 196.864 310.133 196.426 309.28 196.014C308.4 195.593 307.4 195.404 306.48 194.933C305.627 194.496 304.84 193.884 303.973 193.373C303.16 192.886 302.307 192.374 301.48 191.832C300.587 191.322 299.853 190.621 299.053 190.042C298.573 189.698 298.027 189.334 297.507 188.953C296.907 188.498 296 188.362 295.373 187.862C294.787 187.361 294.507 186.466 293.893 185.964C293.173 185.345 292.307 184.928 291.6 184.3C290.907 183.652 290.08 183.133 289.44 182.484C288.773 181.817 288.28 180.994 287.64 180.294C287 179.63 286.147 179.146 285.533 178.433C284.92 177.73 284.707 176.718 284.147 175.992C283.547 175.261 282.613 174.794 282.08 174.048C281.52 173.29 281.067 172.457 280.6 171.694C280.08 170.926 279.72 170.066 279.213 169.264C278.76 168.473 278.147 167.728 277.72 166.909C277.28 166.09 276.92 165.242 276.52 164.4C276.093 163.572 275.907 162.654 275.507 161.814C275.147 160.958 274.68 160.134 274.373 159.285C274.04 158.4 273.64 157.565 273.36 156.682C273.053 155.804 272.64 154.933 272.4 154.052C272.16 153.145 272.36 152.136 272.147 151.206C271.933 150.308 271.84 149.384 271.68 148.45C271.56 147.753 271.16 147.088 271.093 146.354C270.973 145.596 270.973 144.802 270.88 144.01C270.773 143.234 270.827 142.43 270.773 141.633C270.707 140.846 270.76 140.086 270.733 139.294C270.72 138.485 270.36 137.696 270.427 136.924C270.413 136.125 270.6 135.349 270.653 134.578C270.68 133.786 270.92 133.002 271.013 132.226C271.107 131.27 270.667 130.285 270.787 129.325C270.907 128.38 271.32 127.474 271.533 126.546C271.72 125.604 272.04 124.702 272.253 123.774C272.467 122.846 272.427 121.84 272.707 120.942C272.947 120.018 273.493 119.17 273.827 118.256C274.08 117.325 274.08 116.322 274.453 115.424C274.733 114.513 275.013 113.55 275.347 112.65C275.733 111.776 276.56 111.076 277.04 110.196V110.158C276.493 110.161 276.013 110.186 275.493 110.322C274.613 110.628 274.067 111.926 273.187 112.216C272.267 112.524 271.213 112.27 270.333 112.562C269.44 112.889 268.413 112.828 267.52 113.138C266.68 113.444 265.947 114.265 265.093 114.576C264.213 114.898 263.493 115.634 262.6 115.934C261.747 116.262 260.56 115.828 259.707 116.149C258.787 116.476 257.893 116.569 256.987 116.909C256.133 117.234 255.147 117.385 254.307 117.728C253.453 118.06 252.667 118.649 251.813 118.984C250.96 119.352 249.987 119.508 249.16 119.88C248.32 120.213 247.893 121.661 247.013 122.03C246.16 122.397 245.187 122.418 244.333 122.773C243.48 123.152 242.293 122.797 241.44 123.158C240.613 123.517 239.987 124.369 239.133 124.742C238.253 125.112 237.56 125.809 236.733 126.181C235.893 126.568 235.04 126.857 234.16 127.222C233.307 127.612 232.227 127.474 231.413 127.845C230.6 128.229 230.173 129.538 229.347 129.952C228.48 130.34 227.16 129.629 226.307 130.01C225.493 130.414 224.733 130.914 223.88 131.316C223.053 131.729 222.427 132.46 221.547 132.862C220.787 133.292 220.12 134.112 219.347 134.513C219.04 134.665 218.773 134.833 218.467 135.008C218.533 135.248 218.573 135.537 218.627 135.95C218.84 137.221 218.88 137.221 219.093 138.481C219.373 139.873 219.707 139.792 219.987 141.165C220.24 142.656 220.213 142.656 220.453 144.116C220.733 145.514 220.68 145.514 220.893 146.913C221.173 148.388 220.773 148.462 221.053 149.976C221.307 151.353 221.373 151.34 221.613 152.753C221.893 154.097 221.707 154.126 221.933 155.48C222.173 156.91 222.64 156.834 222.92 158.264C223.133 159.628 222.853 159.698 223.147 161.062C223.387 162.553 223.2 162.572 223.453 164.06C223.76 165.448 223.973 165.414 224.267 166.849C224.48 168.182 224.267 168.228 224.48 169.582C224.8 171.025 224.853 171.009 225.107 172.454C225.347 173.872 225.627 173.842 225.88 175.226C226.093 176.6 226.307 176.546 226.56 177.886C226.8 179.358 226.773 179.358 227.027 180.793C227.307 182.22 226.96 182.253 227.24 183.65C227.493 184.994 227.827 184.93 228.08 186.298C228.36 187.753 227.96 187.838 228.213 189.268C228.467 190.694 228.76 190.614 229.013 192.032C229.253 193.388 229.053 193.434 229.307 194.8C229.547 196.245 229.493 196.262 229.733 197.725C230.013 199.152 230.12 199.134 230.36 200.534C230.64 201.924 230.453 201.95 230.707 203.333C230.987 204.797 231.28 204.752 231.533 206.213C231.787 207.641 231.907 207.622 232.147 209.056C232.307 209.832 232.373 210.685 232.347 211.461C232.347 212.406 231.92 213.332 231.747 214.221C231.507 215.128 230.987 215.91 230.6 216.748C230.12 217.721 229.973 218.94 229.28 219.784C228.667 220.458 227.627 220.789 226.88 221.364C226.12 221.929 225.32 222.464 224.48 222.845C223.6 223.228 222.72 223.832 221.773 224.017C220.947 224.154 220.12 223.849 219.36 223.844C218.387 223.848 217.48 223.906 216.56 223.668C215.653 223.472 214.733 223.16 213.92 222.765C212.907 222.293 212.2 221.481 211.373 220.781C210.64 220.158 209.947 219.572 209.36 218.829C208.787 218.05 208.44 217.213 208.067 216.317C207.667 215.421 207.067 214.604 206.88 213.598C206.773 212.989 206.867 212.972 206.773 212.348C206.52 211.088 206.52 211.088 206.28 209.817C206.053 208.498 205.907 208.546 205.68 207.24C205.467 206.146 205.773 206.101 205.587 205.017C205.307 203.568 205.373 203.568 205.053 202.122C204.84 200.906 204.547 200.973 204.32 199.706C204.08 198.386 204.44 198.318 204.227 197C203.947 195.586 203.907 195.586 203.693 194.157C203.48 192.862 203.173 192.925 202.947 191.649C202.667 190.281 202.88 190.214 202.667 188.846C202.413 187.368 202.413 187.356 202.2 185.88C201.893 184.506 202.013 184.496 201.8 183.156C201.573 181.861 201.64 181.845 201.373 180.602C201.147 179.2 200.533 179.314 200.307 177.958C200 176.47 200.52 176.401 200.213 174.91C199.96 173.529 199.987 173.529 199.773 172.129C199.493 170.641 199.12 170.714 198.88 169.224C198.6 167.824 198.933 167.76 198.68 166.352C198.427 165.004 198.133 165.074 197.88 163.734C197.627 162.289 197.627 162.289 197.32 160.856C197.107 159.472 197.533 159.398 197.28 158.025C197.04 156.538 196.813 156.6 196.507 155.12C196.253 153.712 196.387 153.677 196.133 152.266C195.853 150.909 195.52 150.99 195.24 149.614C195.12 148.645 195.12 148.286 195.04 147.749C194.32 147.993 193.347 147.938 192.707 148.314C191.92 148.793 191.133 149.265 190.36 149.722C189.64 150.216 188.733 150.478 188 150.969C187.2 151.441 187 152.785 186.24 153.26C185.453 153.753 184.32 153.616 183.6 154.113C182.867 154.576 181.973 154.965 181.293 155.47C180.493 155.958 180.253 157.133 179.467 157.621C178.733 158.129 178.013 158.613 177.253 159.093C176.547 159.625 175.827 160.18 175.107 160.698C174.373 161.192 173.333 161.22 172.573 161.745C171.88 162.249 171.573 163.362 170.827 163.869C170.453 164.158 169.907 164.17 169.32 164.269C169.36 164.314 169.387 164.376 169.48 164.437C170.12 165.729 169.693 165.988 170.333 167.28C170.987 168.512 171.107 168.48 171.72 169.725C172.4 170.954 172.4 170.954 173.04 172.198C173.68 173.386 173.467 173.496 174.12 174.694C174.827 175.981 174.667 176.028 175.333 177.309C176.013 178.566 176.72 178.184 177.36 179.446C178 180.674 177.8 180.8 178.413 182.02C179.107 183.232 178.933 183.306 179.533 184.51C180.213 185.781 180.333 185.75 181.013 187.016C181.667 188.274 181.667 188.258 182.333 189.506C183 190.72 182.64 190.948 183.293 192.148C183.933 193.361 184.347 193.133 184.973 194.345C185.64 195.646 185.44 195.744 186.133 197.028C186.787 198.286 186.987 198.164 187.64 199.436C188.307 200.669 188.253 200.697 188.893 201.929C189.533 203.141 189.32 203.258 190 204.468C190.667 205.754 190.32 205.958 190.987 207.221C191.693 208.498 192.12 208.253 192.773 209.529C193.44 210.774 193.653 210.662 194.32 211.894C194.693 212.608 195.027 213.405 195.24 214.145C195.493 215.04 195.68 216.048 195.813 216.98C195.867 217.889 195.387 218.832 195.267 219.745C195.08 220.844 194.627 221.777 194.173 222.785C193.813 223.649 193.36 224.366 192.787 225.146C192.24 225.905 191.76 226.685 191.027 227.312C190.333 227.945 189.52 228.434 188.667 228.906C187.933 229.29 187.293 229.854 186.573 230.072C186.467 230.105 186.333 230.106 186.227 230.152L183.68 230.174C182.8 230.269 181.88 230.816 181 230.698C179.907 230.536 178.947 229.781 177.947 229.356C177.133 228.996 176.213 228.758 175.44 228.193C174.653 227.65 173.707 227.166 173.093 226.438C172.453 225.725 172.48 224.537 172.013 223.64C171.8 223.198 171.2 223.689 170.893 223.085C170.613 222.612 170.88 221.653 170.48 220.845C170.2 220.374 169.787 220.014 169.507 219.452C169.107 218.8 168.613 218.126 168.173 217.369C167.827 216.656 167.733 215.744 167.307 214.94C166.893 214.254 166.347 213.604 165.947 212.804C165.56 212.089 164.907 211.478 164.507 210.692C164.12 209.98 163.627 209.249 163.227 208.481C162.88 207.738 162.733 206.874 162.307 206.094C161.933 205.37 161.72 204.534 161.32 203.776C160.92 203.048 160 202.593 159.64 201.814C159.24 201.102 159.24 200.156 158.813 199.426C158.44 198.696 158.133 197.922 157.76 197.198C157.36 196.468 157.027 195.692 156.627 194.964C156.28 194.25 155.493 193.726 155.107 193.005C154.733 192.285 154.547 191.44 154.173 190.724C153.8 190.012 153.347 189.341 152.987 188.63C152.613 187.91 151.907 187.358 151.573 186.618C151.08 185.701 151.04 184.541 150.547 183.584C150.04 182.673 149.907 181.548 149.387 180.604C149.28 180.406 149.2 180.228 149.107 180.028C148.947 180.109 148.773 180.229 148.627 180.332C147.867 180.992 147.507 182.054 146.72 182.745C145.947 183.386 144.72 183.542 144.013 184.198C143.253 184.89 142.92 186.078 142.227 186.769C141.44 187.414 140.68 188.082 139.973 188.772C139.227 189.442 138.213 189.841 137.493 190.534C136.76 191.234 135.72 191.588 135.027 192.273C134.307 192.981 133.973 194.074 133.24 194.765C132.547 195.482 131.707 196.018 131 196.726C130.293 197.42 129.6 198.137 128.88 198.844C128.24 199.558 127.013 199.778 126.333 200.496C125.627 201.213 125.293 202.24 124.6 202.96C123.933 203.676 123.933 205.014 123.267 205.732C122.573 206.449 121.533 206.822 120.907 207.566C120.227 208.282 119.453 208.88 118.773 209.612C118.107 210.349 117.96 211.474 117.293 212.234C116.693 212.994 115.413 213.186 114.773 213.922C114.173 214.676 113.907 215.72 113.293 216.472C112.693 217.217 111.48 217.496 110.867 218.25C110.253 219.026 110.547 220.484 109.96 221.244C109.36 221.996 108.907 222.85 108.333 223.63C107.747 224.418 106.787 224.88 106.2 225.665C105.627 226.441 104.56 226.828 103.987 227.621C103.413 228.398 102.627 229.009 102.107 229.806C101.573 230.609 102.027 232.105 101.52 232.893C100.973 233.673 100.293 234.38 99.7867 235.166C99.2134 235.952 97.9999 236.301 97.4799 237.08C96.9733 237.906 97.4533 239.308 96.9466 240.112C96.7066 240.553 96.0933 240.802 95.5466 241.05C95.3999 241.461 95.2133 241.856 94.9466 242.209C94.7333 242.606 94.4534 242.926 94.1867 243.272C94.1867 243.729 94.2 244.188 93.92 244.461C93.6134 244.849 93 244.948 92.4 245.081C91.8533 245.569 91.3334 245.994 90.72 246.396C89.9067 246.882 89.2133 247.712 88.3333 248.018C87.4133 248.322 86.3468 248.04 85.4401 248.138C84.4668 248.242 83.4268 248.872 82.4268 248.738C82.0935 248.7 81.7866 248.472 81.4799 248.244C81.0133 248.276 80.56 248.293 80.2 248.16C79.5333 247.961 78.8933 247.585 78.2799 247.221C77.9733 247.161 77.6667 247.1 77.4534 246.952C76.6267 246.457 75.9602 245.69 75.2935 245.017C74.4935 244.294 73.5735 243.552 72.9602 242.625C72.4668 241.838 72.5867 240.709 72.2534 239.812C71.9734 238.918 71.6933 238.004 71.6 237.046C71.5067 236.1 71.2933 235.097 71.4133 234.109C71.5199 233.345 71.4134 233.318 71.52 232.54C71.4267 232.269 71.4267 231.994 71.52 231.768C71.5867 231.538 71.7333 231.37 71.8799 231.21C71.9466 231.05 71.9734 230.862 71.9734 230.637C72.1734 229.277 72.2133 229.277 72.4133 227.942C72.5733 226.568 72.4135 226.544 72.5602 225.188C72.7335 223.996 72.9867 224.022 73.1333 222.848C73.28 221.605 73.3202 221.605 73.4935 220.344C73.6402 218.986 73.3468 218.952 73.5734 217.61C73.7201 216.394 73.3868 216.352 73.5602 215.134C73.7335 213.838 74.2267 213.897 74.4 212.566C74.5733 211.14 74.9467 211.2 75.12 209.78C75.3067 208.49 75.1735 208.456 75.3602 207.161C75.5202 205.78 75.5066 205.78 75.6799 204.345C75.8533 203.034 76.0666 203.066 76.2133 201.762C76.3999 200.37 75.48 200.252 75.6534 198.833C75.8267 197.514 76.16 197.525 76.32 196.233C76.4934 194.781 77.1066 194.876 77.2799 193.445C77.4533 192.098 76.5733 191.985 76.7466 190.612C76.9199 189.349 77.4534 189.421 77.5867 188.128C77.7734 186.745 77.5201 186.713 77.7068 185.312C77.8801 184.001 78.4668 184.078 78.6401 182.75C78.7734 181.321 78.5333 181.304 78.7466 179.857C78.9333 178.502 78.8668 178.502 79.0401 177.126C79.2268 175.836 79.28 175.852 79.4534 174.549C79.64 173.125 79.8135 173.142 80.0268 171.724C80.1735 170.386 79.5068 170.3 79.6935 168.934C79.8535 167.629 80.3202 167.706 80.4935 166.392C80.6668 164.977 80.3334 164.946 80.5068 163.526C80.7201 162.18 81.1467 162.248 81.3333 160.881C81.4933 159.556 81.4799 159.556 81.6799 158.228C81.8533 156.84 82.0402 156.857 82.2268 155.44C82.3335 154.09 82.0268 154.022 82.2401 152.672C82.4134 151.346 82.2266 151.33 82.4133 150.006C82.5866 148.597 82.8268 148.604 83.0401 147.186C83.1868 145.82 83.3066 145.82 83.4799 144.444C83.6533 143.093 83.6933 143.093 83.8667 141.764C84.0533 140.316 83.8 140.292 83.9867 138.873C84.1867 137.476 84.1867 137.476 84.3333 136.068C84.48 134.698 84.2799 134.682 84.4799 133.317C84.6266 131.992 84.6001 131.992 84.7734 130.645C84.9734 129.232 84.6399 129.201 84.8133 127.788C84.9999 126.397 85.6 126.489 85.7867 125.089C85.9067 123.748 86.2266 123.758 86.4133 122.44C86.5866 120.992 85.8667 120.904 86.0667 119.465C86.2533 118.052 86.2799 118.052 86.4799 116.64C86.6666 115.265 86.8399 115.298 87.0133 113.908C87.1999 112.566 87.0135 112.552 87.2268 111.201C87.4002 109.77 87.3733 109.77 87.4799 108.322C87.6533 106.922 87.6534 106.922 87.8401 105.506C88.0134 104.146 88.2001 104.164 88.3734 102.79C88.5868 101.437 89.1066 101.513 89.2799 100.156C89.4933 98.7369 89.3333 98.7102 89.5466 97.2902C89.6933 95.8716 89.2399 95.8036 89.4133 94.4142C89.6133 93.0142 89.68 93.0249 89.8534 91.6743C90 90.3063 90.4001 90.3489 90.5734 89.0089C90.7601 87.5436 90.7602 87.5822 90.9602 86.1476C91.1335 84.7169 91.1733 84.7169 91.3466 83.3156C91.5333 81.9129 91.56 81.9129 91.7333 80.5383C91.9467 79.1676 91.1868 79.0942 91.3602 77.7262C91.5335 76.2796 91.9868 76.3249 92.1734 74.8743C92.3734 73.4583 91.9467 73.4316 92.12 71.9969C92.3067 70.5929 92.8268 70.6729 93.0268 69.2729C93.1602 68.5249 92.8267 67.6996 93.0534 66.9849C93.32 66.2396 93.8267 65.5702 94.2 64.8929C94.6267 64.0582 94.9868 63.0809 95.5602 62.3956C96.2002 61.6756 96.9599 60.9756 97.6799 60.4076C98.4399 59.8583 99.5467 59.8796 100.453 59.4969C101.333 59.1156 102.187 58.8062 103.133 58.6329C103.907 58.4969 104.613 58.6449 105.347 58.6422C106.133 58.6382 106.987 57.9729 107.773 58.1129C108.667 58.2836 109.333 59.2702 110.213 59.6289C111.067 59.9889 112.2 59.8916 112.96 60.4369C113.733 60.9969 114.4 61.7263 115.053 62.4716C115.653 63.1849 116.267 64.0022 116.72 64.8542C117.067 65.5169 117.133 65.4916 117.467 66.1476C117.893 67.0169 117.56 67.1969 118.053 68.0782C118.693 69.2902 118.933 69.1556 119.587 70.3542C120.227 71.5676 120.067 71.6742 120.72 72.9196C121.24 73.9622 121.64 73.7409 122.187 74.7676C122.8 75.9116 122.733 75.9436 123.347 77.0822C123.933 78.2849 123.293 78.6396 123.933 79.8396C124.52 80.9289 125.013 80.6529 125.547 81.7636C126.173 82.9222 125.84 83.1142 126.453 84.2982C127.107 85.5662 127.56 85.3222 128.227 86.5916C128.84 87.7516 128.933 87.7063 129.547 88.8743C130.227 90.1183 130.227 90.1183 130.867 91.3663C131.48 92.5463 130.933 92.8129 131.533 93.9916C132.227 95.2382 132.4 95.1782 133.08 96.4209C133.693 97.5902 134.08 97.3769 134.707 98.5622C135.373 99.8422 134.707 100.194 135.373 101.474C136 102.669 136.48 102.425 137.093 103.638C137.707 104.781 137.827 104.718 138.44 105.89C139.053 107.116 139.147 107.058 139.827 108.317C140.44 109.469 139.92 109.717 140.533 110.914C141.213 112.196 141.12 112.241 141.787 113.512C142.44 114.718 142.733 114.565 143.387 115.777C144.027 116.949 143.667 117.116 144.267 118.298C144.92 119.561 145.44 119.276 146.107 120.552C146.747 121.732 146.72 121.765 147.373 122.962C147.973 124.132 147.973 124.132 148.653 125.304C149.28 126.562 149.387 126.47 150.04 127.72C150.747 128.945 150.16 129.218 150.827 130.406C151.427 131.604 151.88 131.377 152.493 132.533C153.133 133.809 152.613 134.073 153.293 135.342C153.907 136.562 154.547 136.242 155.187 137.457C155.787 138.628 155.787 138.64 156.413 139.809C156.96 140.845 156.627 141.288 156.813 142.096C157.547 141.608 158.587 141.604 159.24 141.125C160.067 140.544 160.8 139.778 161.613 139.197C162.32 138.72 163.04 138.265 163.707 137.776C164.44 137.28 165.08 136.716 165.747 136.228C166.48 135.752 166.947 134.934 167.627 134.486C168.533 133.929 169.387 133.385 170.24 132.834C170.96 132.356 172.213 132.765 172.92 132.32C173.68 131.845 174.4 131.417 175.107 130.966C175.827 130.513 176.187 129.474 176.92 129.029C177.773 128.494 178.347 127.428 179.227 126.889C179.96 126.46 181.267 127.009 182.027 126.556C182.76 126.13 183 124.841 183.693 124.41C184.613 123.901 185.88 124.06 186.76 123.552C187.52 123.109 187.947 122.165 188.747 121.744C189.16 121.462 189.76 121.37 190.32 121.246C190.093 120.012 190.2 119.906 189.973 118.568C189.693 117.18 189.52 117.218 189.28 115.845C189.053 114.373 189.413 114.288 189.133 112.844C188.907 111.414 188.587 111.445 188.32 110.033C188.2 109.224 188.413 108.452 188.413 107.676C188.4 106.736 188.467 105.818 188.68 104.932C188.88 104.004 189 103.06 189.36 102.22C189.84 101.246 190.72 100.574 191.453 99.7449C192.053 99.0276 192.667 98.3889 193.427 97.8222C194.187 97.2569 194.92 96.7076 195.8 96.3182C196.68 95.9449 197.613 95.6743 198.587 95.5023C199.373 95.3476 200.12 95.3449 200.907 95.3422C201.88 95.3396 202.76 95.4756 203.627 95.6636C204.56 95.8889 205.387 96.1916 206.213 96.6302C207.187 97.0836 208.04 97.6702 208.867 98.3902C209.56 98.9889 210.573 99.3356 211.16 100.094C211.733 100.856 211.947 101.86 212.32 102.741C212.72 103.62 213.307 104.506 213.467 105.492C213.547 106.13 213.213 106.208 213.333 106.83C213.52 107.956 213.773 108.049 213.987 108.893C214.36 108.806 214.693 108.7 215.027 108.546C215.933 108.084 216.84 107.546 217.76 107.122C218.547 106.733 219.24 106.108 220 105.768C220.8 105.386 221.307 104.426 222.093 104.056C222.853 103.705 223.933 103.84 224.653 103.468C225.48 103.113 226.627 103.556 227.4 103.196C228.373 102.788 228.747 101.158 229.733 100.738C230.52 100.374 231.547 100.578 232.347 100.228C233.133 99.9062 234.053 99.8356 234.827 99.5156C235.653 99.1836 236.387 98.6116 237.173 98.2876C238.12 97.8902 239.28 97.8849 240.187 97.5182C241.187 97.1196 242.013 96.4009 242.987 96.0116C243.96 95.6196 244.867 95.1089 245.84 94.7396C246.813 94.3569 247.72 93.8516 248.693 93.4942C249.667 93.1116 250.653 92.6502 251.653 92.2836C252.587 91.9289 253.587 91.6636 254.587 91.2956C255.573 90.9396 256.693 90.9862 257.667 90.6289C258.667 90.2916 259.733 90.2583 260.733 89.9023C261.733 89.5516 262.4 88.2956 263.387 87.9729C264.387 87.6396 265.427 87.4622 266.413 87.1422C267.413 86.8196 268.467 86.6463 269.467 86.3356C270.467 85.9983 271.52 85.8969 272.507 85.5663C273.507 85.2609 274.573 85.0836 275.547 84.7769C276.547 84.4742 277.187 83.0369 278.213 82.7236C279.227 82.4182 280.547 83.2022 281.547 82.8956C282.533 82.5916 283.2 81.2596 284.213 80.9729C285.24 80.6609 286.4 80.9289 287.44 80.6422C288.44 80.3409 289.293 79.5169 290.293 79.2262C291.293 78.9636 292.48 79.2476 293.48 78.9689C294.52 78.6943 295.36 77.9262 296.373 77.6489C297.413 77.3982 298.693 78.1676 299.693 77.9249C300.72 77.6756 301.493 76.4249 302.52 76.1956C303.52 75.9422 304.773 76.5502 305.773 76.2876C306.787 76.0449 307.667 75.0822 308.667 74.8302C309.667 74.6009 310.893 75.2582 311.92 75.0249C312.96 74.8022 313.893 74.0969 314.907 73.8649C315.72 73.6756 316.613 73.5502 317.44 73.3849C318 73.1369 318.613 72.8796 319.227 72.7023H319.253C319.8 72.3663 320.32 72.0196 320.893 71.9076C321.92 71.6943 322.987 71.5783 324.053 71.3743C324.507 71.2703 324.813 71.0983 324.973 71.0676C325.36 71.0103 325.813 71.1249 326.24 71.2182C326.467 71.1222 326.707 71.0929 326.92 71.0436C327.547 70.9529 328.227 71.0556 328.84 71.0836C329.173 71.0676 329.413 71.0516 329.72 71.0036C329.84 70.9916 329.933 70.9916 330.053 70.9916C330.84 70.8342 331.6 70.5409 332.36 70.4369C333.28 70.3223 334.16 70.3182 334.987 70.2262C336.013 70.1076 336.987 69.6209 337.987 69.5716C339 69.4783 340 69.6089 340.947 69.5756C341.947 69.5302 342.933 69.5796 343.893 69.5756C344.413 69.5929 344.987 69.5916 345.533 69.5889C346 69.3396 346.427 69.0983 346.907 69.1409C347.667 69.1476 348.467 69.6369 349.253 69.8636C349.467 69.8742 349.693 69.8956 349.867 69.9409C350.907 69.9969 352.027 69.7729 353.067 69.8836C353.853 69.9862 354.68 70.1956 355.387 70.4369C356.333 70.6903 357.053 71.3556 357.853 71.8129C358.427 72.1289 359.013 72.4756 359.533 72.8542C359.813 72.9609 360.08 73.0649 360.253 73.2649C361.08 74.0036 362.067 74.7036 362.68 75.6102C362.893 75.9622 362.893 76.4289 362.893 76.9063C363.133 77.3609 363.387 77.8129 363.573 78.3316C363.907 79.2289 364.013 80.2076 364.133 81.1609C364.227 82.1009 364.413 83.0929 364.32 84.0942C364.267 84.3249 364.213 84.5436 364.147 84.7822C364.08 85.3636 364.053 85.9449 363.933 86.4862C363.627 87.3729 363.373 88.3356 362.853 89.1462C362.4 89.9502 361.573 90.5809 360.973 91.2476C360.2 92.0649 359.48 92.9263 358.573 93.5316C357.973 93.8943 357.333 94.0609 356.627 94.2516C356.413 94.3729 356.2 94.5236 355.893 94.5876C355.867 94.6396 355.813 94.6396 355.68 94.6556L353.253 94.9063H353.067C352.987 94.9063 352.893 94.9076 352.787 94.9422C351.947 95.1849 351 95.9809 350.147 95.9036L348.72 95.4409C348.507 95.3583 348.293 95.3036 348.067 95.2876C347.293 95.2222 346.52 95.2342 345.733 95.2262C345.28 95.2116 344.72 94.9396 344.24 94.7249C343.96 94.7262 343.693 94.7476 343.387 94.7489C343.027 94.7742 342.653 94.7183 342.267 94.7076C341.733 94.8276 341.133 94.9983 340.587 95.0409C340.16 95.0609 339.76 94.9916 339.333 94.9476C338.88 95.0956 338.453 95.2556 338.04 95.3182C337.147 95.4022 336.267 95.2449 335.32 95.3542C335.08 95.3849 334.8 95.4116 334.507 95.4529C333.987 95.8729 333.413 96.5009 332.733 96.5983C331.8 96.7703 330.813 96.8942 329.787 97.0782C329.387 97.1302 329 96.8356 329 96.8356C328.653 96.9196 328.267 96.7929 327.867 96.7102C327.653 96.7676 327.44 96.7969 327.253 96.8422C326.747 96.9849 326.253 97.0449 325.747 97.1449C325.427 97.2956 325.12 97.4036 324.827 97.4663C324.52 97.5383 324.28 97.6369 324 97.7596C323.613 98.0342 323.187 98.2929 322.733 98.4889C322 98.7809 321.187 98.9862 320.48 99.3596C319.72 99.7062 319.013 100.181 318.32 100.582C317.653 100.948 317.093 101.622 316.4 102.066C315.533 102.588 314.707 103.101 313.92 103.702C313.093 104.282 312.227 104.724 311.453 105.405C310.733 106.033 309.973 106.682 309.24 107.392C308.547 108.09 307.827 108.764 307.16 109.522C306.493 110.258 306.067 111.208 305.427 112.001C304.827 112.765 304.213 113.558 303.64 114.384C303.187 115.04 302.64 115.592 302.24 116.241C301.707 117.058 301.213 117.848 300.76 118.676C300.307 119.506 299.64 120.26 299.253 121.086C298.853 121.937 298.627 122.837 298.32 123.708C297.96 124.57 297.773 125.486 297.48 126.358C297.2 127.24 297.147 128.168 296.88 129.065C296.733 129.966 296.613 130.856 296.467 131.758C296.32 132.676 295.653 133.506 295.56 134.418C295.467 135.48 295.44 136.565 295.453 137.642C295.453 138.697 295.64 139.788 295.733 140.856C295.827 141.92 296.347 142.934 296.507 143.974C296.627 144.704 296.453 145.497 296.64 146.226C296.867 147.154 297.467 147.98 297.747 148.853C298.08 149.74 298.267 150.712 298.64 151.561C299.013 152.442 299.373 153.313 299.867 154.164C300.293 155.01 300.64 155.889 301.147 156.71C301.68 157.518 302.267 158.274 302.84 159.064C303.427 159.85 303.853 160.734 304.48 161.465C305.107 162.236 305.96 162.77 306.667 163.482C307.333 164.194 307.8 165.153 308.56 165.821C309.267 166.48 310.08 167.104 310.84 167.73C311.667 168.345 312.747 168.54 313.56 169.149C314.147 169.525 314.64 170.06 315.147 170.433C315.827 170.861 316.44 171.369 317.12 171.754C317.96 172.222 318.84 172.577 319.667 172.99C320.52 173.397 321.467 173.638 322.32 173.997C323.173 174.376 324 174.785 324.907 175.101C325.76 175.397 326.707 175.49 327.6 175.71C328.547 175.958 329.36 176.274 330.24 176.469C331.16 176.644 332.04 176.958 332.92 177.08C333.813 177.216 334.72 177.329 335.6 177.377C336.56 177.445 337.44 177.458 338.347 177.454C339.227 177.452 340.12 177.704 341.027 177.645C342.053 177.546 343.093 177.313 344.107 177.128C344.773 176.998 345.493 176.969 346.147 176.849C346.933 176.673 347.667 176.402 348.387 176.272C349.24 176.07 350.093 175.808 350.92 175.574C351.827 175.409 352.56 175.009 353.347 174.793C354.32 174.53 355.293 174.469 356.173 174.192C357.053 173.878 357.88 173.374 358.787 173.054C359.667 172.682 360.68 172.665 361.627 172.244C362.387 171.893 363.04 171.269 363.773 170.861C364.533 170.504 365.227 170.21 366.027 169.997C366.973 169.729 367.893 169.725 368.827 169.65C369.773 169.618 370.707 169.458 371.627 169.622C372.693 169.772 373.76 170.132 374.76 170.569C375.587 170.948 376.347 171.585 377.08 172.158C377.827 172.737 378.613 173.293 379.227 174.037C379.84 174.792 380.333 175.634 380.813 176.516C381.12 177.228 381.453 177.949 381.68 178.688C381.92 179.613 382.387 180.493 382.427 181.422C382.52 182.352 382.213 183.312 382.093 184.224C381.907 185.309 381.707 186.418 381.28 187.43C380.893 188.281 380.387 189.109 379.813 189.853C379.253 190.612 378.56 191.332 377.827 191.942C377.093 192.572 376.067 192.821 375.187 193.266C374.573 193.557 374.067 193.968 373.453 194.26C372.76 194.614 371.973 194.75 371.227 195.094C370.413 195.461 369.693 196.07 368.8 196.426C367.92 196.784 367.067 197.045 366.187 197.344C365.28 197.697 364.4 197.966 363.453 198.242C362.547 198.549 361.733 199.166 360.747 199.412C359.8 199.688 358.707 199.541 357.707 199.818C356.693 200.046 355.733 200.542 354.693 200.757C353.627 200.974 352.6 201.437 351.467 201.654C350.56 201.837 349.56 201.674 348.547 201.864C347.787 201.985 347.093 202.185 346.293 202.296C345.507 202.404 344.68 202.268 343.947 202.356ZM338.893 317.162C338.893 326.909 330.893 334.042 315.507 334.042H281.773V273.176H315.84C324.28 273.176 329.573 275.082 333.16 278.642C335.333 280.816 336.893 283.949 336.893 288.122V288.296C336.893 295.522 332.547 299.949 326.013 302.216C333.84 304.469 338.893 308.642 338.893 316.989V317.162ZM329.093 364.496V373.402H322.533V364.589L313.587 349.869H321.013L325.867 358.442L330.72 349.869H338.013L329.093 364.496ZM323.467 391.856V400.296H318.827V391.936L310.667 379.109H316.12L321.173 387.616L326.32 379.109H331.613L323.467 391.856ZM310.867 400.296H295.653V379.109H300.293V396.056H310.867V400.296ZM311.067 366.842V366.909C311.067 370.949 307.787 373.402 302.173 373.402H290.027V349.869H302.107C305.053 349.869 307.133 350.616 308.507 351.989C309.453 352.936 310.013 354.176 310.013 355.789V355.856C310.013 358.576 308.467 360.189 306.387 361.096C309.253 362.042 311.067 363.656 311.067 366.842ZM289.667 383.416H283.213V400.296H278.56V383.416H272.12V379.109H289.667V383.416ZM271.987 361.576C271.987 368.362 267.027 373.402 258.56 373.402H249.627V349.869H258.693C267.107 349.869 271.987 354.709 271.987 361.509V361.576ZM266.12 400.296H262.16L251.893 386.829V400.296H247.293V379.109H251.613L261.533 392.149V379.109H266.12V400.296ZM243.613 373.402H224.533V349.869H243.453V355.416H230.987V358.989H242.28V364.122H230.987V367.856H243.613V373.402ZM240.733 400.296H224.613V379.109H240.587V383.256H229.24V387.549H239.227V391.696H229.24V396.149H240.733V400.296ZM194.28 306.736V273.176H214.987V306.469C214.987 314.042 218.893 317.256 224.36 317.256C229.84 317.256 233.773 314.296 233.773 306.909V273.176H254.453V306.296C254.453 327.082 242.36 335.256 224.2 335.256C206.013 335.256 194.28 326.909 194.28 306.736ZM218.987 355.589H211.92V373.402H205.387V355.589H198.333V349.869H218.987V355.589ZM218.053 389.696C218.053 395.656 213.453 400.296 206.8 400.296H198.547V379.109H206.8C213.453 379.109 218.053 383.682 218.053 389.642V389.696ZM186.907 373.402L182.173 366.282H179.32V373.402H172.787V349.869H183.92C187.507 349.869 190 350.816 191.573 352.429C192.96 353.776 193.667 355.589 193.667 357.909V357.976C193.667 361.576 191.76 363.962 188.84 365.202L194.453 373.402H186.907ZM191.053 400.296H187.093L176.827 386.829V400.296H172.227V379.109H176.533L186.453 392.149V379.109H191.053V400.296ZM171.24 334.042H122.28V273.176H142.627V316.642H171.24V334.042ZM166.72 361.642C166.72 368.389 161.28 373.869 154 373.869C146.76 373.869 141.387 368.456 141.387 361.709V361.642C141.387 354.882 146.827 349.402 154.067 349.402C161.333 349.402 166.72 354.816 166.72 361.576V361.642ZM165.667 400.296H149.547V379.109H165.507V383.256H154.173V387.549H164.16V391.696H154.173V396.149H165.667V400.296ZM143.667 386.496C143.667 391.389 139.867 393.936 135.12 393.936H131.573V400.296H126.907V379.109H135.56C140.613 379.109 143.667 382.109 143.667 386.429V386.496ZM123.387 366.682V373.402H116.88V349.869H126.947C132.893 349.869 136.733 352.936 136.733 358.149V358.216C136.733 363.749 132.453 366.682 126.613 366.682H123.387ZM120.347 400.296H104.227V379.109H120.213V383.256H108.867V387.549H118.84V391.696H108.867V396.149H120.347V400.296ZM98.0935 366.682V373.402H91.5602V349.869H101.653C107.587 349.869 111.44 352.936 111.44 358.149V358.216C111.44 363.749 107.16 366.682 101.32 366.682H98.0935ZM97.6667 389.696C97.6667 395.656 93.0667 400.296 86.4 400.296H78.1602V379.109H86.4C93.0667 379.109 97.6667 383.682 97.6667 389.642V389.696ZM63.1068 363.082V349.869H69.72V362.949C69.72 366.349 71.44 367.962 74.0534 367.962C76.6667 367.962 78.3867 366.416 78.3867 363.122V349.869H85V362.909C85 370.509 80.6667 373.842 73.9867 373.842C67.2934 373.842 63.1068 370.442 63.1068 363.082ZM70.6534 400.296H66.6799L56.4401 386.829V400.296H51.8401V379.109H56.12L66.0534 392.149V379.109H70.6534V400.296ZM37.0133 369.909L40.6534 365.576C42.96 367.416 45.5599 368.389 48.2799 368.389C50.0133 368.389 50.9602 367.789 50.9602 366.776V366.709C50.9602 365.736 50.2 365.202 47 364.456C42 363.322 38.12 361.909 38.12 357.069V357.002C38.12 352.629 41.5868 349.469 47.2268 349.469C51.2268 349.469 54.3468 350.549 56.9068 352.602L53.6534 357.202C51.5067 355.696 49.16 354.882 47.0534 354.882C45.4934 354.882 44.72 355.549 44.72 356.389V356.456C44.72 357.536 45.5067 358.002 48.7867 358.749C54.2 359.922 57.5602 361.669 57.5602 366.069V366.136C57.5602 370.949 53.7602 373.802 48.0268 373.802C43.8802 373.802 39.8933 372.496 37.0133 369.909ZM44.12 400.296H39.4534V379.109H44.12V400.296ZM37.1602 303.602C37.1602 285.429 51.3334 271.869 69.5068 271.869C82.8934 271.869 91.9467 278.389 97.0667 287.696L80.2799 297.522C78.0133 293.176 74.8001 290.122 69.2401 290.122C62.3868 290.122 57.8401 296.122 57.8401 303.429V303.602C57.8401 311.522 62.5601 317.082 69.2401 317.082C74.9868 317.082 78.2 313.949 80.72 309.429L97.5068 318.909C92.3601 327.949 83.84 335.336 68.72 335.336C51.84 335.336 37.1602 322.642 37.1602 303.776V303.602ZM415.76 280.389L405.84 294.122C400.107 289.949 393.227 288.122 387.573 288.122C384.547 288.122 383.16 289.176 383.16 290.642V290.816C383.16 292.469 384.8 293.522 391.227 294.736C406.8 297.602 417.227 302.122 417.227 314.389V314.562C417.227 327.336 406.72 335.162 390.36 335.162C378.013 335.162 366.893 331.696 359.16 324.909L370.013 311.949C376.627 316.989 384.2 319.082 391.333 319.082C394.987 319.082 396.547 318.122 396.547 316.469V316.296C396.547 314.562 394.627 313.602 388.107 312.296C374.453 309.522 362.453 305.602 362.453 292.736V292.562C362.453 280.989 371.507 272.042 388.28 272.042C400.013 272.042 408.72 274.816 415.76 280.389ZM0 0.628877V461.096L227.2 564.829L454.4 461.096V0.628877H0Z" fill="white"/>
</svg>
