<svg width="200" height="200" viewBox="0 0 200 200" fill="none" xmlns="http://www.w3.org/2000/svg">
<g clip-path="url(#clip0_3392_478)">
<rect width="200" height="200" fill="#FDDD00"/>
<path d="M31.7041 54.9346H35.6006V66.1113C35.6006 67.4297 35.2979 68.5479 34.6924 69.4658C34.0967 70.374 33.2666 71.0625 32.2021 71.5312C31.1475 72 29.9268 72.2344 28.54 72.2344C27.1533 72.2344 25.9277 72 24.8633 71.5312C23.7988 71.0625 22.9639 70.374 22.3584 69.4658C21.7627 68.5479 21.4648 67.4297 21.4648 66.1113V54.9346H25.332V66.1113C25.332 66.8242 25.459 67.4102 25.7129 67.8691C25.9766 68.3281 26.3477 68.665 26.8262 68.8799C27.3047 69.0947 27.876 69.2021 28.54 69.2021C29.2139 69.2021 29.7852 69.0947 30.2539 68.8799C30.7227 68.665 31.0791 68.3281 31.3232 67.8691C31.5771 67.4102 31.7041 66.8242 31.7041 66.1113V54.9346ZM53.3621 54.9346V72H49.4803L42.2586 60.6768V72H38.3768V54.9346H42.2586L49.4803 66.2578V54.9346H53.3621ZM65.8355 67.4883C65.8355 67.1855 65.777 66.9121 65.6598 66.668C65.5523 66.4238 65.3717 66.2041 65.1178 66.0088C64.8639 65.8135 64.5123 65.6279 64.0631 65.4521C63.6236 65.2764 63.0719 65.1104 62.4078 64.9541C61.3629 64.7002 60.4498 64.4219 59.6686 64.1191C58.8873 63.8164 58.233 63.46 57.7057 63.0498C57.1881 62.6396 56.7975 62.1562 56.5338 61.5996C56.2799 61.0332 56.1529 60.374 56.1529 59.6221C56.1529 58.8994 56.3092 58.2402 56.6217 57.6445C56.9439 57.0391 57.3932 56.5166 57.9693 56.0771C58.5553 55.6377 59.2438 55.3008 60.0348 55.0664C60.8355 54.8223 61.7096 54.7002 62.6568 54.7002C64.0338 54.7002 65.2398 54.9199 66.275 55.3594C67.3199 55.7988 68.1305 56.4141 68.7066 57.2051C69.2828 57.9863 69.5709 58.9141 69.5709 59.9883H65.6891C65.6891 59.5391 65.5719 59.1338 65.3375 58.7725C65.1129 58.4014 64.776 58.1035 64.3268 57.8789C63.8775 57.6543 63.3209 57.542 62.6568 57.542C62.0221 57.542 61.4947 57.6396 61.0748 57.835C60.6646 58.0205 60.357 58.2646 60.152 58.5674C59.9566 58.8604 59.859 59.1729 59.859 59.5049C59.859 59.7783 59.9176 60.0273 60.0348 60.252C60.1617 60.4668 60.357 60.667 60.6207 60.8525C60.8941 61.0283 61.2506 61.1992 61.69 61.3652C62.1295 61.5215 62.6617 61.6826 63.2867 61.8486C64.3219 62.083 65.2301 62.3613 66.0113 62.6836C66.8023 62.9961 67.4566 63.3721 67.9742 63.8115C68.5016 64.251 68.8971 64.7637 69.1607 65.3496C69.4244 65.9355 69.5563 66.6143 69.5563 67.3857C69.5563 68.1475 69.4 68.8311 69.0875 69.4365C68.775 70.0322 68.3209 70.54 67.7252 70.96C67.1393 71.3701 66.4361 71.6875 65.6158 71.9121C64.8053 72.127 63.8971 72.2344 62.8912 72.2344C61.9928 72.2344 61.109 72.127 60.2398 71.9121C59.3707 71.6973 58.5846 71.3652 57.8814 70.916C57.1783 70.457 56.6168 69.876 56.1969 69.1729C55.777 68.4697 55.567 67.6299 55.567 66.6533H59.4635C59.4635 67.1416 59.5416 67.5615 59.6979 67.9131C59.8639 68.2646 60.0982 68.5527 60.401 68.7773C60.7135 68.9922 61.0943 69.1533 61.5436 69.2607C61.9928 69.3584 62.5006 69.4072 63.067 69.4072C63.7311 69.4072 64.2682 69.3145 64.6783 69.1289C65.0885 68.9434 65.3814 68.7041 65.5572 68.4111C65.7428 68.1182 65.8355 67.8105 65.8355 67.4883ZM76.4047 69.5537L79.9057 54.9346H82.015L82.3812 57.498L78.7484 72H76.5365L76.4047 69.5537ZM74.6176 54.9346L77.4887 69.4365L77.2836 72H74.8959L70.8529 54.9346H74.6176ZM85.765 69.4219L88.6361 54.9346H92.3715L88.3432 72H85.9701L85.765 69.4219ZM83.3334 54.9346L86.8637 69.5684L86.7172 72H84.5053L80.8285 57.498L81.224 54.9346H83.3334Z" fill="black"/>
<path d="M28.69 95.11C24.29 95.11 20.99 91.612 20.99 87.278C20.99 82.966 24.29 79.49 28.69 79.49C30.978 79.49 32.98 80.128 34.74 82.042L32.76 83.978C31.726 82.966 30.494 82.262 28.866 82.262C25.896 82.262 24.114 84.55 24.114 87.3C24.114 90.072 25.94 92.338 28.866 92.338C30.428 92.338 31.66 91.634 32.826 90.402L34.872 92.404C33.178 94.252 31.374 95.11 28.69 95.11ZM44.1429 95.11C39.6989 95.11 36.2009 91.656 36.2009 87.278C36.2009 82.922 39.6769 79.49 44.1429 79.49C48.5209 79.49 52.0849 82.922 52.0849 87.278C52.0849 91.678 48.6089 95.11 44.1429 95.11ZM44.1429 92.382C47.0249 92.382 49.0049 90.204 49.0049 87.256C49.0049 84.352 46.8489 82.218 44.1429 82.218C41.3049 82.218 39.2809 84.352 39.2809 87.256C39.2809 90.182 41.3489 92.382 44.1429 92.382ZM68.5965 79.6H70.1365V95H67.0345V86.178L62.5245 91.59L57.9045 86.112V95H54.8245V79.6H56.4305L62.5245 87.036L68.5965 79.6ZM79.9143 79.6C82.8623 79.6 85.1943 81.272 85.1943 84.396C85.1943 88.51 82.7523 90.006 79.9143 90.006H76.8783V95H73.7763V79.6H76.8783H79.9143ZM79.7163 87.278C81.1243 87.278 82.1363 86.442 82.1363 84.638C82.1363 83.054 81.1243 82.328 79.7163 82.328L76.8783 82.306V87.278H79.7163ZM94.207 95.11C90.401 95.11 87.717 93.02 87.717 89.17V79.6H90.819V88.884C90.819 91.282 92.513 92.206 94.163 92.206C95.791 92.206 97.331 91.282 97.331 88.884V79.6H100.411V89.17C100.411 93.02 97.529 95.11 94.207 95.11ZM114.388 79.6V82.328H109.9V95H106.798V82.328H102.288V79.6H114.388ZM119.35 92.25H128.766V95H116.248V79.6H128.656V82.328H119.35V85.782H127.798V88.532H119.35V92.25ZM140.907 95L138.487 90.006H135.165V95H132.063V79.6H135.165H138.641C141.589 79.6 143.921 81.272 143.921 84.396C143.921 86.992 142.953 88.532 141.523 89.346L144.405 95H140.907ZM135.165 82.306V87.278H138.443C139.851 87.278 140.863 86.442 140.863 84.638C140.863 83.054 139.851 82.328 138.443 82.328L135.165 82.306Z" fill="black"/>
<path d="M24.862 139.25H34.278V142H21.76V126.6H34.168V129.328H24.862V132.782H33.31V135.532H24.862V139.25ZM48.3771 126.6H51.4791V142H49.8731L40.5671 132.562V142H37.4651V126.6H39.1151L48.3771 135.972V126.6ZM62.0803 133.024H68.4383V139.58C68.2183 139.888 66.0183 142.11 62.1243 142.11C57.5483 142.11 54.2263 138.876 54.2263 134.256C54.2263 129.834 57.6363 126.49 62.0363 126.49C64.3243 126.49 66.3263 127.128 68.0863 129.042L65.7103 131.22C64.8743 130.186 63.6203 129.526 62.0583 129.526C59.1103 129.526 57.3943 131.594 57.3943 134.256C57.3943 136.984 59.1763 138.92 61.9263 139.096C63.7303 139.206 65.3583 138.15 65.3583 137.952V136.038H62.0803V133.024ZM71.6252 142V126.6H74.7272V142H71.6252ZM89.1544 126.6H92.2564V142H90.6504L81.3444 132.562V142H78.2424V126.6H79.8924L89.1544 135.972V126.6ZM98.8757 139.25H108.292V142H95.7737V126.6H108.182V129.328H98.8757V132.782H107.324V135.532H98.8757V139.25ZM114.581 139.25H123.997V142H111.479V126.6H123.887V129.328H114.581V132.782H123.029V135.532H114.581V139.25ZM136.138 142L133.718 137.006H130.396V142H127.294V126.6H130.396H133.872C136.82 126.6 139.152 128.272 139.152 131.396C139.152 133.992 138.184 135.532 136.754 136.346L139.636 142H136.138ZM130.396 129.306V134.278H133.674C135.082 134.278 136.094 133.442 136.094 131.638C136.094 130.054 135.082 129.328 133.674 129.328L130.396 129.306ZM142.158 142V126.6H145.26V142H142.158ZM159.688 126.6H162.79V142H161.184L151.878 132.562V142H148.776V126.6H150.426L159.688 135.972V126.6ZM173.391 133.024H179.749V139.58C179.529 139.888 177.329 142.11 173.435 142.11C168.859 142.11 165.537 138.876 165.537 134.256C165.537 129.834 168.947 126.49 173.347 126.49C175.635 126.49 177.637 127.128 179.397 129.042L177.021 131.22C176.185 130.186 174.931 129.526 173.369 129.526C170.421 129.526 168.705 131.594 168.705 134.256C168.705 136.984 170.487 138.92 173.237 139.096C175.041 139.206 176.669 138.15 176.669 137.952V136.038H173.391V133.024Z" fill="black"/>
<path d="M19.99 116.866L21.662 114.578C22.366 115.106 23.84 116.052 25.974 116.206C27.822 116.338 29.252 115.854 29.252 114.38C29.252 111.608 20.21 113.346 20.21 107.824C20.21 104.634 23.598 103.38 26.48 103.49C29.186 103.6 31.144 104.788 32.046 105.712L30.198 107.912C29.736 107.428 28.372 106.262 26.282 106.218C24.5 106.13 23.378 106.834 23.378 107.824C23.378 110.64 32.332 108.704 32.266 114.424C32.244 116.536 30.528 119.11 26.48 119.11C24.104 119.11 21.64 118.384 19.99 116.866ZM41.9556 119.11C37.5556 119.11 34.2556 115.612 34.2556 111.278C34.2556 106.966 37.5556 103.49 41.9556 103.49C44.2436 103.49 46.2456 104.128 48.0056 106.042L46.0256 107.978C44.9916 106.966 43.7596 106.262 42.1316 106.262C39.1616 106.262 37.3796 108.55 37.3796 111.3C37.3796 114.072 39.2056 116.338 42.1316 116.338C43.6936 116.338 44.9256 115.634 46.0916 114.402L48.1376 116.404C46.4436 118.252 44.6396 119.11 41.9556 119.11ZM50.6663 119V103.6H53.7683V119H50.6663ZM60.3854 116.25H69.8014V119H57.2834V103.6H69.6914V106.328H60.3854V109.782H68.8334V112.532H60.3854V116.25ZM83.9005 103.6H87.0025V119H85.3965L76.0905 109.562V119H72.9885V103.6H74.6385L83.9005 112.972V103.6ZM97.4498 119.11C93.0498 119.11 89.7498 115.612 89.7498 111.278C89.7498 106.966 93.0498 103.49 97.4498 103.49C99.7378 103.49 101.74 104.128 103.5 106.042L101.52 107.978C100.486 106.966 99.2538 106.262 97.6258 106.262C94.6558 106.262 92.8738 108.55 92.8738 111.3C92.8738 114.072 94.6998 116.338 97.6258 116.338C99.1878 116.338 100.42 115.634 101.586 114.402L103.632 116.404C101.938 118.252 100.134 119.11 97.4498 119.11ZM109.262 116.25H118.678V119H106.16V103.6H118.568V106.328H109.262V109.782H117.71V112.532H109.262V116.25ZM140.505 119H137.095L136.347 118.23C135.401 118.802 134.125 119.176 132.431 119.176C128.933 119.176 126.711 117.196 126.711 114.798C126.711 112.862 127.855 111.674 129.241 110.816C127.899 109.32 127.767 108.726 127.723 107.538C127.569 105.25 130.033 103.534 132.497 103.534C135.225 103.534 136.985 105.448 136.985 107.208C136.985 109.298 135.247 110.442 133.443 111.366L133.575 111.498L136.127 114.27C136.149 114.094 136.171 113.896 136.171 113.698C136.171 112.84 136.149 112.29 135.841 111.498H138.723C138.987 112.378 139.009 112.95 139.009 113.83C139.009 114.402 138.811 115.458 138.173 116.47L140.505 119ZM130.539 107.604C130.605 108.22 130.781 108.528 131.727 109.54C133.113 108.902 134.235 108.33 134.213 107.362C134.191 106.372 133.355 105.932 132.497 105.932C131.441 105.932 130.429 106.57 130.539 107.604ZM132.497 116.448C133.311 116.47 133.949 116.404 134.455 116.25L131.023 112.664C130.231 113.192 129.681 113.786 129.681 114.556C129.681 115.788 130.957 116.382 132.497 116.448Z" fill="black"/>
</g>
<defs>
<clipPath id="clip0_3392_478">
<rect width="200" height="200" fill="white"/>
</clipPath>
</defs>
</svg>
