<?xml version="1.0" encoding="UTF-8"?>
<svg version="1.1" xmlns="http://www.w3.org/2000/svg" width="4320" height="2500">
<path d="M0 0 C3.87422677 1.58139506 6.48742851 4.21041688 9.38042831 7.13433266 C10.18004283 7.93048563 10.18004283 7.93048563 10.99581116 8.74272251 C12.78989558 10.53149186 14.57672758 12.3273357 16.3637085 14.12319946 C17.65779627 15.41641548 18.95232329 16.70919207 20.2472527 18.00156534 C23.81142019 21.56124943 27.36930245 25.1271589 30.92621827 28.69408703 C34.76033826 32.53682492 38.60021664 36.37380091 42.43940735 40.21147156 C49.09262791 46.86364221 55.74216992 53.51947184 62.38924408 60.17778397 C71.99986289 69.80464055 81.61598411 79.42598524 91.23346749 89.04598336 C106.8361537 104.65304938 122.43436615 120.2645787 138.02978516 135.87890625 C153.18140921 151.04889623 168.33513049 166.21678618 183.49169922 181.38183594 C183.95881261 181.84921239 184.42592601 182.31658883 184.90719436 182.7981282 C190.06356006 187.95739258 195.21998326 193.11659948 200.37643003 198.27578282 C239.25736079 237.17745499 278.13103994 276.08636745 317 315 C315.02026372 319.66460912 311.71442446 321.07944704 307.375 323.3125 C296.41379139 329.16021798 285.9683266 335.78476234 275.48510742 342.44116211 C273.77552453 343.51353531 272.04771567 344.55721794 270.3059082 345.57641602 C267.91824929 346.92826731 267.91824929 346.92826731 266 349 C265.01 349 264.02 349 263 349 C263 349.66 263 350.32 263 351 C260.9229675 352.46150316 258.85177377 353.80404766 256.6875 355.125 C250.24820201 359.15232164 244.09402571 363.46399381 238 368 C231.27669903 373 231.27669903 373 229 373 C229 373.66 229 374.32 229 375 C226.8828125 376.7265625 226.8828125 376.7265625 224.125 378.625 C222.76761719 379.57246094 222.76761719 379.57246094 221.3828125 380.5390625 C219 382 219 382 217 382 C217 382.66 217 383.32 217 384 C215.09586671 385.60140939 213.18774447 387.08956222 211.1875 388.5625 C209.99488074 389.45671783 208.80349645 390.35258483 207.61328125 391.25 C207.0095166 391.70503906 206.40575195 392.16007812 205.78369141 392.62890625 C202.17728929 395.40108724 198.7174844 398.35126317 195.2421875 401.28515625 C193 403 193 403 190 404 C189.67 404.99 189.34 405.98 189 407 C187.38840371 408.45907021 185.71025332 409.84542621 184 411.1875 C179.42779752 414.82380184 175.05942587 418.59405882 170.77734375 422.56640625 C169 424 169 424 167 424 C167 424.66 167 425.32 167 426 C166.34 426 165.68 426 165 426 C165 426.66 165 427.32 165 428 C164.34 428 163.68 428 163 428 C163 428.66 163 429.32 163 430 C162.34 430 161.68 430 161 430 C160.74259033 430.59498291 160.48518066 431.18996582 160.2199707 431.80297852 C158.88924665 434.19945354 157.59284994 435.42403187 155.48046875 437.15234375 C150.49866407 441.371524 145.91570496 445.93749612 141.3125 450.5625 C140.48427734 451.38685547 139.65605469 452.21121094 138.80273438 453.06054688 C135.40228385 456.46644248 132.05413163 459.83112743 129.04296875 463.58984375 C128.36878906 464.38519531 127.69460938 465.18054687 127 466 C126.34 466 125.68 466 125 466 C125 466.66 125 467.32 125 468 C124.34 468 123.68 468 123 468 C123 468.66 123 469.32 123 470 C122.34 470 121.68 470 121 470 C120.63261719 470.84691406 120.63261719 470.84691406 120.2578125 471.7109375 C118.773105 474.41292072 116.98033665 476.37295 114.875 478.625 C110.87557516 482.96686348 107.20439958 487.46897024 103.62890625 492.1640625 C103.09136719 492.76992187 102.55382813 493.37578125 102 494 C101.34 494 100.68 494 100 494 C99.74347656 494.56589844 99.48695313 495.13179687 99.22265625 495.71484375 C97.85952204 498.26255465 96.26364929 500.32316138 94.4375 502.5625 C93.71949219 503.44808594 93.00148438 504.33367187 92.26171875 505.24609375 C90.81064351 507.01294703 89.35528166 508.77629352 87.89453125 510.53515625 C77.65885932 522.89626826 68.22939896 535.87706823 59 549 C58.6174707 549.54221191 58.23494141 550.08442383 57.84082031 550.64306641 C52.44475195 558.30474744 47.27876225 566.09679736 42.26269531 574.01025391 C40.88551604 576.180403 39.50131402 578.34599472 38.1171875 580.51171875 C31.89754303 590.27099014 25.88647341 600.12671611 20.08447266 610.13964844 C19.10390232 611.82176144 18.10570333 613.49356763 17.10546875 615.1640625 C13.33415715 621.4807966 9.96736059 627.91510972 6.83935547 634.57055664 C5.01221531 638.36222656 3.18623068 641.23059329 0 644 C-3.38882565 638.61263615 -6.46395031 633.16180638 -9.25 627.4375 C-12.99626389 619.77114388 -17.32249256 612.48855237 -21.70605469 605.17333984 C-22.97808808 603.03680376 -24.2306668 600.89014797 -25.4765625 598.73828125 C-32.1551214 587.2196878 -38.9611319 575.63280519 -47 565 C-48.3022331 562.95197762 -49.55914757 560.88053516 -50.81640625 558.8046875 C-52.00418197 556.86015519 -52.00418197 556.86015519 -54 555 C-55.02030553 553.40867121 -56.01667836 551.80194394 -57 550.1875 C-60.56123827 544.5222316 -64.51738792 539.28048714 -68.63671875 534.01953125 C-71.0553436 530.92928826 -73.41060137 527.79865043 -75.75 524.6484375 C-76.91750289 523.10879307 -78.14438946 521.61468644 -79.375 520.125 C-81 518 -81 518 -81 516 C-81.66 516 -82.32 516 -83 516 C-84.01148918 514.34028092 -85.00820602 512.67156289 -86 511 C-87.85724878 508.63856932 -89.83412169 506.38530334 -91.8125 504.125 C-92.83984375 502.94010417 -93.8671875 501.75520833 -94.89453125 500.5703125 C-96.49416925 498.72571242 -98.09962506 496.88821453 -99.72412109 495.06542969 C-100.27277832 494.44313477 -100.82143555 493.82083984 -101.38671875 493.1796875 C-101.88776123 492.61749512 -102.38880371 492.05530273 -102.9050293 491.47607422 C-104 490 -104 490 -104 488 C-104.66 488 -105.32 488 -106 488 C-107.3440093 486.00715862 -108.67541292 484.00580329 -110 482 C-111.6222454 480.29006566 -113.29413425 478.62652316 -115 477 C-118.70326069 473.39442725 -122.26475615 469.74252433 -125.625 465.8125 C-128.19911917 462.81799896 -130.88780768 460.43928588 -134 458 C-138 453.45945946 -138 453.45945946 -138 451 C-138.86625 450.9071875 -138.86625 450.9071875 -139.75 450.8125 C-142.92448483 449.66615826 -144.12848575 447.74043158 -146 445 C-146 444.34 -146 443.68 -146 443 C-146.66 443 -147.32 443 -148 443 C-148 442.34 -148 441.68 -148 441 C-148.556875 440.773125 -149.11375 440.54625 -149.6875 440.3125 C-152.00880273 438.99500385 -153.57275397 437.47321983 -155.42797852 435.58032227 C-158.74771046 432.24306106 -162.20036661 429.04135657 -165.625 425.8125 C-166.388125 425.08869141 -167.15125 424.36488281 -167.9375 423.61914062 C-169.03964844 422.57983398 -169.03964844 422.57983398 -170.1640625 421.51953125 C-170.82873535 420.89151611 -171.4934082 420.26350098 -172.17822266 419.61645508 C-174.11174548 417.82633194 -174.11174548 417.82633194 -177 416 C-177 415.34 -177 414.68 -177 414 C-178.32 413.67 -179.64 413.34 -181 413 C-181 412.34 -181 411.68 -181 411 C-181.56976562 410.74863281 -182.13953125 410.49726562 -182.7265625 410.23828125 C-185.30746403 408.83253248 -187.21069754 407.17334243 -189.375 405.1875 C-195.02499641 400.02663756 -200.92288058 395.22435453 -206.9375 390.5 C-207.81051758 389.80970703 -207.81051758 389.80970703 -208.70117188 389.10546875 C-211.70648085 386.74249049 -214.74084291 384.46564316 -217.87890625 382.28125 C-221 380 -221 380 -222 378 C-223.66351107 376.99475939 -225.33122532 375.99647823 -227 375 C-230.0150668 372.840064 -232.97071052 370.60060887 -235.9375 368.375 C-242.78086204 363.2819758 -249.70635687 358.48265479 -256.9296875 353.94921875 C-259.74282128 352.16327249 -262.47107079 350.30374989 -265.1875 348.375 C-273.50128927 341.50810833 -273.50128927 341.50810833 -283 338 C-283.4125 337.58363281 -283.825 337.16726563 -284.25 336.73828125 C-286.58752133 334.41641296 -289.18771629 332.90123539 -292 331.1875 C-292.85960327 330.6630127 -292.85960327 330.6630127 -293.73657227 330.12792969 C-298.28389713 327.37654374 -302.92909846 324.83054352 -307.609375 322.3125 C-310.56228665 320.69129361 -313.31285027 319.03351871 -316 317 C-316 316.34 -316 315.68 -316 315 C-315.34 315 -314.68 315 -314 315 C-314 314.34 -314 313.68 -314 313 C-312.125 310.875 -312.125 310.875 -310 309 C-309.34 309 -308.68 309 -308 309 C-308 308.34 -308 307.68 -308 307 C-307.34 307 -306.68 307 -306 307 C-306 306.34 -306 305.68 -306 305 C-304.34997172 303.64613064 -302.6825613 302.31321858 -301 301 C-300.67 300.34 -300.34 299.68 -300 299 C-299.34 299 -298.68 299 -298 299 C-298 298.34 -298 297.68 -298 297 C-297.34 297 -296.68 297 -296 297 C-296 296.34 -296 295.68 -296 295 C-294.125 292.875 -294.125 292.875 -292 291 C-291.34 291 -290.68 291 -290 291 C-290 290.34 -290 289.68 -290 289 C-289.34 289 -288.68 289 -288 289 C-288 288.34 -288 287.68 -288 287 C-286.34997172 285.64613064 -284.6825613 284.31321858 -283 283 C-282.67 282.34 -282.34 281.68 -282 281 C-281.34 281 -280.68 281 -280 281 C-280 280.34 -280 279.68 -280 279 C-279.34 279 -278.68 279 -278 279 C-278 278.34 -278 277.68 -278 277 C-276.125 274.875 -276.125 274.875 -274 273 C-273.34 273 -272.68 273 -272 273 C-272 272.34 -272 271.68 -272 271 C-271.34 271 -270.68 271 -270 271 C-270 270.34 -270 269.68 -270 269 C-268.34997172 267.64613064 -266.6825613 266.31321858 -265 265 C-264.67 264.34 -264.34 263.68 -264 263 C-263.34 263 -262.68 263 -262 263 C-262 262.34 -262 261.68 -262 261 C-260.34997172 259.64613064 -258.6825613 258.31321858 -257 257 C-256.67 256.34 -256.34 255.68 -256 255 C-255.34 255 -254.68 255 -254 255 C-254 254.34 -254 253.68 -254 253 C-253.34 253 -252.68 253 -252 253 C-252 252.34 -252 251.68 -252 251 C-250.34997172 249.64613064 -248.6825613 248.31321858 -247 247 C-246.67 246.34 -246.34 245.68 -246 245 C-245.34 245 -244.68 245 -244 245 C-244 244.34 -244 243.68 -244 243 C-242.34997172 241.64613064 -240.6825613 240.31321858 -239 239 C-238.67 238.34 -238.34 237.68 -238 237 C-237.34 237 -236.68 237 -236 237 C-236 236.34 -236 235.68 -236 235 C-234.50390625 233.5625 -234.50390625 233.5625 -232.5625 232 C-229.84811762 229.85474956 -229.84811762 229.85474956 -228 227 C-227.34 227 -226.68 227 -226 227 C-226 226.34 -226 225.68 -226 225 C-224.34997172 223.64613064 -222.6825613 222.31321858 -221 221 C-220.67 220.34 -220.34 219.68 -220 219 C-219.34 219 -218.68 219 -218 219 C-218 218.34 -218 217.68 -218 217 C-216.64453125 215.66796875 -216.64453125 215.66796875 -214.8125 214.1875 C-210.91555727 210.95052337 -207.27287689 207.66790766 -204.1875 203.625 C-201.68726617 200.6247194 -198.9117063 198.22811578 -195.953125 195.69140625 C-192.54306123 192.73829102 -189.51423193 189.63931537 -186.6875 186.125 C-184.14896674 183.0170761 -181.23077381 180.52366066 -178.18359375 177.92578125 C-174.26987093 174.47414377 -170.65853186 170.71764638 -167 167 C-165.33416015 165.33250692 -163.66732404 163.66600904 -162 162 C-160.95153495 160.95162959 -159.90312022 159.90320887 -158.85474682 158.85474682 C-105.90316455 105.90316455 -52.95158227 52.95158227 0 0 Z " fill="#FEED00" transform="translate(3983,928)"/>
<path d="M0 0 C0.74446381 0.00359528 1.48892761 0.00719055 2.25595093 0.01089478 C3.0363826 0.01074875 3.81681427 0.01060272 4.62089539 0.01045227 C7.21273534 0.01115158 9.80450432 0.01894481 12.39633179 0.02676392 C14.18852194 0.02862803 15.9807126 0.03005196 17.77290344 0.03105164 C22.49938351 0.03487733 27.22583305 0.04470805 31.95230103 0.05575562 C36.77153104 0.06596863 41.59076596 0.07054902 46.41000366 0.07559204 C55.87290773 0.08633027 65.3357891 0.10340731 74.79867554 0.12442017 C77.30821321 9.36700357 79.68333731 18.62149384 81.82992554 27.95645142 C82.23881264 29.7192318 82.23881264 29.7192318 82.65596008 31.5176239 C83.23768712 34.02571695 83.81843143 36.53403811 84.39825439 39.04257202 C85.94359621 45.72622121 87.49733446 52.40791364 89.05258179 59.08926392 C89.20979265 59.76487617 89.36700352 60.44048843 89.52897835 61.13657379 C92.70327194 74.77232367 95.95497827 88.38902183 99.23617554 101.99942017 C102.6363884 116.10880545 106.01276983 130.22175885 109.29525757 144.35903931 C111.54699703 154.05648522 113.82055712 163.74859184 116.11117554 173.43692017 C116.29800903 174.22744781 116.48484253 175.01797546 116.67733765 175.8324585 C119.92378629 189.55546456 123.27134273 203.25271843 126.63323975 216.94781494 C129.43515875 228.37527285 132.11498519 239.81817182 134.61849976 251.31533813 C136.79530725 261.25756079 139.19283206 271.14176486 141.61190796 281.02700806 C143.53187181 288.8776102 145.42353417 296.73396636 147.27523804 304.60098267 C147.48112045 305.47500229 147.68700287 306.34902191 147.89912415 307.24952698 C148.90843719 311.53688697 149.91454266 315.82497381 150.91708374 320.11392212 C151.28247776 321.66822258 151.64795212 323.22250416 152.01351929 324.77676392 C152.26296799 325.85089035 152.26296799 325.85089035 152.51745605 326.94671631 C153.37426357 330.63299357 153.37426357 330.63299357 154.79867554 334.12442017 C155.00752632 333.32327034 155.00752632 333.32327034 155.22059631 332.50593567 C156.69712659 326.84215602 158.1739667 321.17845722 159.65097046 315.51480103 C160.19889818 313.4135839 160.74675225 311.31234758 161.29452515 309.21109009 C166.06289409 290.91995898 170.85014592 272.63450945 175.73617554 254.37442017 C178.13992043 245.3818248 180.52307423 236.38433626 182.86117554 227.37442017 C184.8597921 219.67493044 186.90672045 211.98995482 188.98617554 204.31192017 C192.73504749 190.46519304 196.35750313 176.58568546 199.97909546 162.70523071 C200.43448557 160.96082116 200.88996819 159.21643577 201.34555054 157.47207642 C201.67282639 156.21887352 201.67282639 156.21887352 202.00671387 154.94035339 C203.36065243 149.76689215 204.75328275 144.60541206 206.17221069 139.44937134 C207.21865299 135.56578987 208.15929387 131.65701746 209.11117554 127.74942017 C210.8781438 120.57788862 212.80320648 113.46773508 214.86117554 106.37442017 C216.95039887 99.16758206 218.89038153 91.95660316 220.67367554 84.66738892 C223.0014461 75.1878496 225.50886936 65.75209929 227.97006226 56.30654907 C228.68723556 53.55238383 229.40161599 50.79751604 230.11508179 48.04238892 C232.46429099 39.00380889 234.91883282 29.99611154 237.42367554 20.99942017 C237.71307007 19.95576294 238.0024646 18.91210571 238.30062866 17.83682251 C238.58099976 16.83602661 238.86137085 15.83523071 239.15023804 14.80410767 C239.39596558 13.92480591 239.64169312 13.04550415 239.89486694 12.13955688 C241.10402986 8.10574758 242.46699643 4.11945749 243.79867554 0.12442017 C270.52867554 0.12442017 297.25867554 0.12442017 324.79867554 0.12442017 C327.73480859 10.69449917 330.65763775 21.24638696 333.39242554 31.86660767 C333.70643311 33.08107574 334.02044067 34.29554382 334.34396362 35.54681396 C335.00004863 38.08566721 335.65535958 40.62472061 336.30990601 43.16397095 C337.29519132 46.98590484 338.28305793 50.80716434 339.27133179 54.62832642 C348.51406305 90.39988824 348.51406305 90.39988824 352.23617554 106.56192017 C354.12129744 114.62558802 356.31029571 122.57006814 358.63388062 130.51724243 C360.5720068 137.19314973 362.23160696 143.89499825 363.74398804 150.67910767 C364.75151762 155.06454597 365.92859684 159.40202188 367.09719849 163.74684143 C369.53487412 172.83141898 371.84640096 181.94857579 374.17367554 191.06192017 C374.66462871 192.98143863 375.15559561 194.90095357 375.64657593 196.82046509 C378.45105873 207.79380611 381.21992322 218.77486073 383.93612671 229.77041626 C385.18197348 234.77871106 386.52521822 239.73710954 387.98617554 244.68692017 C389.33691536 249.26504243 390.35916648 253.80742172 391.23617554 258.49942017 C392.19636947 263.5550723 393.42398821 268.29967643 395.04476929 273.19473267 C398.37273269 283.53276003 400.86044588 294.07655458 403.42367554 304.62442017 C404.36859965 308.51123352 405.32002455 312.39637433 406.27523804 316.28067017 C406.48468048 317.1516333 406.69412292 318.02259644 406.90991211 318.91995239 C408.19917503 324.16056446 409.80868892 329.10638189 411.79867554 334.12442017 C412.02941772 332.87789673 412.26015991 331.63137329 412.49789429 330.34707642 C414.09181678 321.9507576 415.77733076 313.67145213 418.29867554 305.49942017 C420.25412683 299.15825551 421.82579484 292.81890505 423.21322632 286.33120728 C424.56856929 280.03987879 426.09649878 273.80109031 427.67367554 267.56192017 C429.70072176 259.53116158 431.68842508 251.49331067 433.61117554 243.43692017 C436.33749995 232.01734275 439.10838641 220.60894156 441.88909912 209.20251465 C444.01655506 200.47507631 446.13270573 191.74547563 448.20932007 183.00576782 C450.76877587 172.23436017 453.50972325 161.52119837 456.32772827 150.81460571 C458.25924132 143.40444259 459.94727502 135.98104421 461.4559021 128.47476196 C462.57714693 122.96517617 464.05568142 117.63001071 465.66586304 112.24160767 C467.57355367 105.56295932 469.00136128 98.75152737 470.51693726 91.97573853 C471.80900418 86.2430139 473.19963799 80.55758518 474.74008179 74.88613892 C476.77850921 67.34008396 478.52976961 59.74580968 480.23413086 52.11834717 C482.87234776 40.32663539 485.59276933 28.57716546 488.77133179 16.91738892 C490.00636442 12.35762965 491.12584913 7.77430774 492.22055054 3.17910767 C492.79867554 1.12442017 492.79867554 1.12442017 493.79867554 0.12442017 C496.29359941 0.029396 498.76073568 -0.00115549 501.25595093 0.01089478 C502.0363826 0.01074875 502.81681427 0.01060272 503.62089539 0.01045227 C506.21273534 0.01115158 508.80450432 0.01894481 511.39633179 0.02676392 C513.18852194 0.02862803 514.9807126 0.03005196 516.77290344 0.03105164 C521.49938351 0.03487733 526.22583305 0.04470805 530.95230103 0.05575562 C535.77153104 0.06596863 540.59076596 0.07054902 545.41000366 0.07559204 C554.87290773 0.08633027 564.3357891 0.10340731 573.79867554 0.12442017 C573.33138137 5.07642846 572.80645566 9.81031118 571.34555054 14.58535767 C570.91568848 16.01766724 570.91568848 16.01766724 570.47714233 17.47891235 C570.17074829 18.47567993 569.86435425 19.47244751 569.54867554 20.49942017 C568.90220655 22.65769487 568.25769122 24.81655567 567.61508179 26.97598267 C567.30071167 28.03075806 566.98634155 29.08553345 566.66244507 30.17227173 C565.52656644 34.05442106 564.49057107 37.95655567 563.48617554 41.87442017 C561.16118767 50.88498273 558.67257428 59.84844796 556.17367554 68.81192017 C552.49984149 81.99184325 548.85516844 95.17933251 545.23617554 108.37442017 C541.9068828 120.51263339 538.53842002 132.63851096 535.11117554 144.74942017 C531.84050367 156.30734667 528.68666041 167.89122405 525.62411499 179.50576782 C523.32179069 188.22859713 520.92249613 196.9216663 518.49856567 205.61123657 C517.24276532 210.12059695 515.99561794 214.63235085 514.74789429 219.14395142 C514.48491547 220.0946199 514.22193665 221.04528839 513.95098877 222.02476501 C513.12927385 224.99545285 512.30771598 227.96618408 511.48617554 230.93692017 C511.06005981 232.4775563 511.06005981 232.4775563 510.62533569 234.04931641 C506.85923719 247.66587181 503.09680399 261.28342517 499.34335327 274.9034729 C498.01576915 279.71941606 496.68627343 284.53477258 495.34555054 289.34707642 C495.01200562 290.5443335 495.01200562 290.5443335 494.67172241 291.76577759 C494.11602136 293.75798327 493.5590018 295.74982106 493.00180054 297.74160767 C491.95685524 301.50932379 490.96139147 305.28950782 489.96273804 309.06973267 C487.93654596 316.71071721 485.76086873 324.305528 483.56613159 331.89950562 C480.17480928 343.64412581 476.87901482 355.39992301 473.84603882 367.24307251 C471.58197294 376.05670014 469.08194744 384.79658303 466.54867554 393.53604126 C465.29118538 397.87585591 464.04365107 402.21850114 462.79867554 406.56192017 C462.55335083 407.41487671 462.30802612 408.26783325 462.05526733 409.14663696 C460.72495964 413.79508349 459.43580396 418.45171356 458.19320679 423.12442017 C457.79585327 424.61244141 457.79585327 424.61244141 457.39047241 426.13052368 C456.88467522 428.03312609 456.38434663 429.93719389 455.89047241 431.84292603 C455.66037476 432.70796753 455.4302771 433.57300903 455.19320679 434.46426392 C454.99573853 435.22086304 454.79827026 435.97746216 454.59481812 436.75698853 C453.60491832 439.700582 452.20481331 442.35911797 450.79867554 445.12442017 C440.68059495 445.19387202 430.56257089 445.2472069 420.44430065 445.27985668 C415.74617798 445.29552544 411.04821815 445.31678572 406.35018921 445.35073853 C401.81794441 445.38328894 397.28585645 445.40126406 392.7535038 445.4090519 C391.02269331 445.41460319 389.29189158 445.4254433 387.56114769 445.44161034 C385.14037778 445.46332754 382.72025931 445.46638954 380.29940796 445.46499634 C379.22155029 445.48117508 379.22155029 445.48117508 378.12191772 445.49768066 C375.26936503 445.47986811 373.28804408 445.45934743 370.89408875 443.82090759 C369.03883588 440.94764192 368.54301655 437.67717904 367.86117554 434.37442017 C367.52057704 432.83104212 367.17809252 431.28807921 366.83383179 429.74551392 C366.66254761 428.96933716 366.49126343 428.1931604 366.31478882 427.39346313 C364.47625125 419.31050751 362.15844298 411.33643545 359.86117554 403.37442017 C356.7129335 392.42994095 353.72990768 381.42529168 351.23617554 370.31192017 C349.99216224 364.78683316 348.46845321 359.37427765 346.88851929 353.93692017 C343.37364825 341.64117059 340.31637712 329.2219484 337.23617554 316.81192017 C335.20279118 308.62368983 333.11697212 300.47758301 330.74008179 292.38223267 C326.89554217 279.07789225 323.62499394 265.59772242 320.17367554 252.18692017 C319.97972198 251.43343292 319.78576843 250.67994568 319.5859375 249.90362549 C317.79414261 242.93951411 316.00420419 235.97554393 314.27523804 228.99551392 C312.53757556 222.01505848 310.66359049 215.0717407 308.79867554 208.12442017 C308.16661663 205.75347257 307.53509746 203.38238101 306.90414429 201.01113892 C306.2648801 198.61138369 305.62555569 196.2116445 304.98617554 193.81192017 C304.73246689 192.85953461 304.73246689 192.85953461 304.47363281 191.88790894 C302.60209976 184.86384864 300.7250143 177.8413895 298.82992554 170.82363892 C298.36356689 169.09657715 298.36356689 169.09657715 297.88778687 167.33462524 C297.30793241 165.1896505 296.72711915 163.04493461 296.14511108 160.90054321 C294.27794223 153.99525238 292.51320061 147.06907485 290.79867554 140.12442017 C289.59210063 135.24898246 288.38337138 130.37408433 287.17367554 125.49942017 C286.86172241 124.23484985 286.54976929 122.97027954 286.22836304 121.66738892 C285.77976929 119.86334595 285.77976929 119.86334595 285.32211304 118.02285767 C285.05318237 116.93666138 284.78425171 115.85046509 284.50717163 114.73135376 C283.90229416 112.16750195 283.90229416 112.16750195 282.79867554 110.12442017 C268.20604067 163.68169772 268.20604067 163.68169772 254.07406616 217.36148071 C252.20479509 224.60603762 250.24604373 231.81960311 248.22445679 239.02285767 C242.97188412 257.75947418 237.9232473 276.5524946 232.98617554 295.37442017 C229.45234709 308.84482938 225.90508223 322.31150033 222.32446289 335.76956177 C221.81818603 337.67342248 221.3125999 339.57746704 220.80780029 341.48171997 C217.9529544 352.24867748 215.00037179 362.9796373 211.91601562 373.68315125 C209.77784927 381.1303429 207.81958319 388.61159318 205.92367554 396.12442017 C203.3455514 406.2353857 200.70710019 416.32813736 197.94949341 426.39175415 C197.43444083 428.27260781 196.92339971 430.1545585 196.41244507 432.03652954 C196.09904175 433.17283813 195.78563843 434.30914673 195.46273804 435.47988892 C195.18897339 436.47657593 194.91520874 437.47326294 194.63314819 438.50015259 C193.79867554 441.12442017 193.79867554 441.12442017 191.79867554 445.12442017 C165.06867554 445.12442017 138.33867554 445.12442017 110.79867554 445.12442017 C103.91383193 422.17494146 103.91383193 422.17494146 102.04867554 414.81192017 C101.81680542 413.91151001 101.5849353 413.01109985 101.34603882 412.08340454 C100.49270163 408.76481121 99.64584125 405.44459435 98.79867554 402.12442017 C97.75890541 398.06227877 96.71758574 394.00053446 95.67623901 389.938797 C94.58288664 385.67386808 93.49056476 381.40868379 92.4012146 377.14273071 C89.26529337 364.87249732 86.10658943 352.61060303 82.61117554 340.43692017 C80.82660856 334.13057216 79.19952263 327.7890372 77.61898804 321.42910767 C77.42429428 320.64587631 77.22960052 319.86264496 77.02900696 319.05567932 C76.04508655 315.09033744 75.06740178 311.1235528 74.09677124 307.15493774 C72.19730261 299.43118139 70.14349902 291.81961885 67.74325562 284.23257446 C66.08411709 278.77315535 64.76980708 273.23018273 63.42367554 267.68692017 C61.36820448 259.34789325 59.27744045 251.02693829 56.98617554 242.74942017 C54.21444861 232.72951312 51.56172176 222.68015393 48.92367554 212.62442017 C45.24288729 198.59116964 45.24288729 198.59116964 41.51742554 184.56973267 C41.24852005 183.56417328 41.24852005 183.56417328 40.97418213 182.53829956 C40.14707719 179.44730652 39.31804545 176.35684392 38.48666382 173.26699829 C36.89551861 167.33110188 35.35327519 161.38575619 33.87289429 155.42129517 C31.66056503 146.50860886 29.32979371 137.62834973 26.98617554 128.74942017 C26.76835419 127.92292969 26.55053284 127.09643921 26.32611084 126.24490356 C22.23867124 110.73607935 18.08374157 95.24603185 13.88851929 79.76602173 C10.82052554 68.44076028 7.76079329 57.12220612 4.96664429 45.72598267 C3.97313135 41.75005812 2.9127098 37.79316063 1.84945679 33.83535767 C1.58386711 32.84656616 1.58386711 32.84656616 1.31291199 31.83779907 C0.41818582 28.50925804 -0.48050225 25.18185274 -1.38467407 21.85586548 C-5.62801563 6.11096967 -5.62801563 6.11096967 -6.20132446 1.12442017 C-4.48145241 -0.59545189 -2.29255418 0.00467229 0 0 Z " fill="#000000" transform="translate(2460.2013244628906,1012.8755798339844)"/>
<path d="M0 0 C16.19153421 15.79541105 29.39657124 34.00447661 38 55 C38.2666748 55.62874023 38.53334961 56.25748047 38.80810547 56.90527344 C43.05015182 67.01710059 45.90768781 77.10693632 48 87.875 C48.32967773 89.5602478 48.32967773 89.5602478 48.66601562 91.27954102 C49.56531868 96.22683569 50.2526018 100.06228844 49 105 C41.08058587 106.08318612 33.24492376 106.16366676 25.26171875 106.16796875 C23.84926826 106.17118823 22.4368181 106.17455281 21.02436829 106.17805481 C18.08191147 106.18400625 15.13948388 106.18589849 12.19702148 106.18530273 C8.42990669 106.18520054 4.66297792 106.19892949 0.8959074 106.21607494 C-2.01316694 106.22718933 -4.92219589 106.22922223 -7.83128929 106.22869301 C-9.22074216 106.22987101 -10.61019627 106.23428269 -11.99962807 106.24202538 C-13.93763418 106.25182721 -15.87569565 106.24768246 -17.8137207 106.24291992 C-19.46510796 106.24505745 -19.46510796 106.24505745 -21.14985657 106.24723816 C-24.01775715 105.99845964 -25.66479921 105.66776443 -28 104 C-28.83754272 101.34327846 -29.43155842 98.9072675 -29.9375 96.1875 C-34.66646306 74.0040252 -45.3915651 56.29642888 -63 42 C-63.6084375 41.48695312 -64.216875 40.97390625 -64.84375 40.4453125 C-76.19556081 31.39599162 -90.49933784 26.17889343 -104.3125 22.25 C-105.09012695 22.02683105 -105.86775391 21.80366211 -106.66894531 21.57373047 C-110.60640834 20.49097073 -113.90638849 19.97328802 -118 20 C-119.57950439 19.51478882 -119.57950439 19.51478882 -121.19091797 19.01977539 C-127.00051065 17.46441911 -132.77917356 17.66630871 -138.74829102 17.68432617 C-140.90108822 17.68744721 -143.05245418 17.66412478 -145.20507812 17.63867188 C-158.16147488 17.58049988 -170.85491139 19.26142444 -183 24 C-184.11632813 24.40992188 -185.23265625 24.81984375 -186.3828125 25.2421875 C-216.60496387 36.57746699 -240.19157508 59.33655181 -253.75 88.625 C-254.85175841 91.07573612 -255.9264865 93.53659747 -257 96 C-257.43957031 96.93714844 -257.87914062 97.87429688 -258.33203125 98.83984375 C-264.80564553 113.16399978 -268.56042267 129.50626055 -271 145 C-271.10296387 145.6482373 -271.20592773 146.29647461 -271.31201172 146.96435547 C-276.18402917 179.48295538 -274.18305103 214.27994239 -266 246 C-265.81598633 246.74169434 -265.63197266 247.48338867 -265.44238281 248.24755859 C-258.62229995 275.45855464 -244.78178284 303.98436028 -222.36328125 321.73046875 C-221.68845703 322.35888672 -221.68845703 322.35888672 -221 323 C-221 323.66 -221 324.32 -221 325 C-220.34 325 -219.68 325 -219 325 C-219 325.66 -219 326.32 -219 327 C-218.27554687 327.26425781 -217.55109375 327.52851562 -216.8046875 327.80078125 C-213.96762305 329.01384363 -211.67222616 330.45364045 -209.125 332.1875 C-188.62788622 345.42924242 -166.12156758 350.3596044 -142 351 C-140.783125 351.04125 -139.56625 351.0825 -138.3125 351.125 C-111.14582931 351.62808649 -82.54328565 345.37310896 -60.83984375 328.30078125 C-59 327 -59 327 -57 327 C-56.74347656 326.40445312 -56.48695313 325.80890625 -56.22265625 325.1953125 C-54.89030313 322.80303629 -53.56631395 321.57271801 -51.4375 319.875 C-48.78974334 317.79096366 -48.78974334 317.79096366 -47 315 C-46.34 315 -45.68 315 -45 315 C-44.74605469 314.45085937 -44.49210937 313.90171875 -44.23046875 313.3359375 C-42.78966631 310.60069985 -41.08084059 308.16112698 -39.3125 305.625 C-24.11887276 282.79334676 -20.69856033 258.98560333 -18 232 C-56.94 232 -95.88 232 -136 232 C-136 173 -136 173 -135 171 C-110.37473313 170.97667391 -85.74946791 170.95902226 -61.12419224 170.94818783 C-49.69110813 170.94302425 -38.25803088 170.93598039 -26.82495117 170.92456055 C-16.86373974 170.91461559 -6.90253328 170.90814702 3.05868298 170.90591151 C8.33654174 170.90460408 13.6143863 170.90151621 18.89224052 170.89426994 C23.85383884 170.88751269 28.81541703 170.88538243 33.7770195 170.88689232 C35.603628 170.88661586 37.43023713 170.88460899 39.25684166 170.88079453 C41.73944452 170.87586187 44.22197015 170.87700011 46.70457458 170.87974548 C47.43705097 170.87683264 48.16952736 170.8739198 48.9242 170.87091869 C53.88587879 170.88587879 53.88587879 170.88587879 55 172 C55.10023005 175.00649119 55.13438009 177.99008892 55.12698364 180.99707031 C55.12854363 181.95277042 55.13010362 182.90847054 55.13171089 183.89313126 C55.13572531 187.12147782 55.13252954 190.34977802 55.12939453 193.578125 C55.13074838 195.88203967 55.13252821 198.18595412 55.13470459 200.48986816 C55.13928092 206.76654079 55.13748854 213.04319707 55.1343255 219.31987 C55.13180293 225.87242682 55.13413915 232.42498219 55.13571167 238.97753906 C55.1378509 250.68976307 55.13453268 262.40198017 55.12945233 274.11420298 C55.12498429 284.74410777 55.12576022 295.37400165 55.13037109 306.00390625 C55.13571672 318.33356293 55.13771777 330.66321265 55.13475883 342.99287033 C55.13319558 349.52491264 55.13300359 356.05694742 55.13629532 362.58898926 C55.13917279 368.72841647 55.13720063 374.86782296 55.13140106 381.00724792 C55.1300728 383.26763372 55.1304687 385.52802125 55.13266373 387.78840637 C55.13537263 390.85993812 55.1319973 393.93140231 55.12698364 397.00292969 C55.12921436 397.90981663 55.13144509 398.81670357 55.13374341 399.75107193 C55.11414981 405.88585019 55.11414981 405.88585019 54 407 C52.48162227 407.10878142 50.95825655 407.14903597 49.43603516 407.16113281 C48.46477692 407.17074036 47.49351868 407.1803479 46.49282837 407.19024658 C45.43558563 407.19449646 44.3783429 407.19874634 43.2890625 407.203125 C42.20998627 407.20882507 41.13091003 407.21452515 40.01913452 407.22039795 C37.73086533 407.22986463 35.44258241 407.23638852 33.15429688 407.24023438 C29.64689423 407.24993942 26.14007743 407.28094743 22.6328125 407.3125 C20.414066 407.31902967 18.19531528 407.32428028 15.9765625 407.328125 C14.92336823 407.3404718 13.87017395 407.3528186 12.7850647 407.36553955 C11.80750214 407.36253845 10.82993958 407.35953735 9.82275391 407.35644531 C8.96195221 407.36009094 8.10115051 407.36373657 7.21426392 407.36749268 C4.50354986 406.91760612 3.6431616 406.16534919 2 404 C1.296875 401.4453125 1.296875 401.4453125 0.75 398.125 C-0.70974685 389.92220586 -2.65839379 381.84280572 -4.625 373.75 C-4.78311157 373.09549866 -4.94122314 372.44099731 -5.10412598 371.7666626 C-6.84430252 364.32489054 -6.84430252 364.32489054 -9 357 C-9.63164063 357.71542969 -10.26328125 358.43085937 -10.9140625 359.16796875 C-21.1869695 370.66644292 -32.10381935 381.45372156 -45 390 C-45.57943359 390.38752441 -46.15886719 390.77504883 -46.75585938 391.17431641 C-69.25227552 406.1117036 -92.11537537 413.84569145 -118.97314453 416.70629883 C-121.19777754 416.96764181 -121.19777754 416.96764181 -124 418 C-145.92298703 419.34809604 -168.37415382 417.7460295 -189.71582031 412.55322266 C-191.98011281 412.00481663 -194.25057847 411.4920337 -196.5234375 410.98046875 C-205.98703553 408.75884371 -214.96711892 405.6497335 -224 402.0625 C-225.02625488 401.65563965 -226.05250977 401.2487793 -227.10986328 400.82958984 C-236.73268677 396.89786779 -245.70830757 392.03978975 -254.375 386.3125 C-259.07941372 383.22922115 -259.07941372 383.22922115 -263.9140625 380.35546875 C-264.60242187 379.90816406 -265.29078125 379.46085937 -266 379 C-266 378.34 -266 377.68 -266 377 C-267.65 376.34 -269.3 375.68 -271 375 C-271 374.34 -271 373.68 -271 373 C-271.7425 372.74863281 -272.485 372.49726562 -273.25 372.23828125 C-276.20634486 370.90708619 -277.7818855 369.52635863 -280 367.1875 C-281.03833984 366.10855469 -281.03833984 366.10855469 -282.09765625 365.0078125 C-282.72542969 364.34523438 -283.35320312 363.68265625 -284 363 C-285.2065625 361.7934375 -285.2065625 361.7934375 -286.4375 360.5625 C-287.283125 359.716875 -288.12875 358.87125 -289 358 C-290.01900391 357.01580078 -290.01900391 357.01580078 -291.05859375 356.01171875 C-295.60704897 351.57064695 -299.70288475 347.0526336 -303.4921875 341.9453125 C-304.91712444 340.0087227 -304.91712444 340.0087227 -306.5078125 338.5546875 C-308.41625253 336.56631281 -309.61429802 334.38047544 -311 332 C-312.26327626 330.11990015 -313.5346138 328.24520032 -314.8125 326.375 C-321.45994319 316.42809595 -326.83411676 305.7776471 -332 295 C-332.39026367 294.19095215 -332.78052734 293.3819043 -333.18261719 292.54833984 C-336.38889909 285.72424178 -338.87914179 278.81748789 -341.125 271.625 C-341.64755371 269.96549316 -341.64755371 269.96549316 -342.18066406 268.27246094 C-344.47342675 260.90302181 -346.53181581 253.58116927 -348 246 C-348.32875375 244.43215033 -348.65824795 242.86445583 -348.98828125 241.296875 C-351.53704589 228.90785471 -353.11682466 216.61220265 -354 204 C-354.06848145 203.11151367 -354.13696289 202.22302734 -354.20751953 201.30761719 C-355.93126624 178.15541438 -354.24244833 154.81274022 -350 132 C-349.84192871 131.12279297 -349.68385742 130.24558594 -349.52099609 129.34179688 C-343.84848473 98.55904104 -332.19806972 68.93863193 -315.09375 42.71337891 C-314.11397728 41.17854744 -313.20787036 39.59727043 -312.3125 38.01171875 C-311.879375 37.34785156 -311.44625 36.68398437 -311 36 C-310.34 36 -309.68 36 -309 36 C-308.67322266 34.96552734 -308.67322266 34.96552734 -308.33984375 33.91015625 C-306.62548878 30.18655727 -304.25890394 27.49248699 -301.5625 24.4375 C-300.5836692 23.31203752 -299.60577978 22.18575551 -298.62890625 21.05859375 C-298.17016113 20.53378418 -297.71141602 20.00897461 -297.23876953 19.46826172 C-296.19120055 18.22662201 -295.22401279 16.91784096 -294.27734375 15.59765625 C-293.85582031 15.07042969 -293.43429687 14.54320312 -293 14 C-292.34 14 -291.68 14 -291 14 C-291 13.34 -291 12.68 -291 12 C-289.64453125 10.66796875 -289.64453125 10.66796875 -287.8125 9.1875 C-285.59499487 7.35217011 -283.5404891 5.5404891 -281.5 3.5 C-278.4988287 0.4988287 -275.42877012 -2.48672014 -272 -5 C-271.34 -5 -270.68 -5 -270 -5 C-270 -5.66 -270 -6.32 -270 -7 C-267.13505268 -9.40346752 -263.93038674 -11.37792589 -260.8125 -13.4375 C-259.86648926 -14.06277588 -258.92047852 -14.68805176 -257.94580078 -15.33227539 C-181.31815729 -65.15102557 -69.60982929 -61.13170906 0 0 Z " fill="#000000" transform="translate(2021,1051)"/>
<path d="M0 0 C1.06734375 0.54914063 1.06734375 0.54914063 2.15625 1.109375 C13.18343059 6.85269822 23.13593533 13.45458001 33 21 C33.99 21.66 34.98 22.32 36 23 C36 23.66 36 24.32 36 25 C36.84111328 25.36544922 36.84111328 25.36544922 37.69921875 25.73828125 C42.39306887 28.31232809 46.11360214 32.36102809 50 36 C50.62390625 36.58136719 51.2478125 37.16273437 51.890625 37.76171875 C97.95218438 82.20897114 115.58626298 148.29660169 116.95654297 210.29589844 C117.11621964 223.90609169 116.32863654 237.49855032 114.3046875 250.96191406 C113.96867512 253.20953537 113.65685827 255.4600167 113.34375 257.7109375 C112.12263761 266.21211685 110.56273028 274.3742516 108.03125 282.6015625 C106.92363597 286.25165417 105.99286886 289.92603347 105.0625 293.625 C103.2717566 300.38925338 100.81932046 306.61070409 98 313 C97.48373047 314.32257813 97.48373047 314.32257813 96.95703125 315.671875 C89.10540646 335.74028783 77.90117317 354.55562819 64 371 C63.53803223 371.55075195 63.07606445 372.10150391 62.60009766 372.66894531 C48.1889373 389.82884098 32.14648639 404.62734417 12.3984375 415.58984375 C9.9215233 416.91103078 9.9215233 416.91103078 8 419 C5.19924128 420.56243634 2.27645429 421.88537487 -0.625 423.25 C-1.47296143 423.65041504 -2.32092285 424.05083008 -3.19458008 424.46337891 C-10.98694166 428.0891887 -18.90824339 431.11321115 -27 434 C-27.6904541 434.27142822 -28.3809082 434.54285645 -29.09228516 434.82250977 C-29.79015137 435.09635498 -30.48801758 435.3702002 -31.20703125 435.65234375 C-31.83714111 435.90491943 -32.46725098 436.15749512 -33.11645508 436.41772461 C-36.14389221 437.3536206 -38.85471476 437.19658033 -42 437 C-42.33 437.66 -42.66 438.32 -43 439 C-44.91992187 439.5625 -44.91992187 439.5625 -47.46875 440 C-48.42031982 440.1640332 -49.37188965 440.32806641 -50.35229492 440.49707031 C-51.3910376 440.66303711 -52.42978027 440.82900391 -53.5 441 C-55.10161987 441.26055176 -55.10161987 441.26055176 -56.7355957 441.52636719 C-72.53553602 443.98390514 -88.99467618 445.8519255 -105 445 C-106.1763501 444.9383667 -106.1763501 444.9383667 -107.37646484 444.87548828 C-122.59512586 444.00322296 -137.17694445 441.49102706 -152 438 C-152.73718262 437.83242187 -153.47436523 437.66484375 -154.23388672 437.4921875 C-163.96172182 435.26382634 -172.96962243 431.79254316 -182.09277344 427.82861328 C-183.93737021 427.02721013 -185.78890195 426.24182804 -187.640625 425.45703125 C-205.75681723 417.5996595 -221.49383735 406.57565294 -235.984375 393.2578125 C-236.51297119 392.77223877 -237.04156738 392.28666504 -237.58618164 391.78637695 C-238.62651504 390.8288388 -239.66488103 389.86915711 -240.70092773 388.90698242 C-242.99734706 386.78406524 -245.3093409 384.7569776 -247.76953125 382.82421875 C-250.26229703 380.78547686 -251.35440661 378.74265565 -253 376 C-253.78375 375.401875 -254.5675 374.80375 -255.375 374.1875 C-258.80842668 371.3263111 -260.97970202 367.97181987 -263 364 C-263 363.34 -263 362.68 -263 362 C-263.66 362 -264.32 362 -265 362 C-277.35644135 347.98642657 -285.15391773 329.11346367 -292 312 C-292.54782975 310.67693946 -293.09597849 309.35401094 -293.64453125 308.03125 C-304.51738733 281.17076072 -309.51959881 251.89412976 -310 223 C-310.02578125 221.84016602 -310.0515625 220.68033203 -310.078125 219.48535156 C-310.44151721 201.42021608 -309.72142141 183.90306513 -307 166 C-306.77982001 164.39863347 -306.56098444 162.79708127 -306.34375 161.1953125 C-304.130441 145.72391425 -299.72686133 130.52854754 -294 116 C-293.465474 114.55754045 -292.931694 113.11480435 -292.3984375 111.671875 C-285.65912686 93.78223152 -276.90183195 76.79216564 -265.23095703 61.60449219 C-263.93722846 59.91818038 -262.66894179 58.21457581 -261.40234375 56.5078125 C-257.38947257 51.14402163 -253.31946589 46.02399555 -248.44140625 41.40625 C-246.82827053 39.89716225 -246.82827053 39.89716225 -245.0625 37.5 C-242.08430504 33.89006672 -238.55907287 31.02222947 -235 28 C-234.00806641 27.11828125 -234.00806641 27.11828125 -232.99609375 26.21875 C-232.37863281 25.6721875 -231.76117188 25.125625 -231.125 24.5625 C-230.57070313 24.06878906 -230.01640625 23.57507812 -229.4453125 23.06640625 C-228 22 -228 22 -226 22 C-226 21.34 -226 20.68 -226 20 C-224.31030273 18.61474609 -224.31030273 18.61474609 -221.93359375 17.0234375 C-221.06355713 16.43908936 -220.19352051 15.85474121 -219.29711914 15.25268555 C-218.35344482 14.63304932 -217.40977051 14.01341309 -216.4375 13.375 C-214.99201782 12.42330933 -214.99201782 12.42330933 -213.51733398 11.45239258 C-192.26667495 -2.38964992 -169.74569525 -11.45823952 -145 -17 C-144.25524414 -17.16725586 -143.51048828 -17.33451172 -142.74316406 -17.50683594 C-95.61469347 -27.80027832 -43.03812333 -22.20220648 0 0 Z M-140 50.125 C-140.83321777 50.42212891 -141.66643555 50.71925781 -142.52490234 51.02539062 C-154.20921124 55.36495854 -166.54330655 61.79359054 -176 70 C-176 70.66 -176 71.32 -176 72 C-176.54527344 72.22429687 -177.09054687 72.44859375 -177.65234375 72.6796875 C-188.76908975 78.93170106 -196.35817634 91.53318534 -203 102 C-203.65871094 103.01964844 -204.31742188 104.03929687 -204.99609375 105.08984375 C-209.58913355 112.54713999 -212.92545577 120.44517954 -216.05859375 128.59887695 C-216.74053898 130.33822638 -217.45591837 132.06458809 -218.19140625 133.78198242 C-222.06857916 143.13684055 -223.9497317 152.52797846 -225.75 162.4375 C-226.05487855 164.06205786 -226.36086254 165.68640866 -226.66796875 167.31054688 C-227.46303205 171.53734477 -228.24193789 175.7663927 -229 180 C-229.18933105 180.9377124 -229.37866211 181.8754248 -229.57373047 182.84155273 C-230.18963711 187.4051176 -230.22267773 191.93845305 -230.2734375 196.5390625 C-230.28587494 197.56531235 -230.29831238 198.59156219 -230.31112671 199.64891052 C-230.51622152 220.63394612 -230.66509526 240.85277046 -225.64501953 261.34472656 C-225.05047702 263.79220739 -224.53785673 266.23872604 -224.05859375 268.7109375 C-219.88638625 289.51559383 -210.98226779 311.15813909 -198 328 C-197.36578125 328.825 -196.7315625 329.65 -196.078125 330.5 C-194.88671312 332.03603515 -193.68841695 333.56677862 -192.48046875 335.08984375 C-191.25148105 336.67552973 -190.11283571 338.33074643 -189 340 C-188.34 340 -187.68 340 -187 340 C-186.76152344 340.57621094 -186.52304687 341.15242188 -186.27734375 341.74609375 C-184.73799174 344.46232039 -182.93475813 346.04082189 -180.5625 348.0625 C-176.1053432 351.88816506 -176.1053432 351.88816506 -174.60546875 353.48046875 C-152.2030506 374.6837307 -117.46366746 379.69930639 -88 379 C-71.14854138 377.87768616 -55.66212759 373.94835916 -40.25 367.0625 C-39.33323486 366.65580078 -38.41646973 366.24910156 -37.47192383 365.83007812 C-32.52849518 363.52567072 -28.45066434 361.05404549 -24.45776367 357.32373047 C-23 356 -23 356 -20.0625 354.0625 C-13.10848149 349.37918141 -7.84889791 343.87969626 -2.76171875 337.234375 C-1 335 -1 335 0.5078125 333.515625 C21.88040236 311.80734001 30.90402121 275.07656981 35 246 C35.25269653 244.30206299 35.25269653 244.30206299 35.51049805 242.56982422 C36.92971914 232.34511068 37.35663113 222.31555132 37.3125 212 C37.3117598 210.80191208 37.3117598 210.80191208 37.31100464 209.57962036 C37.2829026 194.64776053 36.69856605 179.53783979 33 165 C32.70319943 163.59145209 32.41453844 162.18117153 32.1328125 160.76953125 C31.88724609 159.56393555 31.88724609 159.56393555 31.63671875 158.33398438 C31.29968807 156.67327211 30.96626163 155.01182368 30.63671875 153.34960938 C26.31921175 132.31431363 16.64816835 112.8548566 5 95 C4.58363281 94.33226562 4.16726563 93.66453125 3.73828125 92.9765625 C2.87899831 91.61576498 1.94868579 90.3000509 1 89 C0.34 89 -0.32 89 -1 89 C-1.23976563 88.44441406 -1.47953125 87.88882812 -1.7265625 87.31640625 C-3.28451443 84.48246302 -5.20182785 82.3308773 -7.375 79.9375 C-8.14585937 79.08027344 -8.91671875 78.22304687 -9.7109375 77.33984375 C-11.7173198 75.28895126 -13.59704574 73.55936393 -16 72 C-16.66 72 -17.32 72 -18 72 C-18.23976563 71.40960937 -18.47953125 70.81921875 -18.7265625 70.2109375 C-25.74154574 58.03154941 -47.65869051 52.21441111 -60.4375 48.375 C-61.11707764 48.16866943 -61.79665527 47.96233887 -62.49682617 47.74975586 C-73.14335661 44.6446754 -83.42693352 43.65130351 -94.47729492 43.68432617 C-96.66701873 43.68747059 -98.85536539 43.66399746 -101.04492188 43.63867188 C-114.48647616 43.57675793 -127.30980625 45.5339531 -140 50.125 Z " fill="#000000" transform="translate(724,1024)"/>
<path d="M0 0 C0.81339844 0.79148437 1.62679688 1.58296875 2.46484375 2.3984375 C2.46484375 3.0584375 2.46484375 3.7184375 2.46484375 4.3984375 C3.05910156 4.66785156 3.65335938 4.93726563 4.265625 5.21484375 C34.99216481 21.75150727 54.12865176 75.03697408 63.43701172 105.83203125 C71.3703347 133.35934293 74.03751291 161.83908968 73.46484375 190.3984375 C73.44808594 191.68621094 73.43132812 192.97398437 73.4140625 194.30078125 C72.78458328 217.77665346 68.35817088 242.00043998 61.46484375 264.3984375 C61.21009277 265.23552246 60.9553418 266.07260742 60.69287109 266.93505859 C50.50743163 299.71365469 32.80247755 330.14302543 8.46484375 354.3984375 C7.41296875 355.7596875 7.41296875 355.7596875 6.33984375 357.1484375 C3.17777105 361.01209508 -0.72022185 363.96371452 -4.61328125 367.05859375 C-6.42445026 368.50898177 -8.21149834 369.99078226 -9.95703125 371.51953125 C-36.26549593 394.35092177 -71.31996808 407.74738231 -105.53515625 412.3984375 C-106.42074219 412.55957031 -107.30632812 412.72070312 -108.21875 412.88671875 C-118.69956194 414.50389939 -129.20386393 414.639088 -139.78515625 414.6484375 C-140.57928925 414.64944458 -141.37342224 414.65045166 -142.19161987 414.65148926 C-155.50150487 414.64011915 -168.42429726 413.83461099 -181.53515625 411.3984375 C-182.40462891 411.23794922 -183.27410156 411.07746094 -184.16992188 410.91210938 C-195.62016929 408.74446788 -206.73272334 406.28944288 -217.33984375 401.35546875 C-219.44775373 400.43654002 -221.52248677 399.74761209 -223.72265625 399.0859375 C-232.08445829 396.41664972 -240.08726007 391.9889647 -247.53515625 387.3984375 C-248.57671875 386.7590625 -249.61828125 386.1196875 -250.69140625 385.4609375 C-252.92057292 384.0859375 -255.14973958 382.7109375 -257.37890625 381.3359375 C-259.37647535 380.10970697 -261.3955791 378.91734085 -263.44140625 377.7734375 C-264.4778125 377.0928125 -264.4778125 377.0928125 -265.53515625 376.3984375 C-265.53515625 375.7384375 -265.53515625 375.0784375 -265.53515625 374.3984375 C-266.10363281 374.13675781 -266.67210937 373.87507813 -267.2578125 373.60546875 C-273.41417863 370.3424891 -278.77200071 365.42621279 -283.53515625 360.3984375 C-284.31890625 359.6146875 -285.10265625 358.8309375 -285.91015625 358.0234375 C-286.77640625 357.1571875 -287.64265625 356.2909375 -288.53515625 355.3984375 C-289.05980469 354.89699219 -289.58445312 354.39554688 -290.125 353.87890625 C-302.30664062 342.08398438 -302.30664062 342.08398438 -304.53515625 335.3984375 C-305.19515625 335.3984375 -305.85515625 335.3984375 -306.53515625 335.3984375 C-308.26953125 333.125 -308.26953125 333.125 -310.28515625 330.0234375 C-310.82293701 329.19598022 -310.82293701 329.19598022 -311.37158203 328.35180664 C-312.4349715 326.70637886 -313.48526535 325.05251091 -314.53515625 323.3984375 C-315.03273438 322.62113281 -315.5303125 321.84382813 -316.04296875 321.04296875 C-324.23437479 307.81969899 -331.10585371 293.96217472 -336.53515625 279.3984375 C-337.01118286 278.22776733 -337.01118286 278.22776733 -337.49682617 277.03344727 C-344.96966296 258.06934489 -350.00408866 237.55292422 -352.1015625 217.27734375 C-352.28563997 213.60990087 -352.28563997 213.60990087 -353.53515625 211.3984375 C-353.64015336 209.89185907 -353.68385324 208.38078702 -353.69628906 206.87060547 C-353.70589661 205.92716278 -353.71550415 204.98372009 -353.72540283 204.01168823 C-353.72965271 202.98173737 -353.73390259 201.9517865 -353.73828125 200.890625 C-353.74398132 199.81837677 -353.7496814 198.74612854 -353.7555542 197.64138794 C-353.76502883 195.35305775 -353.77154789 193.06471376 -353.77539062 190.77636719 C-353.78490471 187.36366544 -353.815819 183.95161763 -353.84765625 180.5390625 C-353.94472088 160.69164823 -351.955962 141.32121866 -347.84765625 121.8984375 C-347.59491943 120.69485596 -347.34218262 119.49127441 -347.08178711 118.2512207 C-343.21990824 100.62029849 -337.28090874 83.68756 -329.53515625 67.3984375 C-328.98214844 66.22410156 -328.42914062 65.04976562 -327.859375 63.83984375 C-318.3438789 44.21823454 -306.11857613 25.7509919 -290.53515625 10.3984375 C-289.51357214 9.3457383 -288.49416577 8.29092281 -287.4765625 7.234375 C-277.45641622 -3.07847128 -266.88038976 -11.91414658 -254.84765625 -19.7890625 C-254.25919922 -20.17618408 -253.67074219 -20.56330566 -253.06445312 -20.9621582 C-250.31646077 -22.70623131 -248.85669939 -23.6015625 -245.53515625 -23.6015625 C-245.53515625 -24.2615625 -245.53515625 -24.9215625 -245.53515625 -25.6015625 C-164.90050122 -65.23674153 -69.29848967 -60.34713501 0 0 Z M-184.53515625 21.3984375 C-185.5715625 21.76839844 -186.60796875 22.13835937 -187.67578125 22.51953125 C-208.71626517 30.12302366 -229.30785803 45.34660074 -241.53515625 64.3984375 C-242.4478125 65.80609375 -242.4478125 65.80609375 -243.37890625 67.2421875 C-245.13141483 70.01923956 -246.83725968 72.816569 -248.50292969 75.64648438 C-249.50468783 77.34672478 -250.52357881 79.03683443 -251.54296875 80.7265625 C-263.67013804 101.55798156 -270.08067127 127.52056727 -272.53515625 151.3984375 C-272.62055664 152.20700195 -272.70595703 153.01556641 -272.79394531 153.84863281 C-277.64246312 204.57559868 -270.98003221 261.26422111 -238.53515625 302.3984375 C-237.47075507 303.85538379 -236.40811552 305.31361953 -235.34765625 306.7734375 C-231.34677315 312.06840677 -226.62779436 316.17263141 -221.53515625 320.3984375 C-220.931875 321.02105469 -220.32859375 321.64367188 -219.70703125 322.28515625 C-206.40263465 335.23062128 -188.16535897 341.90875855 -170.53515625 346.3984375 C-169.68179687 346.63304687 -168.8284375 346.86765625 -167.94921875 347.109375 C-135.5598737 354.95100591 -99.50277379 347.27788344 -71.53515625 330.3984375 C-70.57609375 329.86476563 -69.61703125 329.33109375 -68.62890625 328.78125 C-67.93796875 328.32492187 -67.24703125 327.86859375 -66.53515625 327.3984375 C-66.53515625 326.7384375 -66.53515625 326.0784375 -66.53515625 325.3984375 C-65.84550781 325.19992187 -65.15585938 325.00140625 -64.4453125 324.796875 C-60.499118 322.90058288 -57.97461992 320.16012681 -54.97265625 317.0234375 C-54.12670898 316.1571875 -54.12670898 316.1571875 -53.26367188 315.2734375 C-52.17131935 314.15425526 -51.08277077 313.03134437 -49.99853516 311.90429688 C-48.7606726 310.63050037 -47.48925143 309.38944697 -46.2109375 308.15625 C-44.22767458 306.07590428 -43.43733027 304.10495956 -42.53515625 301.3984375 C-41.87515625 301.3984375 -41.21515625 301.3984375 -40.53515625 301.3984375 C-39.32408628 299.91803274 -39.32408628 299.91803274 -38.1796875 297.953125 C-37.7256958 297.21368652 -37.2717041 296.47424805 -36.80395508 295.71240234 C-36.32337646 294.90754395 -35.84279785 294.10268555 -35.34765625 293.2734375 C-34.85225342 292.44666504 -34.35685059 291.61989258 -33.84643555 290.76806641 C-32.39392126 288.32015749 -30.95983472 285.86263428 -29.53515625 283.3984375 C-29.18195313 282.79128906 -28.82875 282.18414063 -28.46484375 281.55859375 C-2.32156643 235.75293558 -0.68423134 172.31217482 -13.53515625 122.3984375 C-13.83292969 121.17640625 -14.13070313 119.954375 -14.4375 118.6953125 C-16.23265553 111.57236607 -18.36815817 104.86680965 -21.33203125 98.14453125 C-22.41628954 95.66974691 -23.35685546 93.18438647 -24.28515625 90.6484375 C-26.14728219 85.95892033 -28.51201337 81.60623818 -30.97265625 77.2109375 C-31.34422852 76.54545898 -31.71580078 75.87998047 -32.09863281 75.19433594 C-34.65271404 70.71634348 -37.36990602 66.47257427 -40.53515625 62.3984375 C-41.19515625 62.3984375 -41.85515625 62.3984375 -42.53515625 62.3984375 C-42.78265625 61.6765625 -43.03015625 60.9546875 -43.28515625 60.2109375 C-45.15649807 56.00041842 -48.04377962 52.41371732 -51.53515625 49.3984375 C-52.19515625 49.3984375 -52.85515625 49.3984375 -53.53515625 49.3984375 C-53.53515625 48.7384375 -53.53515625 48.0784375 -53.53515625 47.3984375 C-56.00279642 44.85011155 -58.80229522 42.65601835 -61.53515625 40.3984375 C-62.24414062 39.80289062 -62.953125 39.20734375 -63.68359375 38.59375 C-71.81265243 31.990724 -80.92134863 27.43817688 -90.53515625 23.3984375 C-91.65845337 22.92253174 -91.65845337 22.92253174 -92.80444336 22.43701172 C-108.46553735 15.97105446 -124.1502995 13.9160438 -140.97265625 13.8984375 C-141.67769287 13.8941272 -142.38272949 13.88981689 -143.10913086 13.88537598 C-157.54673494 13.84753718 -171.0711803 15.97004257 -184.53515625 21.3984375 Z " fill="#000000" transform="translate(1564.53515625,1053.6015625)"/>
<path d="M0 0 C26.07 0 52.14 0 79 0 C80.97864594 1.97864594 80.15475141 5.89248616 80.15821838 8.59913635 C80.16562535 9.80710771 80.16562535 9.80710771 80.17318195 11.03948253 C80.18863454 13.75882275 80.19693845 16.47813922 80.20532227 19.19750977 C80.2148947 21.13852144 80.2249044 23.079531 80.23532104 25.02053833 C80.26244497 30.30748712 80.28341385 35.59444492 80.30332303 40.88142514 C80.32513657 46.4001285 80.35254784 51.91880391 80.37937927 57.43748474 C80.429369 67.89577131 80.47428445 78.35407335 80.51740164 88.81239027 C80.56672046 100.71547026 80.62165838 112.6185222 80.67708123 124.52157509 C80.79099764 149.01435725 80.89781554 173.50716629 81 198 C81.62648438 197.21238281 82.25296875 196.42476562 82.8984375 195.61328125 C86.0769573 191.66080961 86.0769573 191.66080961 88 190 C88.66 190 89.32 190 90 190 C90.268125 189.360625 90.53625 188.72125 90.8125 188.0625 C92 186 92 186 95 185 C95.33 184.01 95.66 183.02 96 182 C96.66 182 97.32 182 98 182 C98.268125 181.360625 98.53625 180.72125 98.8125 180.0625 C100 178 100 178 103 177 C103.33 176.34 103.66 175.68 104 175 C105 173 105 173 108 172 C108 171.34 108 170.68 108 170 C108.66 170 109.32 170 110 170 C110.226875 169.443125 110.45375 168.88625 110.6875 168.3125 C112.35037357 165.38267513 114.609954 163.33357999 117 161 C120.23374768 157.79627239 123.46022756 154.5852484 126.6875 151.375 C127.9878418 150.08722656 127.9878418 150.08722656 129.31445312 148.7734375 C130.14267578 147.9484375 130.97089844 147.1234375 131.82421875 146.2734375 C132.57791748 145.52497559 133.33161621 144.77651367 134.1081543 144.00537109 C136.15748846 141.94520496 136.15748846 141.94520496 138 139 C138.66 139 139.32 139 140 139 C140.31517578 138.19369141 140.31517578 138.19369141 140.63671875 137.37109375 C142.51940795 134.09661712 145.12213364 131.6682841 147.8125 129.0625 C148.33392578 128.55009766 148.85535156 128.03769531 149.39257812 127.50976562 C150.42998225 126.49049341 151.46919125 125.47305472 152.51025391 124.45751953 C154.69176413 122.32320029 156.84554279 120.16157939 159 118 C161.66666667 115.33333333 164.33333333 112.66666667 167 110 C168.12921875 108.86884766 168.12921875 108.86884766 169.28125 107.71484375 C171.38052731 105.61858264 173.48529475 103.52840279 175.59375 101.44140625 C176.89587937 100.14848386 178.19796179 98.85551419 179.5 97.5625 C180.47646484 96.59860352 180.47646484 96.59860352 181.47265625 95.61523438 C184.41659301 92.68616598 187.24659301 89.77093388 189.84375 86.52734375 C190.5553125 85.69332031 191.266875 84.85929687 192 84 C192.66 84 193.32 84 194 84 C194.33197388 83.1790686 194.33197388 83.1790686 194.6706543 82.34155273 C196.41575028 79.26768395 198.76594952 76.98694375 201.26953125 74.53515625 C201.78754807 74.01996933 202.30556488 73.50478241 202.83927917 72.97398376 C204.49236715 71.3320505 206.15226177 69.69719981 207.8125 68.0625 C208.91777871 66.96726191 210.02260128 65.87156329 211.12695312 64.77539062 C213.16881385 62.7498107 215.21334469 60.72701058 217.26098633 58.70727539 C219.85044852 56.14781856 222.42577967 53.57476635 225 51 C225.825 50.195625 226.65 49.39125 227.5 48.5625 C230.07253019 45.9925025 230.07253019 45.9925025 232.5 43 C234.87353344 40.15175988 237.27004182 37.50861022 240 35 C240.66 35 241.32 35 242 35 C242.25072266 34.42475586 242.50144531 33.84951172 242.75976562 33.25683594 C244.16728827 30.69558804 245.78170025 28.95942608 247.84375 26.890625 C248.59527344 26.13652344 249.34679688 25.38242188 250.12109375 24.60546875 C251.29865234 23.43951172 251.29865234 23.43951172 252.5 22.25 C253.67755859 21.06083984 253.67755859 21.06083984 254.87890625 19.84765625 C256.00619141 18.72423828 256.00619141 18.72423828 257.15625 17.578125 C257.84525391 16.89137695 258.53425781 16.20462891 259.24414062 15.49707031 C261 14 261 14 263 14 C263.3403125 13.1646875 263.3403125 13.1646875 263.6875 12.3125 C265.36430501 9.35812928 267.57324352 7.36897657 270 5 C270.51923035 4.13385574 271.03846069 3.26771149 271.57342529 2.37532043 C274.705623 -0.69071878 276.46722609 -0.58691254 280.71688843 -0.62210083 C282.06987534 -0.59513626 282.06987534 -0.59513626 283.45019531 -0.56762695 C284.40662933 -0.56835709 285.36306335 -0.56908722 286.34848022 -0.56983948 C289.50893929 -0.56635681 292.6679235 -0.52746249 295.828125 -0.48828125 C298.01958409 -0.47895557 300.21105361 -0.4718383 302.40252686 -0.46684265 C308.16988923 -0.44775377 313.93662179 -0.39863586 319.70373535 -0.34332275 C325.58886189 -0.29217152 331.47409023 -0.26933738 337.359375 -0.24414062 C348.90652668 -0.19051962 360.45321097 -0.1051833 372 0 C370.98087797 5.22853909 367.61196551 7.75072673 363.5 10.9375 C360.57679375 13.34914516 358.39404964 16.0672892 356 19 C353.58003771 21.5409604 351.20383254 23.84091119 348.4375 26 C345.85522947 28.11878607 344.05109914 30.37202922 342 33 C339.28509102 35.86166082 336.46039445 38.47446212 333.4375 41 C330.55772117 43.43195146 328.30342609 46.00554608 326 49 C323.5844822 51.53939051 321.20100612 53.84311718 318.4375 56 C315.85522947 58.11878607 314.05109914 60.37202922 312 63 C309.30057467 65.84534021 306.4877597 68.46591314 303.5 71 C299.49245203 74.40034373 295.86984376 77.95618749 292.5 82 C289.13015624 86.04381251 285.50754797 89.59965627 281.5 93 C277.32718448 96.54193628 273.56757878 100.29572157 270.0625 104.5 C267.29941943 107.77318775 264.32856088 110.30882312 261 113 C259.31066078 114.6436814 257.64740076 116.3142876 256 118 C254.50137049 119.50136924 253.00124018 121.00124121 251.5 122.5 C250.72140625 123.27988281 249.9428125 124.05976562 249.140625 124.86328125 C247.51996852 126.48098033 245.88768152 128.08703852 244.25 129.6875 C241.88983816 132.04438774 241.88983816 132.04438774 239.5625 135 C236.93248768 138.07903881 234.1374966 140.45078401 231 143 C229.3186872 144.65390009 227.65683583 146.32187551 226 148 C224.65702106 149.34452062 223.31319747 150.68819783 221.96875 152.03125 C221.24042969 152.75957031 220.51210937 153.48789063 219.76171875 154.23828125 C212.17447917 161.82552083 204.58723958 169.41276042 197 177 C200.4989912 183.4119863 204.63938396 189.22138514 208.9296875 195.12304688 C209.45304687 195.85201172 209.97640625 196.58097656 210.515625 197.33203125 C210.99290039 197.98921143 211.47017578 198.6463916 211.96191406 199.32348633 C213 201 213 201 213 203 C213.66 203 214.32 203 215 203 C216.33984375 204.87890625 216.33984375 204.87890625 217.9375 207.5625 C220.8705474 212.30892525 223.98901766 216.83166108 227.3125 221.3125 C227.78284668 221.94736328 228.25319336 222.58222656 228.73779297 223.23632812 C229.69293641 224.52546283 230.64817712 225.81452547 231.60351562 227.10351562 C233.78670106 230.06837305 235.92720365 233.06304757 238.0625 236.0625 C238.47234131 236.63806641 238.88218262 237.21363281 239.30444336 237.80664062 C240.12815796 238.96403028 240.95164542 240.12158163 241.77490234 241.27929688 C243.39535701 243.55529618 245.02204151 245.82680798 246.64868164 248.09838867 C248.30608059 250.41505162 249.9585934 252.735184 251.61132812 255.05517578 C252.60791655 256.45089017 253.6068962 257.84489832 254.60742188 259.23779297 C256.28419265 261.57218742 257.9549499 263.91079445 259.625 266.25 C260.15851074 266.98968018 260.69202148 267.72936035 261.24169922 268.49145508 C261.7317041 269.18005615 262.22170898 269.86865723 262.7265625 270.578125 C263.16564941 271.19075195 263.60473633 271.80337891 264.05712891 272.43457031 C265 274 265 274 265 276 C265.66 276 266.32 276 267 276 C268.26611328 277.62158203 268.26611328 277.62158203 269.6953125 279.8828125 C272.97314237 284.96553596 276.40143691 289.92449259 279.875 294.875 C280.80397095 296.20023682 280.80397095 296.20023682 281.75170898 297.55224609 C286.10375864 303.74956481 290.52319269 309.89223687 295 316 C301.72281078 325.1993861 308.35098442 334.44675329 314.75 343.875 C318.91957192 350.01788188 323.19309257 356.01786499 327.6953125 361.921875 C332.11686323 367.82726817 336.30702498 373.89975954 340.54638672 379.93652344 C342.68234994 382.96862978 344.83983727 385.98510918 347 389 C350.68842024 394.15144154 354.34987273 399.32136021 358 404.5 C361.69371294 409.73971337 365.39796993 414.97143057 369.125 420.1875 C369.72127197 421.02547119 369.72127197 421.02547119 370.32958984 421.88037109 C372.47329522 424.88817876 374.64229236 427.87399109 376.84375 430.83984375 C377.54153564 431.78984253 377.54153564 431.78984253 378.25341797 432.7590332 C379.14571251 433.97295403 380.04542333 435.18146991 380.95361328 436.38354492 C383.33885228 439.64580907 384 440.8106465 384 445 C371.49133667 445.23196531 358.98318697 445.40951601 346.47280884 445.51812172 C340.66322731 445.57025528 334.85511983 445.64093273 329.04638672 445.75439453 C323.4376687 445.86326056 317.83036582 445.92288502 312.22067261 445.94877243 C310.08350343 445.96721332 307.94640956 446.0032273 305.80984497 446.05730057 C289.10849484 446.46307534 289.10849484 446.46307534 283.8984375 442.84783936 C280.83275151 439.1610439 278.93374886 435.71242794 278 431 C277.34 431 276.68 431 276 431 C274.66015625 429.15625 274.66015625 429.15625 273.0625 426.5 C270.09445201 421.7045175 267.01497278 417.01718968 263.8125 412.375 C263.35383545 411.70823242 262.8951709 411.04146484 262.42260742 410.35449219 C259.86882026 406.65689859 257.28136192 402.98606308 254.66015625 399.3359375 C253.83777466 398.18665771 253.83777466 398.18665771 252.9987793 397.01416016 C251.93675439 395.53329728 250.86941023 394.05623108 249.79614258 392.58349609 C249.3142749 391.91141113 248.83240723 391.23932617 248.3359375 390.546875 C247.69470947 389.66273926 247.69470947 389.66273926 247.04052734 388.76074219 C245.91530182 386.85667684 245.42994903 385.15982669 245 383 C244.34 383 243.68 383 243 383 C241.85498047 381.56298828 241.85498047 381.56298828 240.6171875 379.5703125 C240.17246094 378.85746094 239.72773437 378.14460938 239.26953125 377.41015625 C238.80933594 376.65605469 238.34914063 375.90195313 237.875 375.125 C237.40707031 374.37863281 236.93914062 373.63226562 236.45703125 372.86328125 C233 367.26954264 233 367.26954264 233 365 C232.38382813 364.74734375 231.76765625 364.4946875 231.1328125 364.234375 C228.63521583 362.78887949 228.10315224 361.82235036 226.875 359.25 C222.93222198 351.68280491 217.6559702 344.91552706 212.57421875 338.08300781 C209 333.21753961 209 333.21753961 209 331 C208.34 331 207.68 331 207 331 C205.73828125 329.1640625 205.73828125 329.1640625 204.3125 326.625 C201.7003227 322.12168223 198.87421173 317.87886018 195.85546875 313.640625 C193.8269128 310.75366959 191.88012623 307.82039139 189.9375 304.875 C187.12470451 300.62016706 184.20080178 296.51909586 181.03125 292.5234375 C180 291 180 291 180 289 C179.34 289 178.68 289 178 289 C177.66226562 288.37351562 177.32453125 287.74703125 176.9765625 287.1015625 C176.30753906 285.87566406 176.30753906 285.87566406 175.625 284.625 C175.18414063 283.81289062 174.74328125 283.00078125 174.2890625 282.1640625 C173.0556107 279.89185698 173.0556107 279.89185698 171 278 C169.87389326 276.26403697 168.77291427 274.51169234 167.6875 272.75 C165.64042116 269.47809993 163.61915817 266.3926761 161.0625 263.5 C159 261 159 261 159 258 C158.34 258 157.68 258 157 258 C156.505 257.071875 156.01 256.14375 155.5 255.1875 C152.97718222 250.73173191 149.89699906 246.72095348 146.8046875 242.6484375 C145.09837928 240.14437479 143.9977684 237.84929739 143 235 C141.948125 235.721875 140.89625 236.44375 139.8125 237.1875 C139.22082031 237.59355469 138.62914062 237.99960938 138.01953125 238.41796875 C135.46414493 240.41977041 133.28342993 242.69245139 131 245 C130.20467361 245.797547 129.40934723 246.59509399 128.58992004 247.41680908 C127.75434067 248.25540466 126.91876129 249.09400024 126.05786133 249.95800781 C121.34661003 254.68550955 116.63288789 259.41053912 111.91769886 264.13411331 C109.07182401 266.98523236 106.22690361 269.83729119 103.3840332 272.69140625 C100.62480057 275.46147769 97.86315533 278.22912229 95.0997982 280.99507904 C94.04832609 282.04840023 92.99773521 283.10260186 91.9480381 284.15769196 C90.4856487 285.62730714 89.0201936 287.09379681 87.55395508 288.55957031 C86.30416618 289.81269012 86.30416618 289.81269012 85.02912903 291.09112549 C83 293 83 293 81 294 C80.99576806 294.76606253 80.99153612 295.53212505 80.98717594 296.3214016 C80.88398165 314.94028261 80.77536088 333.55912467 80.66066074 352.17793846 C80.60532479 361.18176335 80.55184219 370.1855922 80.50268555 379.18945312 C80.45984826 387.03496443 80.41357144 394.88044651 80.36312145 402.72591269 C80.33651683 406.88204827 80.31166367 411.03817804 80.29092598 415.19434738 C80.27136943 419.1029232 80.24722862 423.01144337 80.21950912 426.91996956 C80.21013348 428.35752034 80.20246005 429.79508333 80.19658089 431.23265266 C80.18832854 433.18941774 80.17346283 435.14615166 80.15821838 437.10287476 C80.15176583 438.19980841 80.14531328 439.29674206 80.1386652 440.42691612 C80 443 80 443 79 445 C52.93 445 26.86 445 0 445 C0 298.15 0 151.3 0 0 Z " fill="#000000" transform="translate(878,1013)"/>
<path d="M0 0 C10.90031343 -0.11573798 21.80048124 -0.20463611 32.70128345 -0.25906086 C37.76274597 -0.28517928 42.82378882 -0.32061827 47.88500977 -0.37719727 C52.76740848 -0.43143702 57.64940301 -0.46140361 62.5320797 -0.47438622 C64.396902 -0.48364058 66.26170162 -0.50171202 68.12635231 -0.52865028 C70.73422041 -0.56483472 73.34040849 -0.56994994 75.94848633 -0.56762695 C76.72316254 -0.58560333 77.49783875 -0.60357971 78.29598999 -0.62210083 C80.45027161 -0.60127258 80.45027161 -0.60127258 84 0 C85.93270874 2.37031555 85.93270874 2.37031555 87 5 C87.37229736 5.87205078 87.74459473 6.74410156 88.12817383 7.64257812 C88.48419678 8.59583984 88.84021973 9.54910156 89.20703125 10.53125 C89.82940674 12.1855603 89.82940674 12.1855603 90.46435547 13.87329102 C90.90924316 15.07010498 91.35413086 16.26691895 91.8125 17.5 C92.28738856 18.76574433 92.76282537 20.03128308 93.23876953 21.29663086 C94.27067393 24.04179372 95.30006491 26.78788043 96.32763672 29.53466797 C99.02441693 36.74002439 101.74041804 43.93812891 104.45907593 51.13525391 C105.3546939 53.5086878 106.24744249 55.88318595 107.13989258 58.2578125 C109.92883653 65.66072387 112.7930412 73.01038771 115.87402344 80.2980957 C117.66559976 84.59717965 119.30091707 88.95258637 120.9375 93.3125 C123.70606049 100.63816583 126.55452494 107.92139652 129.4855957 115.18359375 C130.95205533 118.85220495 132.34128478 122.54696937 133.71875 126.25 C137.2050094 135.58791494 140.78876823 144.88762612 144.375 154.1875 C145.71273459 157.65866362 147.04993739 161.13003167 148.38671875 164.6015625 C148.70818375 165.43633621 149.02964874 166.27110992 149.3608551 167.13117981 C151.65784093 173.10026233 153.92840352 179.07898051 156.1875 185.0625 C159.85646646 194.76311731 163.72934899 204.38248798 167.61401367 213.99829102 C170.64680327 221.52662556 173.5600096 229.08908548 176.39257812 236.6940918 C179.44813724 244.89546219 182.57329649 253.07076587 185.6875 261.25 C186.03627197 262.16631195 186.38504395 263.0826239 186.74438477 264.02670288 C191.53393371 276.60391308 196.38081766 289.15539632 201.32763672 301.67163086 C204.37696474 309.39049731 207.35268126 317.13458647 210.29052734 324.89648438 C212.61739981 331.0321751 215.03989622 337.12370792 217.49560547 343.20874023 C218.91355311 346.75576072 220.2541674 350.32832488 221.58203125 353.91015625 C224.18547134 360.89252461 226.86488109 367.84411038 229.56640625 374.7890625 C229.97111145 375.82973373 230.37581665 376.87040497 230.79278564 377.94261169 C232.47195541 382.25821473 234.152417 386.57331142 235.8347168 390.88769531 C244.49315397 413.10115738 244.49315397 413.10115738 247.96948242 423.15966797 C249.4638743 427.27853913 251.20751074 431.27768243 252.984375 435.28125 C254.07497174 438.20069357 254.66197919 440.90444102 255 444 C253.24560837 445.75439163 250.94502544 445.11982963 248.60829163 445.12442017 C247.8357756 445.12082489 247.06325958 445.11722961 246.26733398 445.11352539 C245.05279541 445.11374443 245.05279541 445.11374443 243.8137207 445.1139679 C241.12448492 445.11326854 238.43531751 445.1054751 235.74609375 445.09765625 C233.88664284 445.09579215 232.02719144 445.09436821 230.16773987 445.09336853 C225.26370904 445.08954271 220.35970764 445.07971188 215.45568848 445.06866455 C210.45548908 445.05845181 205.45528494 445.05387121 200.45507812 445.04882812 C190.63670579 445.03808967 180.81835534 445.02101248 171 445 C165.657793 434.63172085 165.657793 434.63172085 163.8671875 429.01953125 C163.53589844 428.00052734 163.20460938 426.98152344 162.86328125 425.93164062 C162.53714844 424.90232422 162.21101563 423.87300781 161.875 422.8125 C161.20857958 420.73476067 160.53937722 418.65791127 159.8671875 416.58203125 C159.57956543 415.67686768 159.29194336 414.7717041 158.99560547 413.83911133 C158.25534412 411.72815026 157.42076048 409.64979608 156.53881836 407.59399414 C155.03056448 404.071385 153.74600104 400.54091218 152.51171875 396.9140625 C152.28794052 396.25935974 152.06416229 395.60465698 151.83360291 394.93011475 C151.35960927 393.5425708 150.88679659 392.15462293 150.4151001 390.76629639 C149.18971844 387.16004987 147.95547094 383.5568357 146.72265625 379.953125 C146.4830719 379.2519455 146.24348755 378.55076599 145.99664307 377.82833862 C143.38814187 370.19834244 140.70991032 362.59444004 138 355 C137.34257812 353.15148438 137.34257812 353.15148438 136.671875 351.265625 C134.27139943 344.51653987 134.27139943 344.51653987 131.80078125 337.79296875 C131.43339844 336.80941406 131.06601563 335.82585937 130.6875 334.8125 C130.36136719 333.95269531 130.03523438 333.09289063 129.69921875 332.20703125 C129 330 129 330 129 327 C42.375 327.495 42.375 327.495 -46 328 C-52.22445612 345.09293624 -52.22445612 345.09293624 -58.31640625 362.23046875 C-60.03314314 367.1088893 -61.780238 371.97632607 -63.52514648 376.84472656 C-67.34398849 387.50243166 -71.12009078 398.17278265 -74.8125 408.875 C-79.00115203 421.01396633 -83.22893395 433.07233488 -88 445 C-114.73 445 -141.46 445 -169 445 C-170.1387433 441.58377009 -169.89981978 441.05838188 -168.62890625 437.8515625 C-168.30615723 437.02245361 -167.9834082 436.19334473 -167.65087891 435.33911133 C-167.29171387 434.44345459 -166.93254883 433.54779785 -166.5625 432.625 C-165.81094553 430.70452583 -165.05965029 428.7839502 -164.30859375 426.86328125 C-163.92171387 425.88311035 -163.53483398 424.90293945 -163.13623047 423.89306641 C-161.42922127 419.54668502 -159.77860739 415.17940608 -158.125 410.8125 C-152.43425627 395.86150439 -146.68957557 380.93103988 -140.90625 366.015625 C-140.64539612 365.34281998 -140.38454224 364.67001495 -140.11578369 363.9768219 C-139.85488953 363.30392624 -139.59399536 362.63103058 -139.32519531 361.93774414 C-138.9344281 360.9298735 -138.9344281 360.9298735 -138.5357666 359.90164185 C-138.01358865 358.55484537 -137.4913721 357.20806386 -136.96911621 355.86129761 C-133.64442662 347.28515156 -130.36239147 338.69538404 -127.15625 330.07421875 C-125.84006649 326.57477138 -124.44918755 323.11008235 -123.046875 319.64453125 C-121.73916756 316.34110612 -120.49264308 313.01577498 -119.25 309.6875 C-113.50522155 294.31747333 -107.6579403 278.99999169 -101.50097656 263.78930664 C-99.25610188 258.22491228 -97.12329312 252.63807255 -95.09423828 246.99169922 C-92.84232724 240.83486792 -90.43844889 234.7347944 -88.0625 228.625 C-87.03219667 225.97149209 -86.00245882 223.31776479 -84.97265625 220.6640625 C-84.71934036 220.01153503 -84.46602448 219.35900757 -84.20503235 218.68670654 C-78.20096223 203.2159419 -72.29417782 187.70756603 -66.37139893 172.20555115 C-64.78936403 168.06488242 -63.20587325 163.92477554 -61.62109375 159.78515625 C-57.8118567 149.8232604 -57.8118567 149.8232604 -54.1015625 139.82421875 C-53.79009277 138.97206787 -53.47862305 138.11991699 -53.15771484 137.24194336 C-52.57931848 135.65407577 -52.00381009 134.06515111 -51.43212891 132.47485352 C-49.77931667 127.92681591 -47.92507884 123.51790744 -45.93310547 119.10839844 C-44.64511598 116.19812182 -43.5351858 113.2368065 -42.4375 110.25 C-41.92124461 108.8565218 -41.40425296 107.46331626 -40.88671875 106.0703125 C-40.59458496 105.28301758 -40.30245117 104.49572266 -40.00146484 103.68457031 C-27.05334282 68.97527004 -13.52125894 34.48868796 0 0 Z M41 79 C40.60731934 80.12269287 40.21463867 81.24538574 39.81005859 82.40209961 C38.32299331 86.65348547 36.83561157 90.90476055 35.34814453 95.15600586 C34.71004025 96.9798699 34.07201658 98.80376214 33.43408203 100.62768555 C20.99982032 136.17792514 20.99982032 136.17792514 16.72265625 147.49414062 C14.79538621 152.66272847 13.03379059 157.87953408 11.3046875 163.1171875 C7.58428603 174.36837412 3.60016571 185.52435132 -0.375 196.6875 C-1.8213386 200.7535421 -3.2665162 204.81999518 -4.7109375 208.88671875 C-5.06573181 209.88502213 -5.42052612 210.8833255 -5.78607178 211.91188049 C-8.64455738 219.96746844 -11.45842319 228.0381628 -14.24276733 236.11967468 C-16.67223574 243.14559479 -19.23249118 250.11756604 -21.91421509 257.05122375 C-23.26132763 260.61408483 -24 263.14232048 -24 267 C18.9 267 61.8 267 106 267 C106 261.89158754 104.56431002 257.8328277 103 253 C102.68289063 252.0203125 102.36578125 251.040625 102.0390625 250.03125 C99.31494132 241.76228641 96.48420338 233.52870912 93.65823364 225.2940979 C93.01813916 223.42788521 92.38001243 221.56099796 91.74194336 219.6940918 C89.32466748 212.67130426 86.78097149 205.71878163 84.05834961 198.80834961 C83.10809608 196.28683488 82.29635858 193.77882977 81.5625 191.1875 C80.34200951 186.93282924 78.83313898 182.81771558 77.25 178.6875 C74.44933437 171.37568323 71.94768599 163.98265901 69.53613281 156.53393555 C68.12890244 152.22606199 66.62782341 148.00110297 64.9140625 143.8046875 C62.89860943 138.8574904 61.48840132 133.84894786 60.125 128.6875 C58.98345732 124.94577677 57.5792889 121.41066189 56.1015625 117.79296875 C53.61712361 111.49377086 51.53418234 105.04254327 49.35546875 98.6328125 C47.08682759 92.00619743 44.68063451 85.47150456 42 79 C41.67 79 41.34 79 41 79 Z " fill="#000000" transform="translate(2258,1013)"/>
<path d="M0 0 C1.18682625 0.00539291 1.18682625 0.00539291 2.39762878 0.01089478 C3.22682831 0.01074875 4.05602783 0.01060272 4.91035461 0.01045227 C7.664521 0.01115166 10.41862063 0.01894523 13.17277527 0.02676392 C15.07706668 0.028628 16.98135857 0.03005195 18.88565063 0.03105164 C23.90804865 0.03487754 28.93041794 0.04470843 33.95280457 0.05575562 C39.07365022 0.06596819 44.1945005 0.07054892 49.31535339 0.07559204 C59.37070459 0.08633064 69.42603442 0.10340792 79.48136902 0.12442017 C79.67785695 0.64112463 79.87434488 1.15782909 80.07678699 1.69019127 C91.35728762 31.35927152 91.35728762 31.35927152 102.78645325 60.97128296 C106.00357362 69.24694686 109.17113391 77.53634962 112.16520691 85.8956604 C113.59344878 89.85232229 115.14313101 93.73656225 116.77824402 97.61270142 C119.66679735 104.48781516 122.31547197 111.44606243 124.95765686 118.41842651 C128.86538105 128.72731126 132.7889061 139.02706623 136.91886902 149.24942017 C139.38259274 155.34893642 141.76883525 161.46740257 144.05558777 167.63540649 C146.45329148 174.09119185 148.93753193 180.51289603 151.41886902 186.93692017 C154.7152186 195.47385684 157.96719742 204.02278961 161.061203 212.63540649 C162.5379949 216.70916641 164.12996161 220.7155773 165.80949402 224.71035767 C168.54693499 231.22572422 171.11443794 237.80202364 173.65592957 244.39541626 C174.41299131 246.35917386 175.17256693 248.32194426 175.93254089 250.28457642 C178.4579339 256.81588471 180.95212722 263.35783776 183.40324402 269.91738892 C186.80845392 279.02968696 190.29815051 288.10903045 193.79386902 297.18692017 C194.12285187 298.04192108 194.45183472 298.896922 194.79078674 299.77783203 C198.94374183 310.57028335 203.11855184 321.35355823 207.34660339 332.11685181 C210.45447902 340.03450024 213.50788381 347.97264005 216.55656433 355.91323853 C219.46531522 363.48760371 222.3864849 371.05704508 225.31755066 378.62280273 C226.04594173 380.50477551 226.77263991 382.38739425 227.49894714 384.27017212 C230.26171848 391.42621287 233.04820109 398.5722083 235.86468506 405.70730591 C237.4543899 409.73927635 239.03524084 413.77469023 240.61512756 417.81051636 C241.39850518 419.8052138 242.18585718 421.79835512 242.97724915 423.78988647 C244.08902632 426.58893797 245.18697413 429.39305834 246.28215027 432.19863892 C246.79053436 433.46373039 246.79053436 433.46373039 247.30918884 434.75437927 C247.61133301 435.53608994 247.91347717 436.3178006 248.22477722 437.12319946 C248.49280655 437.80246994 248.76083588 438.48174042 249.0369873 439.18159485 C249.48136902 441.12442017 249.48136902 441.12442017 248.48136902 445.12442017 C221.09136902 445.12442017 193.70136902 445.12442017 165.48136902 445.12442017 C160.98004666 436.12177544 160.98004666 436.12177544 159.22746277 431.19082642 C158.84783386 430.12928345 158.46820496 429.06774048 158.07707214 427.97402954 C157.69486511 426.88928345 157.31265808 425.80453735 156.91886902 424.68692017 C156.5327948 423.60604126 156.14672058 422.52516235 155.74894714 421.41152954 C154.07324632 416.70415192 152.42479639 411.99106137 150.86027527 407.24551392 C149.67615389 403.65898069 148.36602035 400.13930432 146.98136902 396.62442017 C145.27634722 392.23717004 143.68104558 387.84623499 142.22746277 383.37051392 C140.30639742 377.58720201 138.15451212 371.87961026 135.98136902 366.18692017 C134.81131387 363.08751877 133.76064333 359.96080174 132.73136902 356.81192017 C131.45909198 352.93048124 130.10748545 349.09120134 128.66886902 345.26895142 C128.19078796 343.99628418 128.19078796 343.99628418 127.70304871 342.69790649 C127.06354393 341.00418292 126.418503 339.31253761 125.76750183 337.62319946 C125.47198425 336.83985229 125.17646667 336.05650513 124.87199402 335.24942017 C124.60419128 334.55074829 124.33638855 333.85207642 124.06047058 333.13223267 C123.48136902 331.12442017 123.48136902 331.12442017 123.48136902 327.12442017 C36.85636902 327.61942017 36.85636902 327.61942017 -51.51863098 328.12442017 C-58.75512575 347.44101601 -58.75512575 347.44101601 -65.45222473 366.87832642 C-67.80756546 374.04788006 -70.40038049 381.13653485 -73.03816223 388.20645142 C-77.1763621 399.31457633 -81.08897879 410.4908784 -84.8787384 421.72232056 C-86.84862672 427.50799817 -88.8894787 433.25609146 -91.13581848 438.94082642 C-91.52108704 439.91608276 -91.90635559 440.89133911 -92.30329895 441.89614868 C-93.51863098 444.12442017 -93.51863098 444.12442017 -96.51863098 445.12442017 C-99.02843972 445.21527532 -101.50983019 445.25050166 -104.0193634 445.23794556 C-104.78057999 445.23809158 -105.54179657 445.23823761 -106.32608032 445.23838806 C-108.84211578 445.23769141 -111.3580772 445.22991055 -113.87409973 445.22207642 C-115.6185909 445.22021136 -117.36308259 445.21878787 -119.10757446 445.2177887 C-123.6992182 445.21397043 -128.29083031 445.20414601 -132.88246155 445.19308472 C-137.56782097 445.18285578 -142.25318549 445.17828789 -146.93855286 445.17324829 C-156.13192613 445.16252314 -165.32527592 445.14545497 -174.51863098 445.12442017 C-175.828276 440.88526117 -174.84135702 438.9672405 -172.95613098 434.93692017 C-170.62827885 429.7990565 -168.58168392 424.65260647 -166.76863098 419.31192017 C-163.87012296 410.85423759 -160.54570788 402.58456626 -157.20027161 394.2953186 C-153.83640725 385.9518154 -150.63171916 377.56394824 -147.51863098 369.12442017 C-141.6303509 353.31557895 -135.72132612 337.51334293 -129.39363098 321.87442017 C-126.72669469 315.27796784 -124.25877822 308.64947723 -121.95222473 301.91958618 C-119.28111951 294.24105142 -116.20125724 286.72559295 -113.12068176 279.20376587 C-111.05853914 274.13321075 -109.14050409 269.07476033 -107.46394348 263.86270142 C-106.10210537 259.66489876 -104.49615731 255.85352702 -102.43855286 251.95791626 C-100.90149157 248.89439974 -99.8545866 245.68175557 -98.76863098 242.43692017 C-96.43093556 235.63892638 -93.95965745 228.90207486 -91.39363098 222.18692017 C-91.0691095 221.33589722 -90.74458801 220.48487427 -90.41023254 219.60806274 C-88.81305071 215.43876956 -87.18748552 211.28275434 -85.52253723 207.14004517 C-83.47990474 202.05383065 -81.52323872 196.93721773 -79.58113098 191.81192017 C-78.87682363 189.95901007 -78.17239692 188.10614533 -77.46784973 186.25332642 C-77.13188782 185.36919067 -76.7959259 184.48505493 -76.44978333 183.5741272 C-73.62378764 176.13940232 -70.76603018 168.72242812 -67.78816223 161.34707642 C-64.64986966 153.53277731 -61.67085933 145.66174513 -58.71076965 137.77856445 C-53.62956068 124.25211962 -48.45355962 110.76937094 -43.1431427 97.33120728 C-40.39307268 90.36775078 -37.71236398 83.38578739 -35.10847473 76.36660767 C-32.96028288 70.60078612 -30.73243374 64.86527785 -28.51863098 59.12442017 C-25.3852913 50.99440981 -22.27921058 42.85649157 -19.22956848 34.69473267 C-16.98589528 28.69540777 -14.73130928 22.70021809 -12.46855164 16.70806885 C-11.96179467 15.36467504 -11.45603071 14.02090622 -10.95127869 12.67675781 C-10.24059943 10.78465537 -9.52617685 8.89396022 -8.81159973 7.00332642 C-8.39418518 5.89545776 -7.97677063 4.78758911 -7.54670715 3.64614868 C-5.80955791 -0.6148379 -4.43500055 0.00850799 0 0 Z M35.48136902 79.12442017 C35.19116882 79.95014526 34.90096863 80.77587036 34.60197449 81.62661743 C33.18807262 85.64717711 31.77272528 89.66722454 30.35636902 93.68692017 C30.09148682 94.43871552 29.82660461 95.19051086 29.55369568 95.96508789 C25.49475536 107.47904855 21.38656748 118.97455291 17.2485199 130.46029663 C12.51466448 143.60154664 7.83965068 156.75733825 3.31340027 169.97183228 C-0.29274028 180.49732842 -3.9631276 190.99972916 -7.64363098 201.49942017 C-8.84030791 204.91346082 -10.0369594 208.32751038 -11.23347473 211.74160767 C-11.51900711 212.55628006 -11.80453949 213.37095245 -12.09872437 214.21031189 C-14.79045989 221.89368262 -17.46504634 229.5829737 -20.12263489 237.27822876 C-21.34231414 240.79916304 -22.5850634 244.29859592 -23.91316223 247.78067017 C-26.27527954 254.17160557 -28.36401609 260.66057548 -30.51863098 267.12442017 C13.04136902 267.12442017 56.60136902 267.12442017 101.48136902 267.12442017 C100.07570948 260.79895224 98.95167036 256.75670722 96.48136902 251.12442017 C96.02476339 249.65626802 95.58913475 248.18150971 95.16886902 246.70254517 C93.33230591 240.48130782 91.12906132 234.40848219 88.91886902 228.31192017 C88.02045136 225.81497404 87.12291538 223.31774079 86.22746277 220.81973267 C85.99916779 220.18300125 85.7708728 219.54626984 85.53565979 218.89024353 C83.1326691 212.17360935 80.80081751 205.4328216 78.48136902 198.68692017 C78.07088318 197.49340942 77.66039734 196.29989868 77.23747253 195.07022095 C75.55563916 190.17504311 73.87690877 185.27880578 72.19914246 180.38223267 C67.62940024 167.05064204 63.0204276 153.74201648 58.16398621 140.51187134 C56.40109713 135.69710383 54.70296291 130.8726475 53.10636902 125.99942017 C47.94433637 110.24905433 42.16088965 94.69417461 36.48136902 79.12442017 C36.15136902 79.12442017 35.82136902 79.12442017 35.48136902 79.12442017 Z " fill="#000000" transform="translate(3126.5186309814453,1012.8755798339844)"/>
<path d="M0 0 C11.82137572 -0.39479012 23.64117285 -0.69637491 35.46780968 -0.88080692 C40.96057079 -0.9693569 46.44880835 -1.08929663 51.93896484 -1.2824707 C57.24325065 -1.46792542 62.54320468 -1.56896259 67.85048294 -1.61291313 C69.86924118 -1.64420377 71.88777486 -1.70532608 73.90467453 -1.79741096 C89.29267628 -2.4716915 89.29267628 -2.4716915 93.81282806 1.65504837 C97.00408342 5.73313029 99.1514958 10.19267041 101.12223339 14.95827293 C102.32393193 17.75348114 103.86444368 20.29469758 105.46875 22.875 C105.97204834 23.72610352 106.47534668 24.57720703 106.99389648 25.45410156 C107.49091064 26.29424805 107.9879248 27.13439453 108.5 28 C112.48832139 34.74465131 116.46883855 41.49376293 120.4375 48.25 C124.25081943 54.7390048 128.10117282 61.20419853 131.99462891 67.64550781 C136.41570855 74.96301996 140.76961458 82.30654539 144.98876953 89.74267578 C148.46023809 95.84285815 152.08036621 101.85069756 155.70800781 107.85888672 C162.54852549 119.19511878 169.35331716 130.54884131 176 142 C180.9619669 150.53740462 185.9752788 159.02635511 191.25 167.375 C195.09036194 173.45828101 198.63085258 179.64160902 202 186 C202.95429444 187.73139893 203.91239402 189.46070822 204.875 191.1875 C205.28492188 191.92355469 205.69484375 192.65960937 206.1171875 193.41796875 C206.40851563 193.94003906 206.69984375 194.46210937 207 195 C207.66 195 208.32 195 209 195 C209.556875 194.00742188 210.11375 193.01484375 210.6875 191.9921875 C224.07968532 168.13883622 224.07968532 168.13883622 230.0625 158.25 C235.6396301 149.03004808 240.98048881 139.67290526 246.3515625 130.33203125 C248.74473143 126.17114814 251.15216624 122.01913417 253.57421875 117.875 C256.81275049 112.3317435 260.00812115 106.76484989 263.1875 101.1875 C263.69474609 100.29869141 264.20199219 99.40988281 264.72460938 98.49414062 C265.22154297 97.62337891 265.71847656 96.75261719 266.23046875 95.85546875 C266.94505249 94.60334595 266.94505249 94.60334595 267.67407227 93.32592773 C268.48591991 91.9017936 269.29659045 90.47698662 270.10522461 89.05102539 C272.39868449 85.01316475 274.77882388 81.03216595 277.1875 77.0625 C280.37666132 71.78468587 283.44750175 66.45536476 286.4375 61.0625 C289.91721055 54.79381369 293.63708478 48.71306997 297.47363281 42.6574707 C300.36525203 38.07340376 303.03557369 33.4151052 305.58203125 28.62890625 C307.12004391 25.77743925 308.73639946 22.98232653 310.375 20.1875 C314.30024281 13.48751658 318.14741457 6.74202451 322 0 C351.37 0 380.74 0 411 0 C409.97826802 4.08692792 408.54306374 6.80735977 406.4375 10.4375 C406.08179932 11.05149658 405.72609863 11.66549316 405.35961914 12.2980957 C400.64609718 20.39041954 395.70324659 28.3367014 390.66015625 36.2265625 C387.19427764 41.66689142 383.83584105 47.16679772 380.5 52.6875 C374.880902 61.95532343 369.16933298 71.16138397 363.41186523 80.34375 C358.27290203 88.54564023 353.21305216 96.7933692 348.18164062 105.06152344 C345.80554364 108.95950072 343.40884132 112.84477087 341.01391602 116.73120117 C339.09553466 119.84493713 337.17835456 122.95940809 335.26171875 126.07421875 C334.55688524 127.21964548 333.85205124 128.3650719 333.1472168 129.51049805 C332.61274429 130.37908951 332.61274429 130.37908951 332.06747437 131.26522827 C330.37838642 134.01019537 328.68918845 136.75509475 327 139.5 C326.34 140.5725 325.68 141.645 325 142.75 C319 152.5 319 152.5 317.00537109 155.74121094 C315.65406166 157.93712989 314.30282621 160.13309438 312.95166016 162.32910156 C310.96804077 165.55289899 308.98408728 168.77649052 307 172 C306.1332666 173.40862305 306.1332666 173.40862305 305.24902344 174.84570312 C303.62614021 177.48157806 302.00085419 180.11595682 300.375 182.75 C299.84132813 183.61753906 299.30765625 184.48507812 298.7578125 185.37890625 C295.71138827 190.31086004 292.58847574 195.1719674 289.32641602 199.96435547 C287.96545483 202.05301631 286.75107535 204.18432287 285.5625 206.375 C283.21477154 210.69780161 280.5987642 214.80612287 277.9375 218.94140625 C275.82049993 222.28336402 273.77690326 225.66556027 271.75 229.0625 C268.26955156 234.8869548 264.77393698 240.70172793 261.25 246.5 C260.80237305 247.2412915 260.35474609 247.98258301 259.89355469 248.74633789 C257.84756649 252.10581406 255.76417593 255.37003775 253.421875 258.53125 C246.75718557 267.99003863 246.42082787 275.53979543 246.4699707 286.75732422 C246.46286664 288.45967904 246.45400048 290.16202729 246.44351196 291.86436462 C246.4199716 296.46932968 246.42062465 301.07401072 246.42542672 305.67902136 C246.42602109 310.50010912 246.40331624 315.32108414 246.38285828 320.14212036 C246.34748661 329.26617236 246.33143665 338.39014476 246.3230831 347.51425755 C246.3101036 360.92415117 246.27187365 374.33397882 246.22898388 387.74380684 C246.22584519 388.72616904 246.22270651 389.70853124 246.21947271 390.720662 C246.21319321 392.67860302 246.20684966 394.63654384 246.20044011 396.59448445 C246.18234813 402.33756991 246.17126166 408.08061604 246.16614306 413.82372737 C246.16232033 417.38671972 246.15471131 420.94969772 246.1463356 424.51268196 C246.14336748 426.16955534 246.14214129 427.82643286 246.14274788 429.48330879 C246.14341144 431.73743192 246.13809039 433.99146384 246.13130188 436.24557495 C246.1300446 437.50910231 246.12878733 438.77262966 246.12749195 440.07444572 C246 443 246 443 245 445 C234.84733849 445.02312392 224.6946832 445.04091534 214.54200077 445.05181217 C209.82820267 445.05704089 205.11442253 445.06413834 200.40063477 445.07543945 C195.85544596 445.08626873 191.31027448 445.09227692 186.76507378 445.09487724 C185.02705042 445.09673142 183.28902806 445.10035189 181.55101204 445.10573006 C179.12521405 445.11294103 176.69948854 445.11399092 174.27368164 445.11352539 C173.54791931 445.11712067 172.82215698 445.12071594 172.07440186 445.12442017 C167.11405216 445.11405216 167.11405216 445.11405216 166 444 C165.90605729 441.7694568 165.88427011 439.53587581 165.8888855 437.30335999 C165.88888648 436.59493956 165.88888747 435.88651913 165.88888848 435.15663141 C165.88992786 432.76463052 165.89795951 430.37270057 165.90576172 427.98071289 C165.90763959 426.27267505 165.90898523 424.56463656 165.90983582 422.8565979 C165.91212518 419.16793793 165.91685654 415.47929149 165.92303085 411.79063606 C165.93141803 405.95312843 165.92601157 400.11568686 165.91702271 394.27818298 C165.9155517 393.29364342 165.91408069 392.30910386 165.91256511 391.29472977 C165.90949406 389.28076991 165.90637403 387.26681012 165.90320611 385.25285041 C165.88201627 371.65766936 165.86825943 358.06270175 165.90039062 344.4675293 C165.92194504 335.30521266 165.91873273 326.14327375 165.88698208 316.98098177 C165.87114969 312.13241008 165.86785242 307.28456024 165.89474106 302.4360218 C165.91984894 297.86793921 165.91213575 293.30106237 165.87986183 288.73303604 C165.87379338 287.06178821 165.87953881 285.39044651 165.89835548 283.71929359 C165.99277632 274.70650552 165.71847975 268.02837937 159.50064278 260.87634945 C158 259 158 259 158 256 C157.34 256 156.68 256 156 256 C153 250.25 153 250.25 153 248 C152.34 248 151.68 248 151 248 C150.55213135 247.17991455 150.55213135 247.17991455 150.09521484 246.34326172 C147.07253313 240.8499274 143.91057488 235.46464008 140.625 230.125 C140.14095703 229.33544922 139.65691406 228.54589844 139.15820312 227.73242188 C136.11411812 222.77816337 133.01632154 217.86196239 129.875 212.96875 C126.87867173 208.22456356 123.97539119 203.42376774 121.05786133 198.63085938 C117.94472119 193.5242125 114.76785364 188.4641533 111.5390625 183.4296875 C109.49563952 180.2037761 107.54136753 176.92817994 105.5859375 173.6484375 C100.97789644 165.95323593 96.2450149 158.34382034 91.375 150.8125 C88.3333176 146.10815956 85.37745372 141.36519057 82.51953125 136.546875 C80.08372082 132.46423129 77.57970877 128.42390216 75.08203125 124.37890625 C73.67701356 122.09871807 72.2776814 119.81603356 70.88671875 117.52734375 C66.72872733 110.66831852 66.72872733 110.66831852 62.1875 104.0625 C57 96.8 57 96.8 57 93 C56.34 93 55.68 93 55 93 C54.50693359 92.05253906 54.50693359 92.05253906 54.00390625 91.0859375 C50.71607504 84.90232 47.14276841 78.99611567 43.32519531 73.13330078 C39.59316091 67.39982515 36.09274628 61.5470276 32.6171875 55.65625 C29.71418938 50.77032967 26.71037014 45.96013094 23.625 41.1875 C19.71606163 35.14041551 15.9095543 29.03790918 12.16113281 22.88964844 C10.8044555 20.68176737 9.42962351 18.48561734 8.0546875 16.2890625 C7.03638873 14.65108494 6.01815917 13.01306435 5 11.375 C4.5064502 10.5922168 4.01290039 9.80943359 3.50439453 9.00292969 C3.04919434 8.26719727 2.59399414 7.53146484 2.125 6.7734375 C1.71507812 6.11778809 1.30515625 5.46213867 0.8828125 4.78662109 C0 3 0 3 0 0 Z " fill="#000000" transform="translate(47,1013)"/>
</svg>
